<?xml version="1.0" encoding="utf-8"?>
<!-- Generator: Adobe Illustrator 21.0.0, SVG Export Plug-In . SVG Version: 6.00 Build 0)  -->
<svg version="1.1"
	 id="Layer_1" inkscape:version="0.91 r13725" sodipodi:docname="experiment_1_no_replicate.svg" xmlns:cc="http://creativecommons.org/ns#" xmlns:dc="http://purl.org/dc/elements/1.1/" xmlns:inkscape="http://www.inkscape.org/namespaces/inkscape" xmlns:rdf="http://www.w3.org/1999/02/22-rdf-syntax-ns#" xmlns:sodipodi="http://sodipodi.sourceforge.net/DTD/sodipodi-0.dtd" xmlns:svg="http://www.w3.org/2000/svg"
	 xmlns="http://www.w3.org/2000/svg" xmlns:xlink="http://www.w3.org/1999/xlink" x="0px" y="0px" viewBox="0 0 316 568"
	 style="enable-background:new 0 0 316 568;" xml:space="preserve">
<style type="text/css">
	.st0{fill:#FFFF00;stroke:#000000;stroke-width:3;}
	.st1{fill:none;stroke:#666666;stroke-width:0.25;stroke-miterlimit:10;}
	.st2{fill:#666666;}
	.st3{fill:#9ACD32;}
	.st4{enable-background:new    ;}
	.st5{fill:#BDB76B;stroke:#989898;stroke-miterlimit:10;}
	.st6{stroke:#989898;stroke-miterlimit:10;}
	.st7{fill:#6B8E23;}
	.st8{fill:#FFFF00;}
	.st9{fill:#4c2b20;stroke:#989898;stroke-width:0.75;stroke-miterlimit:10;}
	.st10{fill:none;stroke:#989898;stroke-width:0.5;stroke-miterlimit:10;}
	.st11{fill:none;stroke:#989898;stroke-miterlimit:10;}
	.st12{fill:#CDCCCC;}
	.st13{fill:#90EE90;stroke:#666666;stroke-width:0.25;stroke-miterlimit:10;}
	.st14{fill:none;stroke:#666666;stroke-miterlimit:10;stroke-dasharray:4,4;}
	.st15{fill:#0000FF;}
</style>
<symbol  id="Info" viewBox="-31.5 -31.5 63 63">
	<circle class="st0" cx="0" cy="0" r="30"/>
	<circle cx="0" cy="12.3" r="4.7"/>
	<rect x="-4.3" y="-17" width="8.5" height="21.1"/>
</symbol>
<g transform="translate(-100,0)">
	
		<sodipodi:namedview  bordercolor="#666666" borderopacity="1" gridtolerance="10" guidetolerance="10" id="namedview163" inkscape:current-layer="svg2" inkscape:cx="632.19362" inkscape:cy="541.0211" inkscape:pageopacity="0" inkscape:pageshadow="2" inkscape:window-height="1043" inkscape:window-maximized="0" inkscape:window-width="1861" inkscape:window-x="40" inkscape:window-y="86" inkscape:zoom="0.6675088" objecttolerance="10" pagecolor="#ffffff" showgrid="false">
		</sodipodi:namedview>
	<g id="g4960" transform="matrix(1.1339619,0,0,1.1339619,-142.93722,-13.827904)">
		<g id="g4726_1_">
			<g id="g4728_1_">
				<line id="line4730_1_" class="st1" x1="400.4" y1="186.4" x2="382.3" y2="193"/>
				<g id="g4732_1_">
					<path id="path4734_1_" inkscape:connector-curvature="0" class="st2" d="M381.2,193.4c0.4-0.4,0.9-0.9,1.2-1.4v1l0.6,0.7
						C382.5,193.5,381.8,193.4,381.2,193.4z"/>
				</g>
			</g>
		</g>
		<path id="exatlas_youngleaf" inkscape:connector-curvature="0" class="st3" d="M418.4,144.5L418.4,144.5c-0.7-0.6-1-1-0.4-1.8
			c1.9-2.5,1-4.6-2.5-5.4c-1.5-0.4-2.7-0.7-2.9-2.2c0.2-0.1,0.4-0.4,0.7-0.5c1.4,0.1,2.6-0.4,2.7-1.6c0.1-0.9-0.2-1.9-1.6-2.6
			c-2.5-1.4-5.7-2.1-7.6-4.6c-1.1-1.5-8.1-0.1-9.7,1.6c-1,1-1.7,2.2-3.1,3c-1.3,0.7-2.4,1.2-3.9,0.4c-2.4-1.3-4.9-0.1-7.3,0.1
			c-2.4,0.3-3.8,0-4.3-2.2c-0.4-2.1,1.5-2.1,2.9-2.5c0.3-0.1,0.4-0.5,0.7-0.8c0.4-1.2,2.3-1.3,2.5-2.6c1-0.9,2.8-1.1,3.1-2.6
			c0.2-0.2,0.4-0.4,0.7-0.6c3,1.3,4.4-0.7,6.1-2.2c1.4-0.2,2.8-0.4,4.3-0.6c1.7-1.6,0.5-2.8-1-3.7c-1-0.7-2.3-0.4-3.5-0.4
			c-1.5-0.1-3.3,0.4-3.8-1.7c-0.3-1.3-2-0.9-3.1-1.1c-1-0.2-2.2-0.1-3.4-0.1c1.1-0.4,0.8-2.1,2.4-2.2c0.5,0,1.3-0.3,1.1-0.6
			c-1.9-2.7,1.9-4,1.7-6.3c-0.1-0.4-0.4-0.9-0.7-1.1c-2.4-1.4-1.6-2.5,0.4-3.4c1.4-0.2,3.4,0.7,4.1-0.7c0.9-2-1.3-3.1-2.7-4.3l0,0
			c-0.6-0.8-1-1.8-2.4-1.9c-0.4,0-1-0.2-1-0.4c-0.4-3.9-4.2-3.4-7-4.3c-1.2-0.4-2.7-0.6-2.7-2.2c0.6-2.3-0.3-3.8-3-4.4
			c-2.4-1.1-2.1-3.4-2.3-5.2c-0.5-3.2-2.6-4.8-5.8-5c-4.3-0.3-8.5-1-12.7-1.7c-2.9-0.5-4.3,0.7-4.5,3.3c-3.4,0.4-6.3,1.8-8.7,3.7
			c-1,0.7-1.6,1.9-2.9,2.2c-3.4,1.1-3.4,3.9-4.2,6.3c-0.4,1.3-1,2.4-2.8,2.5c-0.5,0.1-1.1,0.3-1,0.8c0.4,3.1-2.6,3.2-4.6,3.4
			c-2.8,0.2-1.9,3.1-3.9,3.6c0.4,1.1,1,1.9,2.2,2.5c2,1,2.6,3.9,1.3,5.8c-1,1.5-1,1.6,1.3,2.4c0.1,0,0.3,0,0.4,0
			c2,0,3.4,0.4,2.8,2.6c-0.2,0.8,0.4,1.8,1.7,1.7l0,0c0.7,0.1,1.6,0.8,1.3,1.3c-0.7,1-1.9,2.2-3.2,2.2c-4.8-0.1-7.6,1.9-9.2,5.6
			c-0.5,1.3-2.3,1.3-2.8,2.7c-0.4,1-0.8,1.8,0.3,2.5c1.9,0.9,3.6,3,6.3,1.6c0.4,0.1,0.7,0.1,1,0.1c0.4,0.1,0.9,0.4,1.3,0.5
			c-0.7,2.6-0.1,4.6,3.1,5.5c1.6,0.7,3.3,0.5,4.9,0.6c1.9,0.1,3.9-0.1,5.6,1c0.1,0.7-0.3,1.2-0.7,1.8c-0.1,0-0.1-0.1-0.1-0.1
			c-1.3-0.4-2.4,0-3.1,1c-0.2,0.1-0.3,0.2-0.4,0.4c-0.1,0-0.2-0.1-0.3-0.1c-0.1-0.1-0.1-0.1-0.2-0.1c0-0.2-0.1-0.4-0.3-0.7
			c-0.4-0.3-0.7-0.6-1.1-0.7c-0.1-0.3-0.3-0.5-0.7-0.5c-1-0.1-1.9-0.2-3-0.2c-0.3-0.1-0.6-0.2-0.9-0.4c-0.3-0.1-0.6-0.1-0.8,0.1
			c-0.1,0-0.1,0-0.2-0.1c0,0,0,0-0.1-0.1c-0.7-0.5-1.5-0.4-2.1-0.1c-0.4,0.1-0.7,0.4-0.8,0.7c-0.1-0.1-0.2-0.1-0.4-0.1
			c-0.8-0.4-1.8-0.3-2.3,0.1c-0.1,0-0.1,0-0.1,0c-0.7,0-1.3,0.1-1.7,0.4c-1.6,1.3-0.5,2.4,0.9,3.1c-0.1,0.1-0.2,0.4-0.2,0.6
			c0.1,1.5,1.9,2,3.4,1.9c0.4,1.2,1.7,2.2,2.7,2.9c1.1,0.7,2.3,1.6,3.7,2.2c-0.1,0.1,0,0.2,0.1,0.2c0.4,0.1,0.8,0.2,1.2,0.3
			c0.4,0.1,0.9,0.3,1.3,0.3c0.4,0.4,1,0.7,1.5,0.8c0.2,0.1,0.4,0,0.6-0.2l0,0c0.4,0.3,0.7,0.7,1.1,1c1.9,1.5,4,2.6,6.4,3.3
			c-1,1-1.6,2.5-1.3,4.1c0.1,0.8,0.4,1.3,0.8,1.6c-0.1,0.7,0.1,1.3,0.7,1.9c0.6,0.4,1.5,0.7,2.3,0.6c0.3-1.5,2.8,0.9,4.8,0.9l7-0.1
			c3.2,1.6,5-2.4,5.4-0.9c0.4-0.1,0.8-0.4,1.1-0.7c0.1,0,0.2-0.1,0.3-0.1c0.4-0.2,0.7-0.5,0.9-0.8c1-0.7,1.6-1.8,1.6-2.8
			c-0.1-0.7-0.5-1.3-1.1-1.6c0.1-0.5,0.3-1,0.4-1.6c0.5,0,1,0,1.5,0c0.1,0.1,0.3,0.2,0.5,0.3c0.4,0.1,1,0.3,1.6,0.3
			c0.2,0.5,0.7,1,1.3,1.2c0.2,0.1,0.4,0.1,0.7,0.1c0.3,0.7,1,1.2,1.8,1.5c0.7,0.3,1.3,0.6,2.1,0.7c0.4,0.1,0.9-0.3,1.1-0.6
			c0.1-0.1,0.1-0.3,0.2-0.4c0.2-0.1,0.4-0.2,0.6-0.4c0.1,0,0.2,0,0.4-0.1c0.3,0.1,0.7,0.1,1,0.2c0.8,0.4,1.7,0.7,2.6,0.9
			c0.1,0,0.2,0,0.3,0c1,0.4,2.1,1,3.1,1.4h0.1c0.4,0.1,0.7,0.4,1,0.5c2.2,0.9,4.7,1.1,7.1,1.2c0,0.1,0.1,0.1,0.1,0.1
			c4.3,0.6,10.1,1.3,14.4,0c0.2-0.1,0.3-0.4,0-0.5c-1.1-0.2-2.2-0.3-3.4-0.2c1.5-0.6,2.9-1.3,4.3-2.2l0.1-0.1
			c2.2,0.5,4.3,1.4,6.4,0.1c1.5-0.3,3.1-0.6,4.2-1.8C420.4,148.2,420.6,146.4,418.4,144.5L418.4,144.5z M332.9,142.5L332.9,142.5
			c-0.1,0-0.1,0-0.1,0c-0.4-0.1-0.7-0.1-1-0.2c-1.3-0.6-2.6-1.6-3.8-2.3c-0.8-0.5-1.7-1-2.4-1.8c-0.3-0.4-0.5-0.7-0.7-1.2
			c0.1,0,0.1-0.1,0.2-0.1c0.1-0.1,0.2-0.1,0.3-0.1c0.1,0.1,0.1,0.1,0.1,0.1c0.7,0.7,1.6,0.7,2.6,0.5c0.1,0,0.4,0,0.5,0
			c1.5,1.8,3.2,3.5,4.9,5.1C333.4,142.5,333.2,142.5,332.9,142.5L332.9,142.5z M337.9,144.9L337.9,144.9c0,0.1,0.1,0.1,0.1,0.1
			c-0.9-0.6-1.8-1.2-2.7-2c0-0.1-0.1-0.3-0.3-0.3h-0.1c-1.7-1.6-3.3-3.5-4.9-5.3c0.5-0.1,1-0.2,1.4-0.4c0.1,0.1,0.1,0.1,0.2,0.1
			c0.1,0.8,1.1,1.3,2.3,1.4c0.7,2.4,2.4,4.3,4,6.1C337.9,144.6,337.8,144.7,337.9,144.9L337.9,144.9z M345,146.1
			c-0.1,0.1-0.1,0.3-0.1,0.5c-0.6,0.1-1.2,0.4-1.7,0.7c-1.1-0.3-2.2-0.7-3.2-1.1v-0.1c-0.1-0.4-0.6-0.5-0.9-0.7
			c-0.1-0.1-0.1-0.1-0.3-0.1v-0.1c-0.7-1.3-1.6-2.4-2.5-3.6c-0.6-0.9-1-1.8-1.3-2.7c1,0.2,2.1,0.2,3.1-0.3c0,0,0,0,0.1,0
			c0,0.1,0,0.1,0.1,0.1c-0.1,0.2-0.1,0.4-0.2,0.7c-0.7,1.7,0.5,2.3,2.1,2.3c0.1,0.1,0.3,0.3,0.5,0.3c0,0,0,0,0,0.1
			c-0.1,0.6,0.5,1,1.1,1.1c0.4,0,0.7-0.1,1.1-0.2c0.1,0.5,0.5,0.9,1,1.1c0.1,0.2,0.4,0.3,0.5,0.4c0.2,0.1,0.5,0.3,0.8,0.4
			c0.1,0.1,0.1,0.3,0.1,0.4C345.3,145.5,345.1,145.8,345,146.1L345,146.1z M404.7,148.8L404.7,148.8L404.7,148.8
			c-1.2,0.4-2.4,0.6-3.7,0.8c1.1-0.9,2.2-1.8,3.1-2.9C404.6,147.1,404.8,147.7,404.7,148.8L404.7,148.8z M387.3,153.1
			c-1.4-0.4-2.8-1-4.2-1.6c-0.7-0.3-1.3-0.6-2.1-0.9c-0.1,0-0.1-0.1-0.2-0.1c1.3,0.1,2.5-0.3,3.6-1.6c0.5-0.6,1.1-1.1,2-0.4
			c2.5,1.6,5,1,7.5,0.1c-0.2,0.2-0.4,0.4-0.7,0.7c-1.6,1.6-3.7,2.9-5.8,3.7C387.3,152.9,387.3,153,387.3,153.1L387.3,153.1z
			 M392.2,153.8c-0.9,0-1.8-0.1-2.7-0.1c-0.7-0.1-1.3-0.2-1.9-0.4c2.6-0.8,5.8-2.6,7.7-5c1.3,0.1,2.8,0.2,3.2-1.5
			c0.9-0.1,1.8-0.1,2.7-0.3c1-0.1,1.8-0.2,2.4,0C400.5,149.7,396.9,152.3,392.2,153.8C392.2,153.7,392.2,153.7,392.2,153.8
			L392.2,153.8z M404.6,152.6c0-0.1,0.1-0.1,0.1-0.1c0.1-0.1-0.1-0.3-0.3-0.2c-1.9,1.4-5.1,1.3-7.3,1.4c-1.3,0.1-2.7,0.1-4,0.1
			c2.5-0.8,4.9-1.9,7-3.4c0.1,0.1,0.1,0.1,0.3,0.1c1.3,0.1,2.9-0.1,4.4-0.4c0.1,0.7,0.6,1.4,1.4,1.7
			C405.7,152,405.2,152.3,404.6,152.6z"/>
		<g id="text4739_1_" class="st4">
			<path d="M369,282.5c0,0.3-0.1,0.6-0.2,0.9s-0.3,0.5-0.5,0.7s-0.5,0.4-0.9,0.6c-0.3,0.1-0.8,0.2-1.3,0.2h-1v2.7h-1v-7.2h1.9
				c0.4,0,0.8,0,1.1,0.1c0.3,0.1,0.6,0.2,0.8,0.3c0.3,0.2,0.5,0.4,0.6,0.7C368.9,281.7,369,282.1,369,282.5z M368,282.5
				c0-0.2,0-0.5-0.1-0.6s-0.2-0.3-0.4-0.4c-0.2-0.1-0.3-0.2-0.5-0.2s-0.4-0.1-0.7-0.1h-0.9v2.9h0.8c0.4,0,0.7,0,0.9-0.1
				c0.2-0.1,0.4-0.2,0.6-0.3c0.2-0.2,0.3-0.3,0.3-0.5C368,282.9,368,282.7,368,282.5z"/>
			<path d="M374.7,287.5h-0.9v-3.1c0-0.2,0-0.5,0-0.7s-0.1-0.4-0.2-0.5s-0.2-0.2-0.3-0.3c-0.2-0.1-0.3-0.1-0.6-0.1
				c-0.2,0-0.5,0.1-0.8,0.2s-0.5,0.3-0.8,0.5v4h-0.9V280h0.9v2.7c0.3-0.2,0.6-0.4,0.9-0.5s0.6-0.2,0.9-0.2c0.6,0,1,0.2,1.3,0.5
				c0.3,0.4,0.5,0.9,0.5,1.5V287.5z"/>
			<path d="M377.4,287.5h-0.9V280h0.9V287.5z"/>
			<path d="M383.7,284.8c0,0.9-0.2,1.6-0.7,2.1c-0.4,0.5-1.1,0.8-1.8,0.8c-0.8,0-1.4-0.3-1.8-0.8s-0.7-1.2-0.7-2.1s0.2-1.6,0.7-2.1
				c0.4-0.5,1.1-0.8,1.8-0.8c0.8,0,1.4,0.3,1.8,0.8C383.5,283.2,383.7,283.9,383.7,284.8z M382.8,284.8c0-0.7-0.1-1.2-0.4-1.6
				c-0.3-0.3-0.7-0.5-1.1-0.5c-0.5,0-0.9,0.2-1.1,0.5c-0.3,0.3-0.4,0.9-0.4,1.6s0.1,1.2,0.4,1.5s0.7,0.5,1.1,0.5
				c0.5,0,0.9-0.2,1.1-0.5S382.8,285.5,382.8,284.8z"/>
			<path d="M389.6,284.9h-4c0,0.3,0,0.6,0.1,0.9c0.1,0.2,0.2,0.4,0.4,0.6c0.2,0.2,0.4,0.3,0.6,0.3c0.2,0.1,0.5,0.1,0.8,0.1
				c0.4,0,0.7-0.1,1.1-0.2s0.6-0.3,0.8-0.4l0,0v1c-0.3,0.1-0.6,0.2-0.9,0.3c-0.3,0.1-0.7,0.1-1,0.1c-0.9,0-1.6-0.2-2.1-0.7
				s-0.8-1.2-0.8-2.1s0.2-1.6,0.7-2.1s1.1-0.8,1.9-0.8c0.7,0,1.3,0.2,1.7,0.6c0.4,0.4,0.6,1,0.6,1.8L389.6,284.9L389.6,284.9z
				 M388.7,284.2c0-0.5-0.1-0.8-0.4-1.1c-0.2-0.3-0.6-0.4-1.1-0.4s-0.9,0.1-1.2,0.4c-0.3,0.3-0.4,0.6-0.5,1.1H388.7z"/>
			<path d="M398.8,287.5h-0.9v-3.1c0-0.2,0-0.5,0-0.7s-0.1-0.4-0.1-0.5c-0.1-0.1-0.2-0.2-0.3-0.3s-0.3-0.1-0.6-0.1
				c-0.3,0-0.5,0.1-0.8,0.2s-0.5,0.3-0.8,0.5c0,0.1,0,0.2,0,0.3c0,0.1,0,0.2,0,0.3v3.4h-0.9v-3.1c0-0.2,0-0.5,0-0.7
				s-0.1-0.4-0.1-0.5c-0.1-0.1-0.2-0.2-0.3-0.3c-0.1-0.1-0.3-0.1-0.6-0.1c-0.2,0-0.5,0.1-0.7,0.2s-0.5,0.3-0.7,0.5v4h-1v-5.4h0.9
				v0.6c0.3-0.2,0.6-0.4,0.8-0.5c0.3-0.1,0.6-0.2,0.9-0.2c0.4,0,0.7,0.1,0.9,0.2c0.3,0.2,0.4,0.4,0.6,0.6c0.4-0.3,0.7-0.5,1-0.7
				c0.3-0.1,0.6-0.2,1-0.2c0.6,0,1,0.2,1.3,0.5c0.3,0.4,0.4,0.9,0.4,1.5L398.8,287.5L398.8,287.5z"/>
			<path d="M403.8,280l-3.5,9h-0.8l3.4-9H403.8z"/>
			<path d="M410.6,280.3l-2.5,3.5l2.5,3.6h-1.1l-2-3l-2,3h-1l2.5-3.6l-2.4-3.6h1.1l1.9,2.9l2-2.9h1V280.3z"/>
			<path d="M416.1,282.1l-3.1,7.4h-1l1-2.2l-2.1-5.1h1l1.7,4l1.7-4L416.1,282.1L416.1,282.1z"/>
			<path d="M418.2,287.5h-0.9V280h0.9V287.5z"/>
			<path d="M424.5,284.9h-4c0,0.3,0,0.6,0.1,0.9c0.1,0.2,0.2,0.4,0.4,0.6c0.2,0.2,0.4,0.3,0.6,0.3c0.2,0.1,0.5,0.1,0.8,0.1
				c0.4,0,0.7-0.1,1.1-0.2c0.4-0.1,0.6-0.3,0.8-0.4l0,0v1c-0.3,0.1-0.6,0.2-0.9,0.3c-0.3,0.1-0.7,0.1-1,0.1c-0.9,0-1.6-0.2-2.1-0.7
				s-0.8-1.2-0.8-2.1s0.2-1.6,0.7-2.1s1.1-0.8,1.9-0.8c0.7,0,1.3,0.2,1.7,0.6s0.6,1,0.6,1.8v0.6H424.5z M423.6,284.2
				c0-0.5-0.1-0.8-0.4-1.1c-0.2-0.3-0.6-0.4-1.1-0.4s-0.9,0.1-1.2,0.4c-0.3,0.3-0.4,0.6-0.5,1.1H423.6z"/>
			<path d="M433.7,287.5h-0.9v-3.1c0-0.2,0-0.5,0-0.7s-0.1-0.4-0.1-0.5c-0.1-0.1-0.2-0.2-0.3-0.3c-0.1-0.1-0.3-0.1-0.6-0.1
				s-0.5,0.1-0.8,0.2s-0.5,0.3-0.8,0.5c0,0.1,0,0.2,0,0.3c0,0.1,0,0.2,0,0.3v3.4h-0.9v-3.1c0-0.2,0-0.5,0-0.7s-0.1-0.4-0.1-0.5
				c-0.1-0.1-0.2-0.2-0.3-0.3c-0.1-0.1-0.3-0.1-0.6-0.1c-0.2,0-0.5,0.1-0.7,0.2s-0.5,0.3-0.7,0.5v4H426v-5.4h0.9v0.6
				c0.3-0.2,0.6-0.4,0.8-0.5c0.3-0.1,0.6-0.2,0.9-0.2c0.4,0,0.7,0.1,0.9,0.2c0.3,0.2,0.4,0.4,0.6,0.6c0.4-0.3,0.7-0.5,1-0.7
				c0.3-0.1,0.6-0.2,1-0.2c0.6,0,1,0.2,1.3,0.5c0.3,0.4,0.4,0.9,0.4,1.5v3.6H433.7z"/>
		</g>
		<g id="text4741_1_" class="st4">
			<path d="M412.9,390.3h-1.2l-2.4-2.8H408v2.8h-1v-7.2h2c0.4,0,0.8,0,1.1,0.1c0.3,0.1,0.5,0.2,0.8,0.3c0.3,0.2,0.5,0.4,0.6,0.6
				s0.2,0.6,0.2,0.9c0,0.5-0.1,0.9-0.4,1.3c-0.3,0.3-0.6,0.6-1.1,0.8L412.9,390.3z M410.6,385.2c0-0.2,0-0.4-0.1-0.5
				c-0.1-0.2-0.2-0.3-0.4-0.4c-0.1-0.1-0.3-0.2-0.5-0.2s-0.4-0.1-0.7-0.1h-1.1v2.7h1c0.3,0,0.6,0,0.8-0.1c0.2-0.1,0.4-0.2,0.6-0.3
				c0.1-0.1,0.3-0.3,0.3-0.5C410.6,385.6,410.6,385.4,410.6,385.2z"/>
			<path d="M418.1,387.6c0,0.9-0.2,1.6-0.7,2.1c-0.4,0.5-1.1,0.8-1.8,0.8c-0.8,0-1.4-0.3-1.8-0.8s-0.7-1.2-0.7-2.1s0.2-1.6,0.7-2.1
				c0.4-0.5,1.1-0.8,1.8-0.8c0.8,0,1.4,0.3,1.8,0.8C417.8,386.1,418.1,386.7,418.1,387.6z M417.1,387.6c0-0.7-0.1-1.2-0.4-1.6
				c-0.3-0.3-0.7-0.5-1.1-0.5c-0.5,0-0.9,0.2-1.1,0.5c-0.3,0.3-0.4,0.9-0.4,1.6s0.1,1.2,0.4,1.5s0.7,0.5,1.1,0.5
				c0.5,0,0.9-0.2,1.1-0.5C417,388.8,417.1,388.3,417.1,387.6z"/>
			<path d="M424,387.6c0,0.9-0.2,1.6-0.7,2.1c-0.4,0.5-1.1,0.8-1.8,0.8c-0.8,0-1.4-0.3-1.8-0.8s-0.7-1.2-0.7-2.1s0.2-1.6,0.7-2.1
				c0.4-0.5,1.1-0.8,1.8-0.8c0.8,0,1.4,0.3,1.8,0.8C423.8,386.1,424,386.7,424,387.6z M423.1,387.6c0-0.7-0.1-1.2-0.4-1.6
				c-0.3-0.3-0.7-0.5-1.1-0.5c-0.5,0-0.9,0.2-1.1,0.5c-0.3,0.3-0.4,0.9-0.4,1.6s0.1,1.2,0.4,1.5s0.7,0.5,1.1,0.5
				c0.5,0,0.9-0.2,1.1-0.5C423,388.8,423.1,388.3,423.1,387.6z"/>
			<path d="M428.2,390.3c-0.2,0-0.4,0.1-0.6,0.1c-0.2,0-0.4,0-0.5,0c-0.5,0-1-0.1-1.3-0.4s-0.4-0.8-0.4-1.4v-2.9h-0.6v-0.8h0.6v-1.5
				h0.9v1.5h1.9v0.8h-1.9v2.4c0,0.3,0,0.5,0,0.7s0.1,0.3,0.1,0.4c0.1,0.1,0.2,0.2,0.3,0.3s0.3,0.1,0.6,0.1c0.1,0,0.3,0,0.5-0.1
				c0.2,0,0.3-0.1,0.3-0.1l0,0v0.9H428.2z"/>
			<path d="M433.2,388.8c0,0.5-0.2,0.9-0.6,1.2c-0.4,0.3-1,0.5-1.7,0.5c-0.4,0-0.8,0-1.1-0.1s-0.6-0.2-0.8-0.3v-1l0,0
				c0.3,0.2,0.6,0.4,1,0.5c0.3,0.1,0.7,0.2,1,0.2c0.4,0,0.7-0.1,0.9-0.2s0.3-0.3,0.3-0.6c0-0.2-0.1-0.4-0.2-0.5
				c-0.1-0.1-0.4-0.2-0.7-0.3c-0.1,0-0.3-0.1-0.5-0.1s-0.4-0.1-0.6-0.1c-0.5-0.1-0.8-0.3-1-0.6c-0.2-0.2-0.3-0.5-0.3-0.9
				c0-0.2,0-0.4,0.1-0.6s0.2-0.4,0.4-0.5c0.2-0.2,0.4-0.3,0.7-0.4s0.6-0.1,0.9-0.1c0.3,0,0.6,0,1,0.1c0.3,0.1,0.6,0.2,0.8,0.3v1l0,0
				c-0.2-0.2-0.5-0.3-0.8-0.4s-0.7-0.2-1-0.2s-0.6,0.1-0.8,0.2s-0.3,0.3-0.3,0.6c0,0.2,0.1,0.4,0.2,0.5c0.1,0.1,0.4,0.2,0.7,0.3
				c0.2,0,0.4,0.1,0.6,0.1c0.2,0,0.4,0.1,0.5,0.1c0.4,0.1,0.7,0.3,1,0.5C433.1,388.1,433.2,388.4,433.2,388.8z"/>
		</g>
		<g id="text4743_1_" class="st4">
			<path d="M246.3,143.2h-3.6v2h3.1v0.8h-3.1v3.5h-1v-7.2h4.6V143.2z"/>
			<path d="M248.2,149.6h-0.9v-7.5h0.9V149.6z"/>
			<path d="M254.6,146.9c0,0.9-0.2,1.6-0.7,2.1c-0.4,0.5-1.1,0.8-1.8,0.8c-0.8,0-1.4-0.3-1.8-0.8s-0.7-1.2-0.7-2.1s0.2-1.6,0.7-2.1
				c0.4-0.5,1.1-0.8,1.8-0.8c0.8,0,1.4,0.3,1.8,0.8C254.4,145.3,254.6,146,254.6,146.9z M253.7,146.9c0-0.7-0.1-1.2-0.4-1.6
				c-0.3-0.3-0.7-0.5-1.1-0.5c-0.5,0-0.9,0.2-1.1,0.5c-0.3,0.3-0.4,0.9-0.4,1.6c0,0.7,0.1,1.2,0.4,1.5s0.7,0.5,1.1,0.5
				c0.5,0,0.9-0.2,1.1-0.5S253.7,147.6,253.7,146.9z"/>
			<path d="M262.7,144.2l-1.4,5.4h-0.8l-1.4-4.1l-1.4,4.1h-0.8l-1.4-5.4h0.9l1,4.2l1.3-4.2h0.7l1.4,4.2l0.9-4.2H262.7z"/>
			<path d="M268.6,147h-4c0,0.3,0,0.6,0.1,0.9c0.1,0.2,0.2,0.4,0.4,0.6c0.2,0.2,0.4,0.3,0.6,0.3c0.2,0.1,0.5,0.1,0.8,0.1
				c0.4,0,0.7-0.1,1.1-0.2c0.4-0.1,0.6-0.3,0.8-0.4l0,0v1c-0.3,0.1-0.6,0.2-0.9,0.3s-0.7,0.1-1,0.1c-0.9,0-1.6-0.2-2.1-0.7
				s-0.8-1.2-0.8-2.1c0-0.9,0.2-1.6,0.7-2.1s1.1-0.8,1.9-0.8c0.7,0,1.3,0.2,1.7,0.6c0.4,0.4,0.6,1,0.6,1.8L268.6,147L268.6,147z
				 M267.7,146.3c0-0.5-0.1-0.8-0.4-1.1c-0.2-0.3-0.6-0.4-1.1-0.4s-0.9,0.1-1.2,0.4c-0.3,0.3-0.4,0.6-0.5,1.1H267.7z"/>
			<path d="M273.3,145.2L273.3,145.2c-0.2,0-0.3-0.1-0.4-0.1s-0.3,0-0.4,0c-0.3,0-0.5,0.1-0.8,0.2c-0.3,0.1-0.5,0.3-0.8,0.5v3.8H270
				v-5.4h0.9v0.8c0.4-0.3,0.7-0.5,1-0.6s0.6-0.2,0.8-0.2c0.2,0,0.3,0,0.3,0c0.1,0,0.2,0,0.3,0V145.2z"/>
			<path d="M278,148c0,0.5-0.2,0.9-0.6,1.2s-1,0.5-1.7,0.5c-0.4,0-0.8,0-1.1-0.1c-0.3-0.1-0.6-0.2-0.8-0.3v-1l0,0
				c0.3,0.2,0.6,0.4,1,0.5c0.3,0.1,0.7,0.2,1,0.2c0.4,0,0.7-0.1,0.9-0.2c0.2-0.1,0.3-0.3,0.3-0.6c0-0.2-0.1-0.4-0.2-0.5
				s-0.4-0.2-0.7-0.3c-0.1,0-0.3-0.1-0.5-0.1s-0.4-0.1-0.6-0.1c-0.5-0.1-0.8-0.3-1-0.6c-0.2-0.2-0.3-0.5-0.3-0.9
				c0-0.2,0-0.4,0.1-0.6c0.1-0.2,0.2-0.4,0.4-0.5c0.2-0.2,0.4-0.3,0.7-0.4c0.3-0.1,0.6-0.1,0.9-0.1s0.6,0,1,0.1
				c0.3,0.1,0.6,0.2,0.8,0.3v1l0,0c-0.2-0.2-0.5-0.3-0.8-0.4c-0.3-0.1-0.7-0.2-1-0.2s-0.6,0.1-0.8,0.2c-0.2,0.1-0.3,0.3-0.3,0.6
				c0,0.2,0.1,0.4,0.2,0.5s0.4,0.2,0.7,0.3c0.2,0,0.4,0.1,0.6,0.1s0.4,0.1,0.5,0.1c0.4,0.1,0.7,0.3,1,0.5
				C277.9,147.3,278,147.6,278,148z"/>
		</g>
		<g id="text4745_1_" class="st4">
			<path d="M411.8,186.3h-1v-6.2l-2,4.2h-0.6l-2-4.2v6.2h-0.9v-7.2h1.3l1.9,4l1.8-4h1.3v7.2H411.8z"/>
			<path d="M417.9,186.3H417v-0.6c-0.1,0.1-0.2,0.1-0.3,0.2c-0.1,0.1-0.3,0.2-0.4,0.2c-0.2,0.1-0.3,0.1-0.5,0.2
				c-0.2,0-0.4,0.1-0.7,0.1c-0.5,0-0.9-0.2-1.2-0.5c-0.3-0.3-0.5-0.7-0.5-1.2c0-0.4,0.1-0.7,0.3-1c0.2-0.3,0.4-0.4,0.7-0.6
				c0.3-0.1,0.7-0.2,1.2-0.3s1-0.1,1.5-0.1v-0.1c0-0.2,0-0.4-0.1-0.5s-0.2-0.2-0.3-0.3c-0.1-0.1-0.3-0.1-0.5-0.1s-0.4,0-0.6,0
				s-0.5,0-0.8,0.1s-0.6,0.2-0.9,0.3l0,0v-0.9c0.2,0,0.4-0.1,0.8-0.2c0.3-0.1,0.7-0.1,1-0.1c0.4,0,0.7,0,1,0.1s0.5,0.2,0.7,0.3
				s0.4,0.3,0.5,0.6c0.1,0.2,0.2,0.5,0.2,0.9v3.5H417.9z M417,185v-1.5c-0.3,0-0.6,0-1,0.1c-0.4,0-0.7,0.1-0.9,0.1
				c-0.3,0.1-0.5,0.2-0.6,0.3c-0.2,0.2-0.2,0.4-0.2,0.6c0,0.3,0.1,0.5,0.3,0.7c0.2,0.2,0.5,0.2,0.9,0.2c0.3,0,0.6-0.1,0.9-0.2
				C416.5,185.3,416.7,185.2,417,185z"/>
			<path d="M422.4,186.3c-0.2,0-0.4,0.1-0.6,0.1c-0.2,0-0.4,0-0.5,0c-0.5,0-1-0.1-1.3-0.4c-0.3-0.3-0.4-0.8-0.4-1.4v-2.9H419v-0.8
				h0.6v-1.5h0.9v1.5h1.9v0.8h-1.9v2.4c0,0.3,0,0.5,0,0.7s0.1,0.3,0.1,0.4c0.1,0.1,0.2,0.2,0.3,0.3c0.1,0.1,0.3,0.1,0.6,0.1
				c0.1,0,0.3,0,0.5-0.1c0.2,0,0.3-0.1,0.3-0.1l0,0v0.9H422.4z"/>
			<path d="M427.9,186.3H427v-0.6c-0.3,0.2-0.6,0.4-0.9,0.6c-0.3,0.1-0.6,0.2-0.9,0.2c-0.6,0-1-0.2-1.3-0.5s-0.5-0.9-0.5-1.5V181
				h0.9v3.1c0,0.3,0,0.5,0,0.7s0.1,0.4,0.2,0.5c0.1,0.1,0.2,0.2,0.3,0.3s0.3,0.1,0.6,0.1c0.2,0,0.5-0.1,0.8-0.2
				c0.3-0.1,0.5-0.3,0.8-0.5v-4h0.9L427.9,186.3L427.9,186.3z"/>
			<path d="M433.1,181.9L433.1,181.9c-0.2,0-0.3-0.1-0.4-0.1c-0.1,0-0.3,0-0.4,0c-0.3,0-0.5,0.1-0.8,0.2c-0.3,0.1-0.5,0.3-0.8,0.5
				v3.8h-0.9v-5.4h0.9v0.8c0.4-0.3,0.7-0.5,1-0.6s0.6-0.2,0.8-0.2s0.3,0,0.3,0c0.1,0,0.2,0,0.3,0L433.1,181.9L433.1,181.9z"/>
			<path d="M438.4,183.7h-4c0,0.3,0,0.6,0.1,0.9c0.1,0.2,0.2,0.4,0.4,0.6c0.2,0.2,0.4,0.3,0.6,0.3c0.2,0.1,0.5,0.1,0.8,0.1
				c0.4,0,0.7-0.1,1.1-0.2c0.4-0.1,0.6-0.3,0.8-0.4l0,0v1c-0.3,0.1-0.6,0.2-0.9,0.3c-0.3,0.1-0.7,0.1-1,0.1c-0.9,0-1.6-0.2-2.1-0.7
				s-0.8-1.2-0.8-2.1c0-0.9,0.2-1.6,0.7-2.1s1.1-0.8,1.9-0.8c0.7,0,1.3,0.2,1.7,0.6c0.4,0.4,0.6,1,0.6,1.8v0.6H438.4z M437.5,183
				c0-0.5-0.1-0.8-0.4-1.1c-0.2-0.3-0.6-0.4-1.1-0.4s-0.9,0.1-1.2,0.4c-0.3,0.3-0.5,0.6-0.5,1.1H437.5z"/>
			<path d="M447.9,186.3h-4.5v-7.2h1v6.3h3.6L447.9,186.3L447.9,186.3z"/>
			<path d="M453.2,183.7h-4c0,0.3,0,0.6,0.1,0.9c0.1,0.2,0.2,0.4,0.4,0.6c0.2,0.2,0.4,0.3,0.6,0.3c0.2,0.1,0.5,0.1,0.8,0.1
				c0.4,0,0.7-0.1,1.1-0.2c0.4-0.1,0.6-0.3,0.8-0.4l0,0v1c-0.3,0.1-0.6,0.2-0.9,0.3c-0.3,0.1-0.7,0.1-1,0.1c-0.9,0-1.6-0.2-2.1-0.7
				s-0.8-1.2-0.8-2.1c0-0.9,0.2-1.6,0.7-2.1s1.1-0.8,1.9-0.8c0.7,0,1.3,0.2,1.7,0.6c0.4,0.4,0.6,1,0.6,1.8v0.6H453.2z M452.4,183
				c0-0.5-0.1-0.8-0.4-1.1c-0.2-0.3-0.6-0.4-1.1-0.4s-0.9,0.1-1.2,0.4c-0.3,0.3-0.5,0.6-0.5,1.1H452.4z"/>
			<path d="M458.8,186.3h-0.9v-0.6c-0.1,0.1-0.2,0.1-0.3,0.2c-0.1,0.1-0.3,0.2-0.4,0.2c-0.2,0.1-0.3,0.1-0.5,0.2
				c-0.2,0-0.4,0.1-0.7,0.1c-0.5,0-0.9-0.2-1.2-0.5s-0.5-0.7-0.5-1.2c0-0.4,0.1-0.7,0.3-1s0.4-0.4,0.7-0.6c0.3-0.1,0.7-0.2,1.2-0.3
				s1-0.1,1.5-0.1v-0.1c0-0.2,0-0.4-0.1-0.5s-0.2-0.2-0.3-0.3s-0.3-0.1-0.5-0.1s-0.4,0-0.6,0c-0.2,0-0.5,0-0.8,0.1s-0.6,0.2-0.9,0.3
				l0,0v-0.9c0.2,0,0.4-0.1,0.8-0.2c0.3-0.1,0.7-0.1,1-0.1c0.4,0,0.7,0,1,0.1s0.5,0.2,0.7,0.3s0.4,0.3,0.5,0.6
				c0.1,0.2,0.2,0.5,0.2,0.9v3.5H458.8z M457.9,185v-1.5c-0.3,0-0.6,0-1,0.1c-0.4,0-0.7,0.1-0.9,0.1c-0.3,0.1-0.5,0.2-0.6,0.3
				c-0.2,0.2-0.2,0.4-0.2,0.6c0,0.3,0.1,0.5,0.3,0.7s0.5,0.2,0.9,0.2c0.3,0,0.6-0.1,0.9-0.2C457.4,185.3,457.7,185.2,457.9,185z"/>
			<path d="M465.1,181l-2.2,5.4H462l-2.2-5.4h1l1.7,4.3l1.7-4.3H465.1z"/>
			<path d="M470.7,183.7h-4c0,0.3,0,0.6,0.1,0.9c0.1,0.2,0.2,0.4,0.4,0.6c0.2,0.2,0.4,0.3,0.6,0.3c0.2,0.1,0.5,0.1,0.8,0.1
				c0.4,0,0.7-0.1,1.1-0.2c0.4-0.1,0.6-0.3,0.8-0.4l0,0v1c-0.3,0.1-0.6,0.2-0.9,0.3c-0.3,0.1-0.7,0.1-1,0.1c-0.9,0-1.6-0.2-2.1-0.7
				s-0.8-1.2-0.8-2.1c0-0.9,0.2-1.6,0.7-2.1s1.1-0.8,1.9-0.8c0.7,0,1.3,0.2,1.7,0.6c0.4,0.4,0.6,1,0.6,1.8v0.6H470.7z M469.8,183
				c0-0.5-0.1-0.8-0.4-1.1c-0.2-0.3-0.6-0.4-1.1-0.4s-0.9,0.1-1.2,0.4c-0.3,0.3-0.4,0.6-0.5,1.1H469.8z"/>
			<path d="M475.9,184.8c0,0.5-0.2,0.9-0.6,1.2c-0.4,0.3-1,0.5-1.7,0.5c-0.4,0-0.8,0-1.1-0.1s-0.6-0.2-0.8-0.3v-1l0,0
				c0.3,0.2,0.6,0.4,1,0.5c0.3,0.1,0.7,0.2,1,0.2c0.4,0,0.7-0.1,0.9-0.2c0.2-0.1,0.3-0.3,0.3-0.6c0-0.2-0.1-0.4-0.2-0.5
				c-0.1-0.1-0.4-0.2-0.7-0.3c-0.1,0-0.3-0.1-0.5-0.1s-0.4-0.1-0.6-0.1c-0.5-0.1-0.8-0.3-1-0.6c-0.2-0.2-0.3-0.5-0.3-0.9
				c0-0.2,0-0.4,0.1-0.6c0.1-0.2,0.2-0.4,0.4-0.5c0.2-0.2,0.4-0.3,0.7-0.4c0.3-0.1,0.6-0.1,0.9-0.1c0.3,0,0.6,0,1,0.1
				c0.3,0.1,0.6,0.2,0.8,0.3v1l0,0c-0.2-0.2-0.5-0.3-0.8-0.4c-0.3-0.1-0.7-0.2-1-0.2s-0.6,0.1-0.8,0.2c-0.2,0.1-0.3,0.3-0.3,0.6
				c0,0.2,0.1,0.4,0.2,0.5c0.1,0.1,0.4,0.2,0.7,0.3c0.2,0,0.4,0.1,0.6,0.1c0.2,0,0.4,0.1,0.5,0.1c0.4,0.1,0.7,0.3,1,0.5
				C475.8,184.1,475.9,184.4,475.9,184.8z"/>
		</g>
		<g id="text4747_1_" class="st4">
			<path d="M392.4,72.7c0,0.3-0.1,0.6-0.2,0.8c-0.1,0.3-0.3,0.5-0.5,0.7c-0.3,0.2-0.6,0.4-0.9,0.5s-0.8,0.2-1.2,0.2
				c-0.5,0-1,0-1.4-0.1s-0.8-0.2-1.3-0.4v-1.2h0.1c0.4,0.3,0.8,0.5,1.3,0.7s0.9,0.2,1.3,0.2c0.6,0,1-0.1,1.4-0.3
				c0.3-0.2,0.5-0.5,0.5-0.9c0-0.3-0.1-0.6-0.2-0.7c-0.2-0.2-0.4-0.3-0.7-0.4c-0.2-0.1-0.5-0.1-0.8-0.2c-0.3,0-0.6-0.1-0.9-0.2
				c-0.6-0.1-1.1-0.4-1.4-0.7c-0.3-0.3-0.5-0.7-0.5-1.3c0-0.6,0.3-1.1,0.8-1.5s1.2-0.6,1.9-0.6c0.5,0,1,0,1.4,0.1s0.8,0.2,1.1,0.4
				v1.1h-0.1c-0.3-0.2-0.6-0.4-1.1-0.6c-0.4-0.2-0.9-0.2-1.4-0.2s-0.9,0.1-1.2,0.3c-0.3,0.2-0.5,0.5-0.5,0.8s0.1,0.5,0.2,0.7
				c0.2,0.2,0.4,0.3,0.8,0.4c0.2,0,0.5,0.1,0.9,0.2s0.7,0.1,1,0.2c0.5,0.1,0.9,0.4,1.2,0.6C392.3,71.8,392.4,72.2,392.4,72.7z"/>
			<path d="M398.4,74.7h-0.9v-3c0-0.2,0-0.5,0-0.7s-0.1-0.4-0.2-0.5s-0.2-0.2-0.3-0.3c-0.2-0.1-0.3-0.1-0.6-0.1
				c-0.2,0-0.5,0.1-0.8,0.2s-0.5,0.3-0.8,0.5v4h-0.9v-7.5h0.9V70c0.3-0.2,0.6-0.4,0.9-0.5s0.6-0.2,0.9-0.2c0.6,0,1,0.2,1.3,0.5
				c0.3,0.4,0.5,0.9,0.5,1.5V74.7z"/>
			<path d="M404.7,72c0,0.9-0.2,1.6-0.7,2.1c-0.4,0.5-1.1,0.8-1.8,0.8c-0.8,0-1.4-0.3-1.8-0.8s-0.7-1.2-0.7-2.1s0.2-1.6,0.7-2.1
				c0.4-0.5,1.1-0.8,1.8-0.8c0.8,0,1.4,0.3,1.8,0.8C404.5,70.5,404.7,71.2,404.7,72z M403.7,72c0-0.7-0.1-1.2-0.4-1.6
				c-0.3-0.3-0.7-0.5-1.1-0.5c-0.5,0-0.9,0.2-1.1,0.5s-0.4,0.9-0.4,1.6s0.1,1.2,0.4,1.5s0.7,0.5,1.1,0.5c0.5,0,0.9-0.2,1.1-0.5
				S403.7,72.7,403.7,72z"/>
			<path d="M410.7,72c0,0.9-0.2,1.6-0.7,2.1c-0.4,0.5-1.1,0.8-1.8,0.8c-0.8,0-1.4-0.3-1.8-0.8s-0.7-1.2-0.7-2.1s0.2-1.6,0.7-2.1
				c0.4-0.5,1.1-0.8,1.8-0.8c0.8,0,1.4,0.3,1.8,0.8C410.4,70.5,410.7,71.2,410.7,72z M409.7,72c0-0.7-0.1-1.2-0.4-1.6
				c-0.3-0.3-0.7-0.5-1.1-0.5c-0.5,0-0.9,0.2-1.1,0.5c-0.3,0.3-0.4,0.9-0.4,1.6s0.1,1.2,0.4,1.5s0.7,0.5,1.1,0.5
				c0.5,0,0.9-0.2,1.1-0.5S409.7,72.7,409.7,72z"/>
			<path d="M414.9,74.7c-0.2,0-0.4,0.1-0.6,0.1s-0.4,0-0.5,0c-0.5,0-1-0.1-1.3-0.4s-0.4-0.8-0.4-1.4v-2.9h-0.6v-0.8h0.6v-1.5h0.9
				v1.5h1.9v0.8H413v2.4c0,0.3,0,0.5,0,0.7s0.1,0.3,0.1,0.4c0.1,0.1,0.2,0.2,0.3,0.3c0.1,0.1,0.3,0.1,0.6,0.1c0.1,0,0.3,0,0.5-0.1
				c0.2,0,0.3-0.1,0.3-0.1l0,0v0.9H414.9z"/>
			<path d="M422.2,74.7c-0.2,0-0.4,0.1-0.6,0.1s-0.4,0-0.5,0c-0.5,0-1-0.1-1.3-0.4s-0.4-0.8-0.4-1.4v-2.9h-0.6v-0.8h0.6v-1.5h0.9
				v1.5h1.9v0.8h-1.9v2.4c0,0.3,0,0.5,0,0.7s0.1,0.3,0.1,0.4c0.1,0.1,0.2,0.2,0.3,0.3c0.1,0.1,0.3,0.1,0.6,0.1c0.1,0,0.3,0,0.5-0.1
				c0.2,0,0.3-0.1,0.3-0.1l0,0L422.2,74.7L422.2,74.7z"/>
			<path d="M424.3,68.5h-1v-0.9h1V68.5z M424.2,74.7h-0.9v-5.4h0.9V74.7z"/>
			<path d="M430.7,72c0,0.4-0.1,0.8-0.2,1.2c-0.1,0.4-0.3,0.7-0.5,0.9c-0.2,0.2-0.5,0.4-0.7,0.6c-0.3,0.1-0.6,0.2-0.9,0.2
				c-0.3,0-0.5,0-0.8-0.1c-0.2-0.1-0.5-0.2-0.7-0.3v2.3H426v-7.4h0.9V70c0.2-0.2,0.5-0.4,0.8-0.5s0.6-0.2,1-0.2
				c0.6,0,1.2,0.2,1.5,0.7S430.7,71.1,430.7,72z M429.8,72c0-0.6-0.1-1.1-0.3-1.5c-0.2-0.3-0.6-0.5-1-0.5c-0.3,0-0.5,0.1-0.8,0.2
				s-0.5,0.3-0.8,0.4v3c0.3,0.1,0.5,0.2,0.7,0.2s0.4,0.1,0.6,0.1c0.5,0,0.9-0.2,1.2-0.5C429.7,73.2,429.8,72.7,429.8,72z"/>
			<path d="M436,73.2c0,0.5-0.2,0.9-0.6,1.2c-0.4,0.3-1,0.5-1.7,0.5c-0.4,0-0.8,0-1.1-0.1s-0.6-0.2-0.8-0.3v-1l0,0
				c0.3,0.2,0.6,0.4,1,0.5c0.3,0.1,0.7,0.2,1,0.2c0.4,0,0.7-0.1,0.9-0.2s0.3-0.3,0.3-0.6c0-0.2-0.1-0.4-0.2-0.5
				c-0.1-0.1-0.4-0.2-0.7-0.3c-0.1,0-0.3-0.1-0.5-0.1s-0.4-0.1-0.6-0.1c-0.5-0.1-0.8-0.3-1-0.6c-0.2-0.2-0.3-0.5-0.3-0.9
				c0-0.2,0-0.4,0.1-0.6s0.2-0.4,0.4-0.5c0.2-0.2,0.4-0.3,0.7-0.4s0.6-0.1,0.9-0.1c0.3,0,0.6,0,1,0.1c0.3,0.1,0.6,0.2,0.8,0.3v1l0,0
				c-0.2-0.2-0.5-0.3-0.8-0.4s-0.7-0.2-1-0.2s-0.6,0.1-0.8,0.2s-0.3,0.3-0.3,0.6c0,0.2,0.1,0.4,0.2,0.5c0.1,0.1,0.4,0.2,0.7,0.3
				c0.2,0,0.4,0.1,0.6,0.1c0.2,0,0.4,0.1,0.5,0.1c0.4,0.1,0.7,0.3,1,0.5C435.9,72.5,436,72.8,436,73.2z"/>
		</g>
		<g id="text4749_1_" class="st4">
			<path d="M410.5,107.3l-2.5,4v3.1h-1v-3l-2.5-4.1h1.1l2,3.2l2-3.2H410.5z"/>
			<path d="M415.4,111.7c0,0.9-0.2,1.6-0.7,2.1c-0.4,0.5-1.1,0.8-1.8,0.8c-0.8,0-1.4-0.3-1.8-0.8s-0.7-1.2-0.7-2.1s0.2-1.6,0.7-2.1
				c0.4-0.5,1.1-0.8,1.8-0.8c0.8,0,1.4,0.3,1.8,0.8C415.2,110.2,415.4,110.9,415.4,111.7z M414.5,111.7c0-0.7-0.1-1.2-0.4-1.6
				c-0.3-0.3-0.7-0.5-1.1-0.5c-0.5,0-0.9,0.2-1.1,0.5c-0.3,0.3-0.4,0.9-0.4,1.6c0,0.7,0.1,1.2,0.4,1.5s0.7,0.5,1.1,0.5
				c0.5,0,0.9-0.2,1.1-0.5S414.5,112.4,414.5,111.7z"/>
			<path d="M421.3,114.4h-0.9v-0.6c-0.3,0.2-0.6,0.4-0.9,0.6c-0.3,0.1-0.6,0.2-0.9,0.2c-0.6,0-1-0.2-1.3-0.5s-0.5-0.9-0.5-1.5v-3.5
				h0.9v3.1c0,0.3,0,0.5,0,0.7s0.1,0.4,0.2,0.5s0.2,0.2,0.3,0.3c0.1,0.1,0.3,0.1,0.6,0.1c0.2,0,0.5-0.1,0.8-0.2
				c0.3-0.1,0.5-0.3,0.8-0.5v-4h0.9V114.4z"/>
			<path d="M427.5,114.4h-0.9v-3.1c0-0.2,0-0.5,0-0.7s-0.1-0.4-0.2-0.5c-0.1-0.1-0.2-0.2-0.3-0.3c-0.2-0.1-0.3-0.1-0.6-0.1
				c-0.2,0-0.5,0.1-0.8,0.2c-0.3,0.1-0.5,0.3-0.8,0.5v4H423V109h0.9v0.6c0.3-0.2,0.6-0.4,0.9-0.5c0.3-0.1,0.6-0.2,0.9-0.2
				c0.6,0,1,0.2,1.3,0.5c0.3,0.4,0.5,0.9,0.5,1.5L427.5,114.4L427.5,114.4z"/>
			<path d="M433.6,113.8c0,0.9-0.2,1.6-0.6,2c-0.4,0.4-1.1,0.6-1.9,0.6c-0.3,0-0.6,0-0.8-0.1c-0.3,0-0.5-0.1-0.8-0.2v-0.9l0,0
				c0.1,0.1,0.4,0.1,0.7,0.2c0.3,0.1,0.6,0.1,1,0.1c0.3,0,0.6,0,0.8-0.1s0.4-0.2,0.5-0.3s0.2-0.3,0.2-0.5s0.1-0.4,0.1-0.6v-0.3
				c-0.3,0.2-0.5,0.4-0.8,0.5c-0.2,0.1-0.6,0.2-1,0.2c-0.6,0-1.2-0.2-1.5-0.7c-0.4-0.5-0.6-1.1-0.6-2c0-0.5,0.1-0.9,0.2-1.2
				c0.1-0.3,0.3-0.6,0.5-0.9c0.2-0.2,0.5-0.4,0.8-0.5s0.6-0.2,0.9-0.2c0.3,0,0.6,0,0.8,0.1s0.4,0.2,0.7,0.3l0.1-0.2h0.8v4.7H433.6z
				 M432.7,112.9V110c-0.2-0.1-0.5-0.2-0.7-0.2s-0.4-0.1-0.6-0.1c-0.5,0-0.9,0.2-1.2,0.5s-0.4,0.8-0.4,1.5c0,0.6,0.1,1.1,0.3,1.4
				c0.2,0.3,0.6,0.5,1.1,0.5c0.3,0,0.5-0.1,0.8-0.2C432.3,113.2,432.5,113.1,432.7,112.9z"/>
			<path d="M443.5,114.4H439v-7.2h1v6.3h3.6L443.5,114.4L443.5,114.4z"/>
			<path d="M448.9,111.8h-4c0,0.3,0,0.6,0.1,0.9c0.1,0.2,0.2,0.4,0.4,0.6c0.2,0.2,0.4,0.3,0.6,0.3c0.2,0.1,0.5,0.1,0.8,0.1
				c0.4,0,0.7-0.1,1.1-0.2c0.4-0.1,0.6-0.3,0.8-0.4l0,0v1c-0.3,0.1-0.6,0.2-0.9,0.3c-0.3,0.1-0.7,0.1-1,0.1c-0.9,0-1.6-0.2-2.1-0.7
				s-0.8-1.2-0.8-2.1c0-0.9,0.2-1.6,0.7-2.1s1.1-0.8,1.9-0.8c0.7,0,1.3,0.2,1.7,0.6c0.4,0.4,0.6,1,0.6,1.8v0.6H448.9z M448,111.1
				c0-0.5-0.1-0.8-0.4-1.1c-0.2-0.3-0.6-0.4-1.1-0.4s-0.9,0.1-1.2,0.4c-0.3,0.3-0.4,0.6-0.5,1.1H448z"/>
			<path d="M454.4,114.4h-0.9v-0.6c-0.1,0.1-0.2,0.1-0.3,0.2c-0.1,0.1-0.3,0.2-0.4,0.2c-0.2,0.1-0.3,0.1-0.5,0.2
				c-0.2,0-0.4,0.1-0.7,0.1c-0.5,0-0.9-0.2-1.2-0.5s-0.5-0.7-0.5-1.2c0-0.4,0.1-0.7,0.3-1s0.4-0.4,0.7-0.6c0.3-0.1,0.7-0.2,1.2-0.3
				s1-0.1,1.5-0.1v-0.1c0-0.2,0-0.4-0.1-0.5s-0.2-0.2-0.3-0.3s-0.3-0.1-0.5-0.1s-0.4,0-0.6,0c-0.2,0-0.5,0-0.8,0.1s-0.6,0.2-0.9,0.3
				l0,0v-0.9c0.2,0,0.4-0.1,0.8-0.2c0.3-0.1,0.7-0.1,1-0.1c0.4,0,0.7,0,1,0.1s0.5,0.2,0.7,0.3s0.4,0.3,0.5,0.6
				c0.1,0.2,0.2,0.5,0.2,0.9v3.5H454.4z M453.5,113.1v-1.5c-0.3,0-0.6,0-1,0.1c-0.4,0-0.7,0.1-0.9,0.1c-0.3,0.1-0.5,0.2-0.6,0.3
				c-0.2,0.2-0.2,0.4-0.2,0.6c0,0.3,0.1,0.5,0.3,0.7s0.5,0.2,0.9,0.2c0.3,0,0.6-0.1,0.9-0.2C453,113.4,453.3,113.3,453.5,113.1z"/>
			<path d="M460.7,109l-2.2,5.4h-0.9l-2.2-5.4h1l1.7,4.3l1.7-4.3H460.7z"/>
			<path d="M466.3,111.8h-4c0,0.3,0,0.6,0.1,0.9c0.1,0.2,0.2,0.4,0.4,0.6c0.2,0.2,0.4,0.3,0.6,0.3c0.2,0.1,0.5,0.1,0.8,0.1
				c0.4,0,0.7-0.1,1.1-0.2c0.4-0.1,0.6-0.3,0.8-0.4l0,0v1c-0.3,0.1-0.6,0.2-0.9,0.3c-0.3,0.1-0.7,0.1-1,0.1c-0.9,0-1.6-0.2-2.1-0.7
				s-0.8-1.2-0.8-2.1c0-0.9,0.2-1.6,0.7-2.1s1.1-0.8,1.9-0.8c0.7,0,1.3,0.2,1.7,0.6c0.4,0.4,0.6,1,0.6,1.8v0.6H466.3z M465.4,111.1
				c0-0.5-0.1-0.8-0.4-1.1c-0.2-0.3-0.6-0.4-1.1-0.4s-0.9,0.1-1.2,0.4c-0.3,0.3-0.5,0.6-0.5,1.1H465.4z"/>
			<path d="M471.5,112.9c0,0.5-0.2,0.9-0.6,1.2c-0.4,0.3-1,0.5-1.7,0.5c-0.4,0-0.8,0-1.1-0.1s-0.6-0.2-0.8-0.3v-1l0,0
				c0.3,0.2,0.6,0.4,1,0.5c0.3,0.1,0.7,0.2,1,0.2c0.4,0,0.7-0.1,0.9-0.2c0.2-0.1,0.3-0.3,0.3-0.6c0-0.2-0.1-0.4-0.2-0.5
				c-0.1-0.1-0.4-0.2-0.7-0.3c-0.1,0-0.3-0.1-0.5-0.1s-0.4-0.1-0.6-0.1c-0.5-0.1-0.8-0.3-1-0.6c-0.2-0.2-0.3-0.5-0.3-0.9
				c0-0.2,0-0.4,0.1-0.6c0.1-0.2,0.2-0.4,0.4-0.5c0.2-0.2,0.4-0.3,0.7-0.4c0.3-0.1,0.6-0.1,0.9-0.1c0.3,0,0.6,0,1,0.1
				c0.3,0.1,0.6,0.2,0.8,0.3v1l0,0c-0.2-0.2-0.5-0.3-0.8-0.4c-0.3-0.1-0.7-0.2-1-0.2s-0.6,0.1-0.8,0.2c-0.2,0.1-0.3,0.3-0.3,0.6
				c0,0.2,0.1,0.4,0.2,0.5c0.1,0.1,0.4,0.2,0.7,0.3c0.2,0,0.4,0.1,0.6,0.1c0.2,0,0.4,0.1,0.5,0.1c0.4,0.1,0.7,0.3,1,0.5
				C471.4,112.2,471.5,112.5,471.5,112.9z"/>
		</g>
		<path id="exatlas_wood" inkscape:connector-curvature="0" class="st5" d="M358.1,331.5c0.4-3.7,0.1-7.3-0.1-10.9v-4.9
			c0-12.6,0.1-25.1-0.5-37.7c0-2.8,0-5.5-0.1-8.2c0-1.1-0.1-2.2-0.1-3.3c0-2,0-4,0-6c-0.1-5.8,0.1-11.7-0.1-17.5
			c0-0.2,0-0.5-0.1-0.8c-0.1-1-0.1-2-0.2-3.1c0-0.6-0.1-1.2-0.1-1.8c0.2-3.4,0.2-6.7-0.1-10.1l0,0c0-0.5,0-1.1,0-1.6
			c0.5-1.7,0.4-4.1,0.3-5.7c0.1-0.1,0.2-0.1,0.3-0.2c0-0.7,0-1.4-0.1-2.2c-0.1,0-0.1,0-0.1-0.1c0.2-3.8,0.6-7.9,0.2-11.6
			c0.3-0.4,0.6-0.7,1-1c0.1-0.8,0.1-1.6,0.1-2.5c-0.2,0.2-0.5,0.4-0.7,0.7c0-2.4-0.8-5.2-1-7.1c0-0.1,0-0.1,0-0.1
			c0.1-0.3,0.2-0.6,0.5-0.9c-0.3-0.3-0.4-0.8-0.4-1.3c0.1-1.7,0.3-3.3,0.7-4.9c-0.1,0.1-0.3,0.1-0.4,0.1c-0.6-1.5-0.2-3-0.4-4.4
			c0-0.8,0-1.6,0-2.3c0-2.1,0-4.2,0-6.3c0.1-0.1,0.1-0.3,0.1-0.5c0.1-0.2,0.1-0.4,0.2-0.7l0,0c-0.2-0.7-0.2-1.3,0-2
			c0.1-0.4,0.2-0.8,0.4-1.2c0.1-0.2,0.1-0.4,0.1-0.4c0-0.1,0-0.1,0-0.2c-0.3,0.2-0.6,0.5-0.8,0.7c0-2.5-0.1-5-0.3-7.5
			c0.1,0,0.2-0.1,0.4-0.1c0-0.4,0-0.7,0-1c-0.2-0.1-0.4-0.1-0.5-0.2c-0.1-1.6-0.4-3.2-0.7-4.8c0-0.1,0-0.4,0-0.5
			c-0.1-0.1-0.4-0.1-0.4-0.1c-0.8-0.3-1.6-0.4-2.5-0.5c-1.3-0.1-2.8-0.2-3.9-0.1c0.1,0,0.1,0.1,0.2,0.1c0.1,0.1,0.3,0.2,0.4,0.3
			c1.8,1.3,0.9,3.2,1.3,4.8c0,0.3,0,0.5,0,0.8c-0.4,0-0.9-0.1-1.3-0.1c-0.4-0.2-0.7-0.4-1-0.7c-0.1,0.5-0.2,1-0.5,1.4
			c1,0.5,1.9,1,2.8,1.6c-0.1,2-0.1,4-0.2,6.1c0,0.7,0,1.4-0.4,1.8v0.1c0,0.5,0,1.1,0,1.7c0.1,0.1,0.1,0.4,0.1,0.6
			c0.1,1.6,0,3.3,0,4.9c0,0.7-0.4,0.7-0.7,0.7c0,0.1-0.1,0.1-0.1,0.3c-0.4-0.5-0.9-1.1-1.4-1.6c-0.1,0.2-0.1,0.4-0.2,0.7
			c0.1,0.7,0,1.4-0.3,2.1c0.4,0.1,0.7,0.1,1.1,0.2c0,0.1,0,0.1,0,0.2c0.1,0,0.2,0,0.3,0c0.1,0.1,0.1,0.1,0.2,0.2
			c0.2,0.2,0.6,0.4,1,0.7c0.1,0.7,0.1,1.6,0.1,3c-0.1,3.9,0.3,7.8-0.6,11.7h-1.2c0,1-0.1,1.9-0.2,2.8c0.1,1.3,0.4,2.5,0.5,3.7
			c0.1,0.1,0.1,0.4,0.2,0.5c-0.3-0.1-0.7-0.3-1-0.4c-0.5-0.3-0.9-0.7-1.3-1.1c-0.2,0.8-0.4,1.7-0.5,2.5c0.1,0,0.2-0.1,0.3-0.1
			c0.1,0.1,0.4,0.2,0.6,0.3c0.6,0.4,1.1,0.9,1.6,1.4c-0.1,1.6-0.1,3.2,0,4.9c0.1,3-0.4,5.8-0.8,8.7c-0.3,2.7-0.1,5.3-0.4,8
			c-0.3,2.8-0.7,5.4-0.3,8.1c0.1,0.2,0.1,0.4,0.3,0.6c-1.1,2.8,0.6,6.9,0.5,9.7c-0.1,5.7-1.5,11.8-0.1,17.4v0.1
			c-1.5,5.2,0.7,11-0.3,16.2c-1,5.4-1.6,11.2-0.8,16.7c0.1,0.3,0.2,0.5,0.4,0.7c-0.1,0.4-0.1,0.7-0.1,1.2c-0.2,2.5-0.1,5.2-0.1,7.7
			c0,5.1-0.2,10.2-0.3,15.3c0,0.2,0.1,0.4,0.1,0.5c-1.2,4.1-0.7,9.3-0.7,13.5c-0.1,4.6-0.2,9.3,0.7,13.9c0.1,0.6,0.7,0.7,1.1,0.6
			c0.7,0.5,2.2,0.5,4.9,0.6c1,0,2,0,3.1,0c1.4,0,2.3-0.6,2.3-1.9C358.4,344,358.7,337.7,358.1,331.5L358.1,331.5z"/>
		<path id="path4753_1_" inkscape:connector-curvature="0" class="st6" d="M348,156c2,0.5,4,1.1,6,1.6c0.7,0.2,1.9,0.1,1.9-0.6"/>
		<path id="exatlas_matureleaf1" inkscape:connector-curvature="0" class="st7" d="M345.1,205.4c-1,0.2-2.1,0.7-3.3,1l0,0
			c-0.2,0.1-0.5,0.1-0.7,0.2l0,0c-0.6,0-1.1,0.1-1.6,0.4c-0.9,0.2-1.9,0.3-2.8,0.3c-1.2,0-2.2-0.4-3.1-0.8l0,0c1-1.3,2.4-1.5,4-0.9
			c0.1-0.1,0.1-0.1,0.2-0.1l0,0c0.1-0.3,0.3-0.5,0.4-0.8c0.2,0.4,0.6,0.7,1,0.8s0.9,0.2,1.3,0.1c0.4,0.2,0.8,0.3,1.3,0.2
			c0.8-0.1,1.6-0.7,2-1.3C344.3,204.9,344.7,205.1,345.1,205.4c0-1,0.3-1.9,0.9-2.5c-0.5-0.4-1.1-0.7-1.8-1
			c-0.1-0.3-0.3-0.6-0.5-0.9c0.1-0.3,0.2-0.5,0.3-0.8c0.3-0.4,0.3-0.9,0.2-1.3c0.4-0.4,0.4-1,0.3-1.6c-0.3-1.3-1.3-1.4-2.5-1.6
			c-0.6-0.4-1.1-1-1.5-1.7c0-0.5,0.1-0.9-0.4-1.4c-1-1.2-2.5-1-3.7-0.2c-0.2,0.1-0.4,0.4-0.4,0.6c-0.1,0.1-0.1,0.2-0.1,0.4
			c-1,0-1.9-0.1-2.9-0.2c-0.4-1.2-1.9-2.2-3.4-2.4c-0.1,0-0.1,0-0.1,0c-0.1-0.1-0.2-0.1-0.4-0.1c-1.6-0.5-3.2,0.6-3.4,1.9
			c-0.1,0-0.2,0-0.4,0c-0.1-1-1-2-2.1-2.7c-0.3-0.4-0.7-0.6-1.3-0.7c-0.6-0.1-1.1,0.3-1.3,0.8c-0.4,0.1-0.7,0.4-1,0.5
			c-1,0.4-2.2,1.6-0.7,2.8c-0.7,1.4-4.4,2.1-1.3,4.4c1.3,1.5,2.6,2.8,4.9,2.8c0.2,0.1,0.4,0.3,0.7,0.5c-0.6,1.6-2.2,1-3.4,1
			c-3.8,0.1-7.4-1-11.1-1.3c-4.8-0.4-7,1.9-5.1,5.8c0.4,0.8,0.1,1.3-0.3,1.9c-0.7,1-0.5,1.8,0.7,2.4c3.1,1,5.8,3.1,9.2,3.4
			c2.2,0.6,4.6,1,6.8,0.1c0.6-0.1,1.2-0.1,1.8-0.1c1.1,0.3,2.1-0.1,3.1-0.5c0.2-0.6,0.5-1.1,0.9-1.5c2.4,1.2,5.2,1.3,7.7,0.6
			s4-2.3,5.8-3.8c2.1-0.4,4.2-1.2,6.1-1.7C345.2,206.3,345.1,205.9,345.1,205.4L345.1,205.4z M335.9,210.3c-3.1,1.9-6.4,1.9-9.7,1
			c0.4-0.3,0.8-0.5,1.3-0.6c0.4,0,0.7,0,1,0s0.7,0.1,1,0.2c0.5,0.1,1.2,0.1,1.6-0.4c1.1-0.4,1.4-1.3,1.2-2.2c0-0.1,0-0.1,0-0.1
			c1.4,0.9,3.3,1,5.2,0.7C337,209.4,336.5,209.9,335.9,210.3L335.9,210.3z"/>
		<path id="exatlas_matureleaf2" inkscape:connector-curvature="0" class="st7" d="M381.2,163.1c0.1-1.7-0.7-2.6-2-3.1
			c-0.4-0.7-1.2-1-2.1-0.7c-0.1-0.1-0.2-0.1-0.4-0.1c-1.1-0.3-1.2,0.5-2.1,0.5c-0.2,0-0.5,0.1-0.7,0.3c-0.3-0.1-0.6-0.1-0.7-0.1
			c-0.3,0-0.5,0-0.7,0.1c-0.1-0.1-0.3-0.1-0.4-0.1c-0.6-1-1.8-1.1-2.8-0.4c-0.1,0-0.1-0.1-0.1-0.1c-3.5-2-6.1,0.1-7.6,3.1
			c-0.4,0.3-0.6,0.7-0.5,1.2c-0.1,0.1-0.1,0.2-0.1,0.3s0,0.3,0,0.4c-0.4,0.3-0.8,0.7-1,1.4c-0.1,0.7,0.4,1.2,1,1
			c0.1,0,0.1-0.1,0.2-0.1c-0.7,0.7-1,1.6-1.5,2.5c0.4,0.4,0.6,1,0.7,1.6c0.8-0.4,1.6-0.8,2.5-1.1l0,0c0.3-0.1,0.5-0.2,0.8-0.3
			c0.4,0.2,0.8,0.4,1.3,0.7c0.4,0.1,0.7,0.2,1,0.4c-0.7,0.1-1.3,0.3-2.1,0.3c-1.2,0.1-2.4,0.1-3.6,0.1c0.1,0.4,0.1,1,0,1.4
			c3.6-0.1,7.8-0.3,10.7-2c2.4,0.8,5.9,0.2,6.1-2.5l0,0c0.1-0.1,0.1-0.1,0.1-0.2c0.1,0,0.1,0,0.1,0c3.4,0.2,3.1-1.6,2.8-3.4
			C380.9,163.9,381.2,163.6,381.2,163.1L381.2,163.1z M360.9,168.9c0.4-0.7,0.9-1.4,1.6-2l0,0c-0.1,0.4,0,0.9,0.2,1.3
			C362.2,168.4,361.5,168.6,360.9,168.9z"/>
		<path id="exatlas_matureleaf3" inkscape:connector-curvature="0" class="st7" d="M324.1,170.7c-2.9,1.2-3.4,4.9-1,6.9
			c0.4,0.4,1,0.7,1,1.3c0.6,2.7,1.6,3.4,4.4,2.2c0.2,0.3,0.5,0.5,0.9,0.7c2.7,1.9,7.3,2.5,8.9-0.6c0.1,0,0.1,0.1,0.2,0.1
			c0.1,0.3,0.4,0.6,0.7,0.7c1,0.6,2,0.2,2.7-0.4c1,0.1,1.9,0.2,2.8,0.3c0.4,0,0.7,0.1,1,0.1c0-0.4,0.1-0.7,0.1-1
			c-0.7-0.1-1.5-0.2-2.2-0.4l0.1-0.1c0.4,0,0.9-0.1,1-0.7c0.1-0.1,0.1-0.3,0.1-0.4c0.4,0.2,0.8,0.4,1.2,0.7l0.1,0.1
			c0.2-0.4,0.6-0.9,1-1.3c-0.7-0.6-1.6-1.1-2.5-1.6c-0.3-1.6-1-3.4-2.2-4.2c-0.6-0.4-1.3-0.4-1.7-0.1c-0.1-0.1-0.2-0.2-0.4-0.3v-0.1
			c-0.1-0.3-0.1-0.6-0.2-0.8c-0.1-1-0.8-2-2.2-1.4c0.3-1.6,0.6-3.4-0.5-5.1c-1.1-1.7-2.3-2.2-4.2-1.9c-1.8,0.3-3.5,0.8-5.2,1.3
			c-2.3,0.5-3.7,1.6-2.6,3.9C325.8,169.8,325.3,170.3,324.1,170.7L324.1,170.7z"/>
		<path id="exatlas_matureleaf4" inkscape:connector-curvature="0" class="st7" d="M398,196.5c0.8-0.7,1.5-1.9,1.3-2.8
			c-0.1-0.7-0.6-1.1-1.1-1.2c-0.4-0.4-1-0.7-1.6-0.8c-0.1,0-0.1-0.1-0.1-0.1c-0.9-0.2-1.6,0.1-1.9,0.6c-0.3,0.1-0.5,0.4-0.6,0.7
			c-0.7-0.3-1.6-0.4-2.4,0c-0.4-1.8-2.1-2.5-4.5-2.6c-1.4-0.1-2.8,0-3.4-1.2c-0.1-0.3-0.1-0.5-0.3-0.7v-0.1
			c-0.1-0.3-0.3-0.6-0.6-0.7c-0.6-0.6-1.3-1-2.2-1.1c-0.7-0.1-1.5,0.1-2.2,0.4c-0.2-0.1-0.5-0.1-0.7-0.1c-0.7,0.3-1,0.8-1.2,1.4
			c-0.8,0.1-1.6,0.3-2.5,0.6c-1.3,0.4-2.6,0.6-3.8,0.4c-0.4-0.4-1.2-0.4-1.9-0.4l0,0l0,0c-0.4,0-0.8,0.1-1.1,0.2
			c-0.8,0.3-1.5,0.8-1.9,1.6c-0.1,0.1-0.1,0.4-0.2,0.5c-0.5,0.4-1,0.9-1,1.6c-0.1,0.4,0.1,0.8,0.2,1.2c-0.1,0.2-0.1,0.4-0.2,0.6
			c0.1,0.4,0.1,0.7,0.3,1c0.3,0.2,0.6,0.5,0.9,0.8c-0.4,0.4-0.7,0.8-0.9,1.3c-0.4,0.7-0.5,1.7-0.9,2.5c-1.8,0.6-3.4,1.5-4.7,2.7
			c-0.1,0.7,0,1.5,0.1,2.2c0.3-0.3,0.6-0.7,1-0.9c3.4-0.8,7.3-0.1,10.9-0.1c-0.4,1.7,1.3,3.4,3.2,3.5c0.7,0.4,1.6,0.6,2.4,0.2
			c2.6,1.8,6.1,2.6,9.2,2c0.7,0.7,1.6,1,2.6,0.8c1-0.1,1.7-0.7,2.3-1.5c0.1,0.2,0.4,0.4,0.5,0.6c0.4,0.5,1.3,0.3,1.5-0.2
			c0.3-0.4,0.5-1,0.8-1.4c1.2,0.4,2.6-0.2,2.9-1.7c0-0.1,0-0.1,0-0.3c1-0.1,1.9-0.5,2.2-1.6c0.4-0.2,0.7-0.5,1.1-0.9s0.3-1-0.1-1.4
			c1.6-1.2,1.4-2.5-0.5-4.9C398.5,197,398.2,196.8,398,196.5L398,196.5z M365.4,197.4c0.1-0.2,0.4-0.4,0.6-0.7
			c0.7,0.1,1.5,0.4,2.2,0.6c0.2,0.5,0.4,1,0.7,1.5c-1.6,0.2-3.1,0.5-4.6,0.9C364.6,198.9,364.9,198,365.4,197.4L365.4,197.4z
			 M360.6,203.2c2.3-1.6,5-2.5,8.4-2.8c0.1,0,0.3,0,0.4,0c0,0.7,0.4,1.4,0.9,1.9c0,0.1,0,0.1,0.1,0.1
			C367,202.4,363.7,202.3,360.6,203.2L360.6,203.2z M381,208.6c-1.4-0.3-2.6-0.9-3.9-1.5c0.7-0.7,1-1.5,1-2.2c1.1,0.3,2.2,0.7,3.4,1
			c0.5,1.2,1.4,2.1,2.7,2.2c0.1,0.2,0.1,0.5,0.2,0.7C383.3,208.9,382.1,208.9,381,208.6L381,208.6z"/>
		<path id="exatlas_matureleaf5" inkscape:connector-curvature="0" class="st7" d="M304.6,171.1c0.4,0.4,0.7,0.7,1.2,1
			c1.1,0.4,2.4,0.1,3.2-0.6h0.1c1-0.4,1.6-1.1,1.7-1.9c0.4-0.1,0.7-0.4,1-0.7c0.5-0.2,0.9-0.4,1.2-0.7c2.6,0.1,5.2-0.2,7.7-1.6
			c1.8-1,3.4-2.1,5.3-3c2.3-1.1,4.7-1.5,7.1-2.2c3.6,0.1,7.2,0.1,10.8-0.1c0.1,0.1,0.2,0.1,0.4,0.2c1,0.5,2.1,1,3.1,1.6
			c0.1-0.5,0.3-1,0.6-1.4c-0.5-0.3-1-0.6-1.6-0.9c0-0.1-0.1-0.4-0.4-0.4c-0.1,0-0.3,0-0.4-0.1c-2.8-1.6-5.5-3.2-8.4-4.5
			c-0.2-0.4-0.4-0.7-0.7-1.1c-0.4,0-0.7,0-1,0c-0.1-0.2-0.3-0.4-0.4-0.7c0.1-0.4-0.1-0.7-0.4-0.9c0.2-0.6,0.2-1.3-0.4-2.1
			c0,0,0,0-0.1-0.1c-0.3-0.6-0.8-1.2-1.6-1.5c-0.4-0.7-1.1-1.1-2-1.3c-0.1,0-0.3,0-0.4,0c-0.5-0.4-1.1-0.6-1.9-0.5
			c-0.3,0-0.5,0.1-0.7,0.1c-0.4-0.1-0.9-0.1-1.3,0c-0.1,0-0.2,0.1-0.4,0.1c-0.2-0.1-0.5-0.2-0.7-0.3c-0.1-0.4-0.3-0.8-0.5-1.2
			c-0.3-0.5-0.9-0.7-1.3-0.5c0,0-0.1,0-0.1-0.1c-0.3-1-1.1-1.5-2.2-1c-0.7-1.2-2.2-1.8-3.2-1c-0.8-0.1-1.6-0.1-2.2,0.1
			c-0.7,0.2-1.6,0.7-2.1,1.3c-0.5,0.1-1,0.2-1.4,0.5l0,0c0.1-1,0.1-1.9-0.9-2.8c-3.2-2.7-10.5-3.5-14.1-1.3
			c-1.1,0.7-1.9,0.5-2.8,0.2c-2.2-0.7-4.4-0.6-6.7-0.1c-1.6,0.3-2.7,0.6-2.2,2.4c0.1,0.4,0,0.7-0.2,0.9c-1.9-0.4-3.8-0.1-4.8,1.8
			c-0.4,0.9-0.9,2.5-0.4,3.4c0.2,0.5,0.7,0.9,1.3,1.2c-0.1,0.2-0.3,0.4-0.4,0.7c-1.4,2.4-3.1,4.9-1,7.8c0.1,0.1,0.1,0.3,0.1,0.5l0,0
			l0,0c-1,1-2.1,1.9-2.8,3.4c-1.3,2.4-0.2,3,2.2,3.2l0,0c0.3,0.2,0.6,0.2,0.9,0.3c0.1,0.1,0.3,0.1,0.4,0.2c-0.1,0.4-0.1,0.8,0.1,1.3
			s0.7,0.9,1.2,1.3c0.1,0.3,0.2,0.6,0.5,0.9c1.1,1,3.5,0.9,4.6,0.1c0.4-0.3,0.8-0.7,1-1.3c2.9,1,5.6,1.6,8.5-0.9
			c0.4,0.2,1,0.2,1.5-0.2c0.3-0.2,0.7-0.4,1-0.4c0.1,0.3,0.1,0.7,0.4,1c0.8,1.1,2.2,0.9,3,0.1c0,0.1,0.1,0.2,0.1,0.4
			C302.9,170.1,303.7,170.8,304.6,171.1L304.6,171.1z M325.9,156.6c0.5,0.6,1.2,1,1.9,1.3c1.6,0.7,2.9,0.7,4.2-0.5
			c0.1-0.1,0.3-0.3,0.4-0.5c0.4-0.1,0.7-0.1,1-0.2c0.6,0.1,1.3,0.3,1.9,0.5c2.1,0.7,4.1,1.7,6.1,2.8c-2.8-0.1-5.5-0.1-8.3-0.1l0,0
			c-2,0-4,0.1-6.1,0c-0.8-0.1-1.5-0.1-2.1-0.4c0.8-0.6,0.8-1.6-0.4-3C325.1,156.5,325.5,156.5,325.9,156.6z M322.8,160
			c1.1,0.7,2.5,1,3.9,1.1c-0.4,0.1-0.7,0.2-1,0.3c-0.1,0-0.1,0.1-0.1,0.1c-2.3,0.2-4.6,0.4-7,0.1C319.6,160.5,321,160.2,322.8,160
			L322.8,160z M313.2,162c4,1,8.5,1.9,12.3,0.7c-0.6,0.3-1.1,0.6-1.7,0.9c-2,1.1-3.9,2.5-6.1,3.2c-1.3,0.4-2.8,0.4-4.2,0.4
			c0.2-1-0.6-2.3-2.4-4.1C311.2,162.1,312.5,162.5,313.2,162L313.2,162z"/>
		<path id="exatlas_flowers" inkscape:connector-curvature="0" class="st8" d="M298.5,168.7c0.1-9.2,0.4-18.5,0.6-27.7
			c-0.7,0.2-1.4,0.4-2,0.8c-1.1,0.7-1.9,0.5-2.8,0.2c-2.2-0.7-4.4-0.6-6.7-0.1c-1.6,0.3-2.7,0.6-2.2,2.4c0.1,0.4,0,0.7-0.2,0.9
			c-1.9-0.4-3.8-0.1-4.8,1.8c-0.4,0.9-0.9,2.5-0.4,3.4c0.2,0.5,0.7,0.9,1.3,1.2c-0.1,0.2-0.3,0.4-0.4,0.7c-1.4,2.4-3.1,4.9-1,7.8
			c0.1,0.1,0.1,0.3,0.1,0.5l0,0l0,0c-1,1-2.1,1.9-2.8,3.4c-1.3,2.4-0.2,3,2.2,3.2l0,0c0.3,0.2,0.6,0.2,0.9,0.3
			c0.1,0.1,0.3,0.1,0.4,0.2c-0.1,0.4-0.1,0.8,0.1,1.3s0.7,0.9,1.2,1.3c0.1,0.3,0.2,0.6,0.5,0.9c1.1,1,3.5,0.9,4.6,0.1
			c0.4-0.3,0.8-0.7,1-1.3c2.9,1,5.6,1.6,8.5-0.9c0.4,0.2,1,0.2,1.5-0.2C298.3,168.8,298.4,168.8,298.5,168.7L298.5,168.7z"/>
		<path id="exatlas_roots" inkscape:connector-curvature="0" class="st9" d="M404.8,404.2c-1.9-2.6-4-5.4-4-8.7
			c0-1.1,0.2-2.2,0.1-3.2c-0.9-7.5-11.5-9.7-16-14c-0.7-0.7-6.8-12.3-7.8-11.5c1.9-1.5,4.5-1.9,6.8-1.5c2.4,0.4,4.6,1.6,6.5,2.8
			c-1.6-1.7-3.6-3.1-5.7-4.2c-0.7-0.4-1.4-0.7-2.2-0.7c-0.9-0.1-1.8,0-2.6,0.1c-8,0.9-14.4-1.9-19.7-7.9c-0.4-0.5-2.1-4-3.4-7.4
			c-3.1,0.2-6.2,0-9.4-0.8c-0.8,2.2-2.2,4.3-4.4,5.5c-1.4,0.7-3.1,1.1-4.3,2c-1.7,1.2-2.8,3.3-2.7,5.4c0-1.6,1.5-2.8,3-3.3
			s3.1-0.6,4.6-1.2c2-0.8,2.1-0.8,3.5-2.5c-0.2,4.9-1.7,9-6,11.6c-5.3,3.3-12.6,1.5-18.2,4.3c-5.7,2.8-8.7,9.9-14.8,11.5
			c-1.7,0.4-3.5,0.4-5.2,0.7c-5.7,0.9-9.2,4.9-11.4,10c-1.7,3.8-3.1,8.1-6.4,10.7c-2.3,1.9-5.2,2.7-7.7,4.4
			c-3.6,2.4-5.9,6.6-6.1,10.8c1.1-3.4,3.4-6.3,6.4-8.1c3.8-2.4,8.9-3.2,11.4-6.9c1-1.4,1.5-3.1,2-4.7c1-3.1,2.2-6.2,4.2-8.7
			c3.6-4.6,7.6-3.9,12.6-5.2c6.9-1.7,10.8-9.3,17.3-12.2c5.6-2.4,12.3-1.4,18.1-3c0,0.1-0.1,0.3-0.1,0.4c-1.3,6.4-8.7,7.4-13.9,9.4
			c-8.7,3.3-11.4,15.6-19.9,17.6c-2.4,0.6-4.9,0.6-7.2,1.3c-2.3,0.7-4.6,2.3-5.1,4.7c1.1-1.8,3.2-2.9,5.3-3c2.5-0.1,5.5,1.3,7.5-0.4
			c-2.2,1.9-3.5,6.1-6,8.4c-5.2,4.9-9.4,10.7-12,17.4c-1.5,4.1-2.5,8.4-4.5,12.3c-2.9,5.5-8.1,10.2-8.7,16.5
			c1.9-6.1,8-9.8,10.8-15.5c1.2-2.5,1.7-5.2,2.5-7.8c2.1-6.7,6.9-13.2,12-17.9c0.7,5.8,1,11.6,2.2,17.3c2.3-6-2-13.3,1-19
			c1.4-2.8,4.1-4.9,5.9-7.3c2.6-3.7,3.6-8,6.6-11.5s6.9-6.1,10.9-8.1c1.4-0.7,12.2-4.3,12.3-5.2c-0.8,4.8-1.5,9.6-4.1,13.8
			c-1.9,3.9-4.1,6.6-8.1,8.4c-3.6,1.6-8.7,1-11,4.9c4-1.4,8.3-1.8,12.4-1.2c-2.8,5.2-1,15.4-5.2,19.4c-2,1.9-5.2,2.1-7.1,4.1
			c-1.7,1.9-1.7,4.8-1.6,7.3c0.7-2.2,1.4-4.5,3.4-5.7c0.6-0.4,1.3-0.6,2-0.8c1.6-0.6,3.4-1.1,5-1.7c-0.2-0.4-0.1-1,0.4-1.3
			c0.7-0.1,0.9,0.9,0.9,1.6c-0.4,5.2-2.2,9.9-3.2,15c-1.3,6.6-1,13.5,1,20c-1.3-6.4-0.9-13.2,1.2-19.4c1.2-3.7,6.4-11.1,4.9-15.1
			c1.9,5.1,9.7,5.2,7.3,12c-0.6,1.7-1.7,3.3-2.3,5.1c-0.8,2.2-0.8,4.9-0.1,7.1c0.5-3.5,1.9-6.9,4-9.8c-0.1,3.4,0.3,6.6,1,9.9
			c0.7,3.4,3.4,6.9,7,7.1c-3.4-1.6-4.8-5.8-4.9-9.6c-0.1-3.8,0.6-7.7-0.4-11.4c-0.6-2.4-1.9-4.6-3.8-6.3c-1.3-1.3-3-2.2-4.4-3.4
			c-4.9-4.6-4.8-13-2.1-18.8c2.2-4.6,5.5-8.4,7.6-13.1c2.1,4,3.8,8.3,5.7,12.4c0.9,1.9,1.7,3.8,2.6,5.8c1.2-6.4-4.3-12.2-4.5-18.6
			c-0.3-11.6,7-22.6,6.2-23.3c5.7,4.6,11.5,11,10.1,18.9c-0.3,1.7-0.9,3.4-1.3,5c-1.3,5-0.7,10.4,1.3,15c-1.6-6.4-0.4-13.3,3.1-18.8
			c-0.1,3.9,1.4,6.2,2.3,9.7c1,3.9,0.3,8.3,1,12.3c1,6,4.3,11.1,6.1,16.8c1.6,5-1,10.8,1.5,15.5c0.9,1.7,2.5,3,4,4.2
			c-2.2-2.7-3.3-6.1-3.1-9.6c0.2-3.9,2-7.9,0.4-11.4c-2.2-4.9-4.9-9.8-6.4-15.1c-1-3.5,0.7-15.7-1.2-18c2.9,3.4,9.6,1.4,13.2,4.7
			c1.2,1.2,1.9,2.8,3,4.1c2.5,3.4,6.8,5.5,9.6,8.6c-1-1.4-2.1-2.8-3.4-4c-1-1-2.2-1.8-3.3-2.8c-2.1-2.1-3.3-4.9-4.9-7.5
			c-4-6.4-12.7-4.4-16.3-10.9c-1.4-2.5-1.1-5.2-2.5-7.8c-1.6-3-4.4-5.6-6.4-8.3c-0.9-1.2-6.4-13.5-4.3-13c8.1,1.9,22.6,7.9,23,17.7
			c0.1,1.9-0.1,3.8,0.1,5.8c0.4,2.8,1.8,5.5,4,7.4c-2.2-3.5-1.9-8.2-1.2-12.1c3.5,6.3,14.7,4.9,16.5,13.2c0.5,2.5,0.5,5.2,1.5,7.6
			c1,2.5,3.1,4.5,4.9,6.5c1.9,2,3.5,4.5,3.5,7.2C408.5,410.1,406.7,406.9,404.8,404.2L404.8,404.2L404.8,404.2z"/>
		
			<path id="path3_1_" inkscape:connector-curvature="0" sodipodi:nodetypes="cccccccccccccccccccccccccccccccccccccccccccccccccccccccccccccccccccccccccccccccccccccccccccccccccccccccccccccccccccccccccccccccccccccccccccccccccccccccccccccccccccccccccccccccccccccccccccccccccccccccccccccccccccccccccccccccccccccccccccccccccccccccccccccccccccccccccccccccccccccccccccccccccccccccccccccccccccccccccccccccccccccccccccccccccccccccccccccccccccccccccccccccccccccccccccccccccccccccccccccccccccccccccccccccccccccccccccccccccccccccccccccccccccccccccccccccccccccccccccccccccccccccccccccccccccccccccccccccccccccccccccccccccccccccccccccccccccccccccccccccccccccccccccccccccccccccccccccccccccccccccccccccccccccccccccccccccccccccccccccccccccccc" class="st10" d="
			M418.4,144.5c-0.7-0.6-1-1-0.4-1.8c1.9-2.5,1-4.6-2.5-5.4c-1.5-0.4-2.7-0.7-2.9-2.2c0.2-0.1,0.4-0.4,0.7-0.5
			c1.4,0.1,2.6-0.4,2.7-1.6c0.1-0.9-0.2-1.9-1.6-2.6c-2.5-1.4-5.7-2.1-7.6-4.6c-1.1-1.5-8.1-0.1-9.7,1.6c-1,1-1.7,2.2-3.1,3
			c-1.3,0.7-2.4,1.2-3.9,0.4c-2.4-1.3-4.9-0.1-7.3,0.1c-2.4,0.3-3.8,0-4.3-2.2c-0.4-2.1,1.5-2.1,2.9-2.5c0.3-0.1,0.4-0.5,0.7-0.8
			l0,0c0.4-1.2,2.3-1.3,2.5-2.6l0,0c1-0.9,2.8-1.1,3.1-2.6c0.2-0.2,0.4-0.4,0.7-0.6c3,1.3,4.4-0.7,6.1-2.2c1.4-0.2,2.8-0.4,4.3-0.6
			c1.7-1.6,0.5-2.8-1-3.7c-1-0.7-2.3-0.4-3.5-0.4c-1.5-0.1-3.3,0.4-3.8-1.7c-0.3-1.3-2-0.9-3.1-1.1c-1-0.2-2.2-0.1-3.4-0.1l0,0
			c1.1-0.4,0.8-2.1,2.4-2.2c0.5,0,1.3-0.3,1.1-0.6c-1.9-2.7,1.9-4,1.7-6.3c-0.1-0.4-0.4-0.9-0.7-1.1c-2.4-1.4-1.6-2.5,0.4-3.4l0,0
			c1.4-0.2,3.4,0.7,4.1-0.7c0.9-2-1.3-3.1-2.7-4.3l0,0c-0.6-0.8-1-1.8-2.4-1.9c-0.4,0-1-0.2-1-0.4c-0.4-3.9-4.2-3.4-7-4.3
			c-1.2-0.4-2.7-0.6-2.7-2.2l0,0l0,0c0.6-2.3-0.3-3.8-3-4.4l0,0c-2.4-1.1-2.1-3.4-2.3-5.2c-0.5-3.2-2.6-4.8-5.8-5
			c-4.3-0.3-8.5-1-12.7-1.7c-2.9-0.5-4.3,0.7-4.5,3.3c-3.4,0.4-6.3,1.8-8.7,3.7c-1,0.7-1.6,1.9-2.9,2.2c-3.4,1.1-3.4,3.9-4.2,6.3
			c-0.4,1.3-1,2.4-2.8,2.5c-0.5,0.1-1.1,0.3-1,0.8c0.4,3.1-2.6,3.2-4.6,3.4c-2.8,0.2-1.9,3.1-3.9,3.6c0.4,1.1,1,1.9,2.2,2.5
			c2,1,2.6,3.9,1.3,5.8c-1,1.5-1,1.6,1.3,2.4l0,0c0.1,0,0.3,0,0.4,0l0,0l0,0c2,0,3.4,0.4,2.8,2.6c-0.2,0.8,0.4,1.8,1.7,1.7l0,0l0,0
			c0.7,0.1,1.6,0.8,1.3,1.3c-0.7,1-1.9,2.2-3.2,2.2c-4.8-0.1-7.6,1.9-9.2,5.6c-0.5,1.3-2.3,1.3-2.8,2.7c-0.4,1-0.8,1.8,0.3,2.5l0,0
			c1.9,0.9,3.6,3,6.3,1.6c0.4,0.1,0.7,0.1,1,0.1l0,0c0.4,0.1,0.9,0.4,1.3,0.5c-0.7,2.6-0.1,4.6,3.1,5.5c1.6,0.7,3.3,0.5,4.9,0.6l0,0
			c1.9,0.1,3.9-0.1,5.6,1l0,0l0,0c0.1,0.7-0.3,1.2-0.7,1.8c-0.1,0-0.1-0.1-0.1-0.1c-1.3-0.4-2.4,0-3.1,1c-0.2,0.1-0.3,0.2-0.4,0.4
			c-0.1,0-0.2-0.1-0.3-0.1c-0.1-0.1-0.1-0.1-0.2-0.1c0-0.2-0.1-0.4-0.3-0.7c-0.4-0.3-0.7-0.6-1.1-0.7c-0.1-0.3-0.3-0.5-0.7-0.5
			c-1-0.1-1.9-0.2-3-0.2c-0.3-0.1-0.6-0.2-0.9-0.4c-0.3-0.1-0.6-0.1-0.8,0.1c-0.1,0-0.1,0-0.2-0.1c0,0,0,0-0.1-0.1
			c-0.7-0.5-1.5-0.4-2.1-0.1c-0.4,0.1-0.7,0.4-0.8,0.7c-0.1-0.1-0.2-0.1-0.4-0.1c-0.8-0.4-1.8-0.3-2.3,0.1c-0.1,0-0.1,0-0.1,0
			c-0.7,0-1.3,0.1-1.7,0.4c-1.6,1.3-0.5,2.4,0.9,3.1c-0.1,0.1-0.2,0.4-0.2,0.6c0.1,1.5,1.9,2,3.4,1.9c0.4,1.2,1.7,2.2,2.7,2.9
			c1.1,0.7,2.3,1.6,3.7,2.2c-0.1,0.1,0,0.2,0.1,0.2c0.4,0.1,0.8,0.2,1.2,0.3c0.4,0.1,0.9,0.3,1.3,0.3c0.4,0.4,1,0.7,1.5,0.8
			c0.2,0.1,0.4,0,0.6-0.2l0,0c0.4,0.3,0.7,0.7,1.1,1c1.9,1.5,4,2.6,6.4,3.3c-1,1-1.6,2.5-1.3,4.1c0.1,0.8,0.4,1.3,0.8,1.6
			c-0.1,0.7,0.1,1.3,0.7,1.9c0.7,0.6,1.9,0.7,3,0.6c0.8,0.7,2.2,0.9,3.4,0.5c0.1,0.1,0.2,0.1,0.3,0.1c0.1,0.1,0.3,0.2,0.4,0.3
			c1.8,1.3,0.9,3.2,1.3,4.8c0,0.3,0,0.5,0,0.8c-0.4,0-0.9-0.1-1.3-0.1c-1-0.7-2-1.3-3.1-1.9c0-0.1-0.1-0.4-0.4-0.4
			c-0.1,0-0.3,0-0.4-0.1c-2.8-1.6-5.5-3.2-8.4-4.5c-0.2-0.4-0.4-0.7-0.7-1.1c-0.4,0-0.7,0-1,0c-0.1-0.2-0.3-0.4-0.4-0.7
			c0.1-0.4-0.1-0.7-0.4-0.9c0.2-0.6,0.2-1.3-0.4-2.1c0,0,0,0-0.1-0.1c-0.3-0.6-0.8-1.2-1.6-1.5c-0.4-0.7-1.1-1.1-2-1.3
			c-0.1,0-0.3,0-0.4,0c-0.5-0.4-1.1-0.6-1.9-0.5c-0.3,0-0.5,0.1-0.7,0.1c-0.4-0.1-0.9-0.1-1.3,0c-0.1,0-0.2,0.1-0.4,0.1
			c-0.2-0.1-0.5-0.2-0.7-0.3c-0.1-0.4-0.3-0.8-0.5-1.2c-0.3-0.5-0.9-0.7-1.3-0.5c0,0-0.1,0-0.1-0.1c-0.3-1-1.1-1.5-2.2-1
			c-0.7-1.2-2.2-1.8-3.2-1c-0.8-0.1-1.6-0.1-2.2,0.1c-0.7,0.2-1.6,0.7-2.1,1.3c-0.5,0.1-1,0.2-1.4,0.5l0,0l0,0
			c0.1-1,0.1-1.9-0.9-2.8c-3.2-2.7-10.5-3.5-14.1-1.3c-1.1,0.7-1.9,0.5-2.8,0.2c-2.2-0.7-4.4-0.6-6.7-0.1c-1.6,0.3-2.7,0.6-2.2,2.4
			c0.1,0.4,0,0.7-0.2,0.9c-1.9-0.4-3.8-0.1-4.8,1.8c-0.4,0.9-0.9,2.5-0.4,3.4c0.2,0.5,0.7,0.9,1.3,1.2c-0.1,0.2-0.3,0.4-0.4,0.7
			c-1.4,2.4-3.1,4.9-1,7.8c0.1,0.1,0.1,0.3,0.1,0.5l0,0l0,0c-1,1-2.1,1.9-2.8,3.4c-1.3,2.4-0.2,3,2.2,3.2l0,0l0,0
			c0.3,0.2,0.6,0.2,0.9,0.3c0.1,0.1,0.3,0.1,0.4,0.2c-0.1,0.4-0.1,0.8,0.1,1.3s0.7,0.9,1.2,1.3c0.1,0.3,0.2,0.6,0.5,0.9
			c1.1,1,3.5,0.9,4.6,0.1c0.4-0.3,0.8-0.7,1-1.3c2.9,1,5.6,1.6,8.5-0.9c0.4,0.2,1,0.2,1.5-0.2c0.3-0.2,0.7-0.4,1-0.4
			c0.1,0.3,0.1,0.7,0.4,1c0.8,1.1,2.2,0.9,3,0.1c0,0.1,0.1,0.2,0.1,0.4c0.4,0.8,1.1,1.5,2,1.8c0.4,0.4,0.7,0.7,1.2,1
			c1.1,0.4,2.4,0.1,3.2-0.6h0.1c1-0.4,1.6-1.1,1.7-1.9c0.4-0.1,0.7-0.4,1-0.7c0.5-0.2,0.9-0.4,1.2-0.7c2.6,0.1,5.2-0.2,7.7-1.6
			c1.8-1,3.4-2.1,5.3-3c2.3-1.1,4.7-1.5,7.1-2.2c3.6,0.1,7.2,0.1,10.8-0.1c0.1,0.1,0.2,0.1,0.4,0.2c2.2,1.1,4.5,2.2,6.5,3.6
			c-0.1,2-0.1,4-0.2,6.1c0,0.7,0,1.4-0.4,1.8v0.1c0,0.5,0,1.1,0,1.7c0.1,0.1,0.1,0.4,0.1,0.6c0.1,1.6,0,3.3,0,4.9
			c0,0.7-0.4,0.7-0.7,0.7c0,0.1-0.1,0.1-0.1,0.3c-0.6-0.7-1.1-1.3-1.9-1.9c-0.8-0.7-1.8-1.3-2.8-1.8c-0.3-1.6-1-3.4-2.2-4.2
			c-0.6-0.4-1.3-0.4-1.7-0.1c-0.1-0.1-0.2-0.2-0.4-0.3v-0.1c-0.1-0.3-0.1-0.6-0.2-0.8c-0.1-1-0.8-2-2.2-1.4c0.3-1.6,0.6-3.4-0.5-5.1
			s-2.3-2.2-4.2-1.9c-1.8,0.3-3.5,0.8-5.2,1.3c-2.3,0.5-3.7,1.6-2.6,3.9c0.4,1,0,1.6-1.2,2c-2.9,1.2-3.4,4.9-1,6.9
			c0.4,0.4,1,0.7,1,1.3c0.6,2.7,1.6,3.4,4.4,2.2c0.2,0.3,0.5,0.5,0.9,0.7c2.7,1.9,7.3,2.5,8.9-0.6c0.1,0,0.1,0.1,0.2,0.1
			c0.1,0.3,0.4,0.6,0.7,0.7c1,0.6,2,0.2,2.7-0.4c1,0.1,1.9,0.2,2.8,0.3c1.3,0.1,2.5,0.4,3.7,0.6c0,0.1,0,0.1,0,0.2
			c0.1,0,0.2,0,0.3,0c0.1,0.1,0.1,0.1,0.2,0.2c0.2,0.2,0.6,0.4,1,0.7c0.1,0.7,0.1,1.6,0.1,3c-0.1,3.9,0.3,7.8-0.6,11.7h-0.8
			c0,1-0.1,1.9-0.2,2.8c0.1,1.3,0.4,2.5,0.5,3.7c0.1,0.1,0.1,0.4,0.2,0.5c-0.3-0.1-0.7-0.3-1-0.4c-1-0.6-1.4-1.5-2.3-2.2
			c-0.5-0.4-1.2-0.7-1.9-1c-0.1-0.3-0.3-0.6-0.5-0.9c0.1-0.3,0.2-0.5,0.3-0.8c0.3-0.4,0.3-0.9,0.2-1.3c0.4-0.4,0.4-1,0.3-1.6
			c-0.3-1.3-1.3-1.4-2.5-1.6c-0.6-0.4-1.1-1-1.5-1.7c0-0.5,0.1-0.9-0.4-1.4c-1-1.2-2.5-1-3.7-0.2c-0.2,0.1-0.4,0.4-0.4,0.6
			c-0.1,0.1-0.1,0.2-0.1,0.4c-1,0-1.9-0.1-2.9-0.2c-0.4-1.2-1.9-2.2-3.4-2.4c-0.1,0-0.1,0-0.1,0c-0.1-0.1-0.2-0.1-0.4-0.1
			c-1.6-0.5-3.2,0.6-3.4,1.9c-0.1,0-0.2,0-0.4,0c-0.1-1-1-2-2.1-2.7c-0.3-0.4-0.7-0.6-1.3-0.7c-0.6-0.1-1.1,0.3-1.3,0.8
			c-0.4,0.1-0.7,0.4-1,0.5c-1,0.4-2.2,1.6-0.7,2.8c-0.7,1.4-4.4,2.1-1.3,4.4c1.3,1.5,2.6,2.8,4.9,2.8c0.2,0.1,0.4,0.3,0.7,0.5l0,0
			c-0.6,1.6-2.2,1-3.4,1c-3.8,0.1-7.4-1-11.1-1.3c-4.8-0.4-7,1.9-5.1,5.8c0.4,0.8,0.1,1.3-0.3,1.9c-0.7,1-0.5,1.8,0.7,2.4l0,0l0,0
			c3.1,1,5.8,3.1,9.2,3.4l0,0c2.2,0.6,4.6,1,6.8,0.1l0,0c0.6-0.1,1.2-0.1,1.8-0.1l0,0c1.1,0.3,2.1-0.1,3.1-0.5
			c0.2-0.6,0.5-1.1,0.9-1.5c2.4,1.2,5.2,1.3,7.7,0.6s4-2.3,5.8-3.8c2.7-0.6,5.5-1.6,7.6-2.2c0.1,0.1,0.4,0.2,0.6,0.3
			c0.6,0.4,1.1,0.9,1.6,1.4c-0.1,1.6-0.1,3.2,0,4.9c0.1,3-0.4,5.8-0.8,8.7c-0.3,2.7-0.1,5.3-0.4,8c-0.3,2.8-0.7,5.4-0.3,8.1
			c0.1,0.2,0.1,0.4,0.3,0.6c-1.1,2.8,0.6,6.9,0.5,9.7c-0.1,5.7-1.5,11.8-0.1,17.4v0.1c-1.5,5.2,0.7,11-0.3,16.2
			c-1,5.4-1.6,11.2-0.8,16.7c0.1,0.3,0.2,0.5,0.4,0.7c-0.1,0.4-0.1,0.7-0.1,1.2c-0.2,2.5-0.1,5.2-0.1,7.7c0,5.1-0.2,10.2-0.3,15.3
			c0,0.2,0.1,0.4,0.1,0.5c-1.2,4.1-0.7,9.3-0.7,13.5c-0.1,4.6-0.2,9.3,0.7,13.9c0.1,0.6,0.7,0.7,1.1,0.6c0.7,0.5,2.2,0.5,4.9,0.6
			c1,0,2,0,3.1,0c1.4,0,2.3-0.6,2.3-1.9c-0.1-6.3,0.2-12.5-0.4-18.8c0.4-3.7,0.1-7.3-0.1-10.9v-4.9c0-12.6,0.1-25.1-0.5-37.7l0,0
			l0,0c0-2.8,0-5.5-0.1-8.2c0-1.1-0.1-2.2-0.1-3.3l0,0l0,0c0-2,0-4,0-6c-0.1-5.8,0.1-11.7-0.1-17.5c0-0.2,0-0.5-0.1-0.8
			c-0.1-1-0.1-2-0.2-3.1c0-0.6-0.1-1.2-0.1-1.8c0.2-3.4,0.2-6.7-0.1-10.1l0,0l0,0c0-0.5,0-1.1,0-1.6c0.5-1.7,0.4-4.1,0.3-5.7
			c0.1-0.1,0.2-0.1,0.3-0.2c0-0.7,0-1.4-0.1-2.2c-0.1,0-0.1,0-0.1-0.1c0.2-3.8,0.6-7.9,0.2-11.6c0.6-0.7,1.2-1.3,1.8-1.9
			c3.4-0.8,7.3-0.1,10.9-0.1c-0.4,1.7,1.3,3.4,3.2,3.5c0.7,0.4,1.6,0.6,2.4,0.2c2.6,1.8,6.1,2.6,9.2,2c0.7,0.7,1.6,1,2.6,0.8
			c1-0.1,1.7-0.7,2.3-1.5c0.1,0.2,0.4,0.4,0.5,0.6c0.4,0.5,1.3,0.3,1.5-0.2c0.3-0.4,0.5-1,0.8-1.4c1.2,0.4,2.6-0.2,2.9-1.7
			c0-0.1,0-0.1,0-0.3c1-0.1,1.9-0.5,2.2-1.6c0.4-0.2,0.7-0.5,1.1-0.9s0.3-1-0.1-1.4c1.6-1.2,1.4-2.5-0.5-4.9
			c-0.2-0.3-0.5-0.6-0.7-0.9c0.8-0.7,1.5-1.9,1.3-2.8c-0.1-0.7-0.6-1.1-1.1-1.2c-0.4-0.4-1-0.7-1.6-0.8c-0.1,0-0.1-0.1-0.1-0.1
			c-0.9-0.2-1.6,0.1-1.9,0.6c-0.3,0.1-0.5,0.4-0.6,0.7c-0.7-0.3-1.6-0.4-2.4,0c-0.4-1.8-2.1-2.5-4.5-2.6c-1.4-0.1-2.8,0-3.4-1.2
			c-0.1-0.3-0.1-0.5-0.3-0.7v-0.1c-0.1-0.3-0.3-0.6-0.6-0.7c-0.6-0.6-1.3-1-2.2-1.1c-0.7-0.1-1.5,0.1-2.2,0.4
			c-0.2-0.1-0.5-0.1-0.7-0.1c-0.7,0.3-1,0.8-1.2,1.4c-0.8,0.1-1.6,0.3-2.5,0.6c-1.3,0.4-2.6,0.6-3.8,0.4c-0.4-0.4-1.2-0.4-1.9-0.4
			l0,0l0,0c-0.4,0-0.8,0.1-1.1,0.2c-0.8,0.3-1.5,0.8-1.9,1.6c-0.1,0.1-0.1,0.4-0.2,0.5c-0.5,0.4-1,0.9-1,1.6
			c-0.1,0.4,0.1,0.8,0.2,1.2c-0.1,0.2-0.1,0.4-0.2,0.6c0.1,0.4,0.1,0.7,0.3,1c0.3,0.2,0.6,0.5,0.9,0.8c-0.4,0.4-0.7,0.8-0.9,1.3
			c-0.4,0.7-0.5,1.7-0.9,2.5c-1.9,0.7-3.7,1.6-5.2,3.1c0-2.4-0.8-5.2-1-7.1c0-0.1,0-0.1,0-0.1c0.1-0.3,0.2-0.6,0.5-0.9
			c-0.3-0.3-0.4-0.8-0.4-1.3c0.1-1.7,0.3-3.3,0.7-4.9c-0.1,0.1-0.3,0.1-0.4,0.1c-0.6-1.5-0.2-3-0.4-4.4c0-0.8,0-1.6,0-2.3
			c0-2.1,0-4.2,0-6.3c0.1-0.1,0.1-0.3,0.1-0.5c0.1-0.2,0.1-0.4,0.2-0.7c0.1-0.1,0.1-0.1,0.2-0.1v-0.4c0.3-0.6,0.7-1.1,1.2-1.2
			c0.2-0.1,0.4,0,0.7,0c0.4,0.1,0.7-0.3,0.7-0.7c3.6-0.1,8-0.3,11-2.1c2.4,0.8,5.9,0.2,6.1-2.5l0,0c0.1-0.1,0.1-0.1,0.1-0.2
			c0.1,0,0.1,0,0.1,0c3.4,0.2,3.1-1.6,2.8-3.4c0.4-0.1,0.7-0.5,0.7-1c0.1-1.7-0.7-2.6-2-3.1c-0.4-0.7-1.2-1-2.1-0.7
			c-0.1-0.1-0.2-0.1-0.4-0.1c-1.1-0.3-1.2,0.5-2.1,0.5c-0.2,0-0.5,0.1-0.7,0.3c-0.3-0.1-0.6-0.1-0.7-0.1c-0.3,0-0.5,0-0.7,0.1
			c-0.1-0.1-0.3-0.1-0.4-0.1c-0.6-1-1.8-1.1-2.8-0.4c-0.1,0-0.1-0.1-0.1-0.1c-3.5-2-6.1,0.1-7.6,3.1c-0.4,0.3-0.6,0.7-0.5,1.2
			c-0.1,0.1-0.1,0.2-0.1,0.3s0,0.3,0,0.4c-0.4,0.3-0.8,0.7-1,1.4c-0.1,0.7,0.4,1.2,1,1c0.1,0,0.1-0.1,0.2-0.1
			c-0.7,0.9-1.2,1.9-1.8,3c-0.4,0.2-0.7,0.4-1.1,0.7c-0.5,0.4-1,0.7-1.3,1.2c0-2.5-0.1-5-0.3-7.5c0.1,0,0.2-0.1,0.4-0.1
			c0-0.4,0-0.7,0-1c-0.2-0.1-0.4-0.1-0.5-0.2c-0.1-1.6-0.4-3.2-0.7-4.8c0-0.4,0-0.7,0-1.1c0.2,0,0.5,0.1,0.7,0.1
			c0.1,0.1,0.1,0.3,0.2,0.4c1.3,1.9,4.6,0.8,4.9-1.3c0.5-0.1,1-0.4,1.4-0.7c0.1,0,0.2-0.1,0.3-0.1c0.4-0.2,0.7-0.5,0.9-0.8
			c1-0.7,1.6-1.8,1.6-2.8c-0.1-0.7-0.5-1.3-1.1-1.6c0.1-0.5,0.3-1,0.4-1.6l0,0c0.5,0,1,0,1.5,0c0.1,0.1,0.3,0.2,0.5,0.3
			c0.4,0.1,1,0.3,1.6,0.3c0.2,0.5,0.7,1,1.3,1.2c0.2,0.1,0.4,0.1,0.7,0.1c0.3,0.7,1,1.2,1.8,1.5c0.7,0.3,1.3,0.6,2.1,0.7
			c0.4,0.1,0.9-0.3,1.1-0.6c0.1-0.1,0.1-0.3,0.2-0.4c0.2-0.1,0.4-0.2,0.6-0.4c0.1,0,0.2,0,0.4-0.1c0.3,0.1,0.7,0.1,1,0.2
			c0.8,0.4,1.7,0.7,2.6,0.9c0.1,0,0.2,0,0.3,0c1,0.4,2.1,1,3.1,1.4h0.1c0.4,0.1,0.7,0.4,1,0.5c2.2,0.9,4.7,1.1,7.1,1.2
			c0,0.1,0.1,0.1,0.1,0.1c4.3,0.6,10.1,1.3,14.4,0c0.2-0.1,0.3-0.4,0-0.5c-1.1-0.2-2.2-0.3-3.4-0.2c1.5-0.6,2.9-1.3,4.3-2.2l0.1-0.1
			c2.2,0.5,4.3,1.4,6.4,0.1l0,0l0,0c1.5-0.3,3.1-0.6,4.2-1.8C420.4,148.2,420.6,146.4,418.4,144.5L418.4,144.5L418.4,144.5z
			 M332.9,142.5c-0.1,0-0.1,0-0.1,0c-0.4-0.1-0.7-0.1-1-0.2c-1.3-0.6-2.6-1.6-3.8-2.3c-0.8-0.5-1.7-1-2.4-1.8
			c-0.3-0.4-0.5-0.7-0.7-1.2c0.1,0,0.1-0.1,0.2-0.1c0.1-0.1,0.2-0.1,0.3-0.1c0.1,0.1,0.1,0.1,0.1,0.1c0.7,0.7,1.6,0.7,2.6,0.5
			c0.1,0,0.4,0,0.5,0c1.5,1.8,3.2,3.5,4.9,5.1C333.4,142.5,333.2,142.5,332.9,142.5L332.9,142.5L332.9,142.5z M337.9,144.9
			c0,0.1,0.1,0.1,0.1,0.1c-0.9-0.6-1.8-1.2-2.7-2c0-0.1-0.1-0.3-0.3-0.3h-0.1c-1.7-1.6-3.3-3.5-4.9-5.3c0.5-0.1,1-0.2,1.4-0.4
			c0.1,0.1,0.1,0.1,0.2,0.1c0.1,0.8,1.1,1.3,2.3,1.4c0.7,2.4,2.4,4.3,4,6.1C337.9,144.6,337.8,144.7,337.9,144.9L337.9,144.9
			L337.9,144.9z M345,146.1c-0.1,0.1-0.1,0.3-0.1,0.5c-0.6,0.1-1.2,0.4-1.7,0.7c-1.1-0.3-2.2-0.7-3.2-1.1v-0.1
			c-0.1-0.4-0.6-0.5-0.9-0.7c-0.1-0.1-0.1-0.1-0.3-0.1v-0.1c-0.7-1.3-1.6-2.4-2.5-3.6c-0.6-0.9-1-1.8-1.3-2.7c1,0.2,2.1,0.2,3.1-0.3
			c0,0,0,0,0.1,0c0,0.1,0,0.1,0.1,0.1c-0.1,0.2-0.1,0.4-0.2,0.7c-0.7,1.7,0.5,2.3,2.1,2.3c0.1,0.1,0.3,0.3,0.5,0.3c0,0,0,0,0,0.1
			c-0.1,0.6,0.5,1,1.1,1.1c0.4,0,0.7-0.1,1.1-0.2c0.1,0.5,0.5,0.9,1,1.1c0.1,0.2,0.4,0.3,0.5,0.4c0.2,0.1,0.5,0.3,0.8,0.4
			c0.1,0.1,0.1,0.3,0.1,0.4C345.3,145.5,345.1,145.8,345,146.1L345,146.1L345,146.1z M323.7,163.7c-2,1.1-3.9,2.5-6.1,3.2
			c-1.3,0.4-2.8,0.4-4.2,0.4c0.2-1-0.6-2.3-2.4-4.1c0.1-1.1,1.6-0.7,2.2-1.3c4,1,8.5,1.9,12.3,0.7
			C324.9,163,324.3,163.4,323.7,163.7L323.7,163.7z M325.5,161.5c-0.1,0-0.1,0.1-0.1,0.1c-2.3,0.2-4.6,0.4-7,0.1
			c1.2-1.3,2.6-1.6,4.3-1.7c1.1,0.7,2.5,1,3.9,1.1C326.3,161.3,325.9,161.4,325.5,161.5L325.5,161.5L325.5,161.5z M333.2,159.9
			c-2,0-4,0.1-6.1,0c-0.8-0.1-1.5-0.1-2.1-0.4c0.8-0.6,0.8-1.6-0.4-3c0.4,0,0.8,0,1.3,0.1c0.5,0.6,1.2,1,1.9,1.3
			c1.6,0.7,2.9,0.7,4.2-0.5c0.1-0.1,0.3-0.3,0.4-0.5c0.4-0.1,0.7-0.1,1-0.2c0.6,0.1,1.3,0.3,1.9,0.5c2.1,0.7,4.1,1.7,6.1,2.8
			C338.7,159.9,335.9,159.9,333.2,159.9L333.2,159.9z M343.7,180.7L343.7,180.7c0.5-0.1,1-0.2,1.1-0.7c0.1-0.1,0.1-0.3,0.1-0.4
			c0.4,0.2,0.8,0.4,1.2,0.7c0.4,0.3,0.8,0.7,1.2,1.1C346.2,181.1,344.9,180.9,343.7,180.7L343.7,180.7L343.7,180.7z M335.9,210.3
			c-3.1,1.9-6.4,1.9-9.7,1c0.4-0.3,0.8-0.5,1.3-0.6c0.4,0,0.7,0,1,0s0.7,0.1,1,0.2c0.5,0.1,1.2,0.1,1.6-0.4c1.1-0.4,1.4-1.3,1.2-2.2
			c0-0.1,0-0.1,0-0.1c1.4,0.9,3.3,1,5.2,0.7C337,209.4,336.5,209.9,335.9,210.3L335.9,210.3L335.9,210.3z M341.8,206.5
			c-0.2,0.1-0.5,0.1-0.7,0.2l0,0c-0.6,0-1.1,0.1-1.6,0.4c-0.9,0.2-1.9,0.3-2.8,0.3c-1.2,0-2.2-0.4-3.1-0.8l0,0l0,0
			c1-1.3,2.4-1.5,4-0.9c0.1-0.1,0.1-0.1,0.2-0.1l0,0c0.1-0.3,0.3-0.5,0.4-0.8c0.2,0.4,0.6,0.7,1,0.8s0.9,0.2,1.3,0.1
			c0.4,0.2,0.8,0.3,1.3,0.2c0.8-0.1,1.6-0.7,2-1.3c0.4,0.3,0.9,0.6,1.4,0.9C344.2,205.6,343.1,206.1,341.8,206.5L341.8,206.5
			L341.8,206.5z M378.1,204.8c1.1,0.3,2.2,0.7,3.4,1c0.5,1.2,1.4,2.1,2.7,2.2c0.1,0.2,0.1,0.5,0.2,0.7c-1.1,0.1-2.3,0.1-3.4-0.1
			c-1.4-0.3-2.6-0.9-3.9-1.5C377.9,206.4,378.2,205.6,378.1,204.8L378.1,204.8L378.1,204.8z M365.4,197.4c0.1-0.2,0.4-0.4,0.6-0.7
			c0.7,0.1,1.5,0.4,2.2,0.6l0,0c0.2,0.5,0.4,1,0.7,1.5c-1.6,0.2-3.1,0.5-4.6,0.9C364.6,198.9,364.9,198,365.4,197.4L365.4,197.4z
			 M369,200.3c0.1,0,0.3,0,0.4,0c0,0.7,0.4,1.4,0.9,1.9c0,0.1,0,0.1,0.1,0.1c-3.3-0.1-6.7-0.1-9.7,0.8
			C362.9,201.5,365.6,200.6,369,200.3L369,200.3z M362.5,166.9L362.5,166.9c0,0.4,0,0.9,0.2,1.3c-0.6,0.2-1.3,0.4-1.8,0.7
			C361.4,168.3,361.9,167.5,362.5,166.9z M363,169.6c0.3-0.1,0.5-0.2,0.8-0.3c0.4,0.2,0.8,0.4,1.3,0.7l0,0l0,0
			c0.4,0.1,0.7,0.2,1,0.4c-0.7,0.1-1.3,0.3-2.1,0.3c-1.3,0.1-2.6,0-3.9,0.2C361,170.4,362,170,363,169.6L363,169.6L363,169.6z
			 M404.7,148.8L404.7,148.8c-1.2,0.4-2.4,0.6-3.7,0.8c1.1-0.9,2.2-1.8,3.1-2.9C404.6,147.1,404.8,147.7,404.7,148.8L404.7,148.8
			L404.7,148.8z M387.3,153.1c-1.4-0.4-2.8-1-4.2-1.6c-0.7-0.3-1.3-0.6-2.1-0.9c-0.1,0-0.1-0.1-0.2-0.1c1.3,0.1,2.5-0.3,3.6-1.6
			c0.5-0.6,1.1-1.1,2-0.4c2.5,1.6,5,1,7.5,0.1c-0.2,0.2-0.4,0.4-0.7,0.7c-1.6,1.6-3.7,2.9-5.8,3.7
			C387.3,152.9,387.3,153,387.3,153.1L387.3,153.1L387.3,153.1z M392.2,153.8c-0.9,0-1.8-0.1-2.7-0.1c-0.7-0.1-1.3-0.2-1.9-0.4
			c2.6-0.8,5.8-2.6,7.7-5c1.3,0.1,2.8,0.2,3.2-1.5l0,0c0.9-0.1,1.8-0.1,2.7-0.3c1-0.1,1.8-0.2,2.4,0
			C400.5,149.7,396.9,152.3,392.2,153.8C392.2,153.7,392.2,153.7,392.2,153.8L392.2,153.8L392.2,153.8z M404.6,152.6
			c0-0.1,0.1-0.1,0.1-0.1c0.1-0.1-0.1-0.3-0.3-0.2c-1.9,1.4-5.1,1.3-7.3,1.4c-1.3,0.1-2.7,0.1-4,0.1c2.5-0.8,4.9-1.9,7-3.4
			c0.1,0.1,0.1,0.1,0.3,0.1c1.3,0.1,2.9-0.1,4.4-0.4c0.1,0.7,0.6,1.4,1.4,1.7C405.7,152,405.2,152.3,404.6,152.6L404.6,152.6z
			 M357.6,206l0.1-5.1"/>
		<line id="line4771_1_" class="st11" x1="357.6" y1="206" x2="357.8" y2="200.9"/>
		<g id="svg_1_1_" transform="translate(186.35897,183.32928)">
			<path id="path207_1_" inkscape:connector-curvature="0" class="st12" d="M166.4,165.1C166.3,165.1,166.3,165.1,166.4,165.1
				C166.3,165.1,166.3,165.1,166.4,165.1L166.4,165.1L166.4,165.1z M190.8,169.9l0.7,0.2l-1.1,0.1c0.4,0.2,1.3,0.1,1.8,0.1
				c0.7,0.1-1.5,0.2-2.2,0.6c-0.7,0.1-2-0.1-1.8-0.1c-0.1,0.4-2.1,0.2-2.8,0.4c-1.9,0-1.2-0.5-2.9-0.4l0.6,0.2
				c-1.5,0.1-2.2,0.1-3.8-0.1c-0.1-0.3,0.7,0.1,1.1,0l-0.7-0.3c0.4,0,1-0.1,1,0.1c0-0.1,0.6-0.3-0.4-0.3c0,0,0.2-0.1,0.4-0.1
				c0.2-0.1,0.4-0.1,0.4-0.1c-0.1-0.1-0.1-0.1-0.1-0.1c0.2,0,0.4,0,0.7,0c0.3,0.1,0.8,0.1,1.3,0.3c0,0.1-0.4,0.1-0.7,0.1
				c0.7,0.1,1.3,0.1,1.7,0c-1.1-0.1-0.5-0.2-0.7-0.4c0.7-0.1,1.8-0.1,2.2-0.1c1,0.1,1.7,0.4,1,0.6c0.6-0.1,1.2,0,1.9-0.2
				c-1.2,0.3,0-0.6-1.6-0.2c-0.4-0.4,1.3-0.2,2-0.1c-0.4,0.1-0.1,0.2-0.1,0.3c1.2-0.1,0.6-0.4-0.2-0.5l1.3-0.2c-0.1,0-0.1,0-0.1,0
				c0.4,0,0.9-0.1,1.3-0.1C191.1,169.8,191.2,169.9,190.8,169.9L190.8,169.9L190.8,169.9z M197.1,169l0.1,0.2c2.3,0.1,4-0.5,6.4-0.4
				c-0.4,0.2-1.3,0.1-1.1,0.2c1.5,0.1,1.3-0.6,2.7-0.3c-2,0.1,1.3,0.1-0.6,0.4c0.7-0.1,1.3-0.1,1.9-0.1c0.3,0,0.7,0,1,0
				c0.1,0,0.3,0,0.5,0c0.1,0,0.3,0,0.4,0.1c0.6,0.1,1.2,0.1,1.7,0.2c0.5,0.1,1,0.1,1.5,0.1c-0.4-0.2,0.7-0.1,0.7-0.2
				c0.4,0.1,0.3,0.2-0.1,0.1c0.8,0.2,1,0.4,0.8,0.7l-1.8-0.1c0.6,0.1,0.9,0.4,1.3,0.4l0,0l0,0c0.2,0.1,0.4,0.1,0.7,0
				c0.3-0.1,0.2-0.1,0.3-0.2c0.6-0.1,1.3-0.2,2.2-0.4l-0.1,0.1c0,0,0.4,0,1,0.1c0.4,0,0.9,0,0.9,0l-0.2,0.1c0,0,1.1-0.1,1.1-0.2
				c0,0.3,0.3,0.1,0.3,0.3c0.7,0.4,2.5-0.4,3.9-0.5l-0.2,0.1c0.7-0.4,2.8-0.6,4.1-0.9v0.1c-0.7,0.3-0.9,0.5-0.4,0.5
				c-0.2,0.1-0.7,0.3-0.9,0.4c-0.4,0.1-1.6,0.4-1.8,0.2c0.9-0.2,0.8-0.2,0.4-0.3c-0.8,0.4-2.5,0.6-2.4,1c-1.3,0.2-0.4,0-1.3,0
				c-0.1-0.1,0.1-0.2,0.4-0.4c0,0-0.2,0.1-0.6,0.1c-0.4,0.1-0.8,0.1-1.3,0.1c-0.4,0.1-0.9,0-1.3,0.1c-0.4,0-0.6,0-0.6,0
				c-0.2,0.3,2.4,0.3,1.1,0.7c-0.1,0.1-0.2,0.1-0.4,0.3c-0.2,0.1-0.5,0.2-1.2,0.1c0-0.1,0.1-0.1,0.2-0.1c-0.6,0-0.7-0.1-1.3-0.2
				c-0.1-0.3,0.8-0.1,1.3-0.3c-0.4,0-0.9,0.1-1.3,0.1l0.1-0.1l-1.3-0.1c-0.6,0.1,1,0.1,1,0.3l-0.9,0.1c-1-0.1-3.6-0.3-4.4-0.7
				c-1.1-0.2-0.7,0.1-0.9,0.3c-0.1,0.1-0.4,0.1-0.5,0.1s-0.1,0-0.2,0h-0.2c-0.3,0-0.7-0.1-1-0.1c0,0.2-0.7,0.2-0.8,0.4l-1.1-0.1
				c-0.6,0.4,1.3,0.1,1.6,0.2c0.6,0.4-0.8,0.1-0.4,0.3c0.8-0.1,0.9-0.2,1.3-0.3c0.1,0,0.2,0,0.3,0s0.1,0,0.1,0s0,0,0.1,0
				s-0.1,0-0.1,0l0,0l0,0l0,0l0,0l0,0c0.1,0.1,0.1,0.1,0.1,0.1c-0.1,0-0.1,0-0.1,0h-0.1l0,0l0,0l0,0c0,0-0.1,0,0.1,0l0,0
				c-0.1,0-0.1,0-0.2,0s-0.2,0-0.3,0s-0.2,0.1-0.3,0.1c-0.1,0.1-0.3,0.1-0.8,0.1v-0.1c0,0.3-1.6,0.1-2.2,0.2c-1.2-0.3,1-0.4,1-0.5
				l-1.5,0.1c0.7-0.1,0-0.4,0.8-0.5c-0.9,0.1-1-0.1-1.9,0c1-0.4-1.2-0.3-1.3-0.6c1-0.1,2.9,0.3,2.7,0.4c0-0.1,1.2-0.1,1.7,0.1
				l0.7-0.4c-0.8,0-1.9,0.1-1.6-0.1l-1.1,0.1c1.1-0.5,1-0.4,2.1-0.7c-2.1-0.4-3.7,0.4-5.5,0.1l0.3-0.1c-3.4,0.1-4.2-0.4-4.9-1
				C196.1,169.1,196.6,169.1,197.1,169L197.1,169L197.1,169z M237.7,167.9l-0.4,0.1c0.1,0.2,1.2,0.1,2.2,0.3c0.3-0.1,1-0.1,1.3,0.1
				l-0.1,0.1c0.1,0.1,1.1,0.4,2.2,0.6c-0.1,0-0.3,0.1-0.4,0.1c-0.3,0.1-0.6,0.1-1,0.1c0.2,0,0.4,0.1,0.8,0.2c0,0-0.5,0.1-1,0.1
				c-0.5,0.1-1,0.1-1,0.1c0.9,0.2,1.2-0.2,2.3,0.1c-0.1,0.3-0.1,0.4-1.3,0.4c-1-0.2,0.1-0.1-0.4-0.4c-0.9,0.2-1-0.5-1.9-0.2
				c-1-0.1-0.7-0.3-1-0.4c1,0.1-0.4-0.4,0.9-0.3c-1-0.3-0.8,0.2-1.7,0l-0.1-0.4c-0.8-0.1-2.6-0.4-3.7-0.1c1,0.1-0.5,0.2-0.4,0.4
				c0.1-0.3,1.4-0.1,1.4,0c-0.4,0.1-1,0.1-1.6,0.1c-0.3,0.1-0.6,0.1-0.8,0.1c-0.1,0-0.2,0-0.3,0s-0.1,0-0.1,0l0,0c0,0,0.1,0,0,0l0,0
				c0,0,0,0-0.1,0h1.4c-0.2,0.1-0.8,0.3-1.3,0.4l0,0l0,0l0,0l0,0l0,0h0.1l0,0h-0.3h-0.1c-0.1,0-0.1,0.1-0.1,0.1
				c-0.1,0.1-0.2,0.1-0.3,0.1c-0.1,0.1-0.3,0.1-0.3,0.1c-0.5-0.1-1.3,0.1-1.6,0.1l1-0.4c0,0,0.1,0,0.2,0.1c0.1,0,0.2,0.1,0.2,0.1
				l0.5-0.4c-0.7,0-2.1,0.1-2.5,0c0.7-0.1,1.7-0.4,2.9-0.7c0.6-0.1,1.2-0.3,1.9-0.4c0.7-0.1,1.4-0.3,2.2-0.4c0,0-0.1,0.1-0.2,0.1
				c0.4,0,0.7,0,0.9,0c0.2,0,0.4,0,0.6,0.1C236.7,167.8,237.1,167.8,237.7,167.9L237.7,167.9L237.7,167.9z M245.5,169.7
				c-0.2-0.1-0.4-0.1-0.7-0.2c0.2,0.2,0.5,0.5,1,0.7c0.6-0.1,1.2,0.1,1.7,0.2c0.6,0.1,1.1,0.4,1.8,0.5c0,0,0.2,0,0.4,0
				c0.2,0,0.4,0,0.4,0c-0.1-0.1-0.2-0.2-0.2-0.2c-1.3,0-1.6-0.2-1.9-0.4C247.6,169.9,247.2,169.7,245.5,169.7L245.5,169.7
				L245.5,169.7z M167.6,168.9c1,0.3,1-0.4,1.9,0.1c0.1-0.1-0.1-0.3-0.4-0.4c0.1,0,0.2-0.1,0.2-0.1c0.4,0.1,0.7,0.1,1,0.2
				c0.3,0.1,0.5,0.1,0.4,0.2c-0.1,0.3-1.4,0.1-1.8,0.3C168.8,169.3,167.3,169,167.6,168.9L167.6,168.9L167.6,168.9z M162.8,167.5
				c0.2,0,0.4,0,0.6,0.1l-0.2,0.2C162.9,167.7,162.8,167.6,162.8,167.5z M160.7,167.4c0.2,0,0.4,0,0.7,0c-0.1,0-0.1,0-0.1,0
				C161,167.5,160.8,167.4,160.7,167.4L160.7,167.4z M179.1,169.8c0.1,0,0.1,0,0.2,0.1L179.1,169.8z M178.4,169.9c0.3,0,0.7,0,1,0.1
				c-0.1,0.1,0.1,0.3-0.9,0.1C178.5,170,178.5,170,178.4,169.9L178.4,169.9z M177.3,168.7c0.5,0.1,1,0,1.2,0.1
				c0,0.1-2.7,0.6-3.6,0.7c-1-0.1-2.1-0.3-2.7-0.5h0.3c2.4,0.4,3.1,0.4,2.8,0.1s-1.4-0.7-2.8-1.3
				C174.1,168.2,175.7,168.6,177.3,168.7L177.3,168.7L177.3,168.7z M73.2,172c-0.1,0.1-0.1,0.1-0.1,0.1C73.2,172,73.1,172,73.2,172z
				 M154.2,168.6l0.4-0.1h-0.2c0.1-0.3,1-0.7,2.3-0.7c-0.1,0-0.7,0-1.6,0.1l0.3-0.1c1.4-0.1,2.7-0.1,3.9-0.1
				c-0.4,0.1-0.9,0.2-1.4,0.2c1.3,0.2,3.3-0.4,4,0c-1,0.1-1.7,0.3-2.5,0.4s-1.5,0.1-2.5,0.3c-1.1-0.2,1.3-0.3,1.3-0.5H157
				c0.1,0.1-2.3,0.3-1.6,0.7c2.6-0.1,5.2-0.4,7.4-0.2c0,0-0.1,0.1-0.4,0.4s-0.4,0.5-0.7,0.7c-0.2,0.3-0.4,0.6-0.6,0.7
				c-0.1,0.2-0.3,0.4-0.3,0.4s0,0.1-0.1,0.1c0.3,0,0.5-0.1,0.7-0.1s0.3-0.1,0.4-0.1c0.1-0.1,0.2-0.2,0.3-0.3
				c0.1-0.2-0.1-0.4,0.1-0.5c0.4,0,0.8-0.2,1.3,0l-0.2,0.1c0.7,0,0.7-0.1,0.8-0.1s0.1-0.1,0.7,0c1-0.1-0.8-0.1-0.2-0.2
				c0.6,0.1,0.8-0.1,1.1-0.1c0.3-0.1,0.7-0.1,1.6,0.1c-0.1,0.1,0.1,0.4-1,0.3c0,0,0.3,0.1,0.5,0.1c0.3,0.1,0.5,0.2,0.5,0.2
				c-1.3-0.1-0.5,0-1.9-0.1c-0.7,0.2-0.5,0.4-1.1,0.7c0.5-0.1,0.4-0.3,1.2-0.2c0.9,0.1-0.1,0.1-0.2,0.2c1.3-0.2,1.3,0.4,2.4,0.3
				c-0.1-0.4,0.1-0.4-0.7-0.7c0.8,0,1.8,0.4,1.6,0.7l0.2-0.3c0.1,0.1,0.8,0.2,0.8,0.3l0.3-0.1c-0.5-0.3-1-0.5-2-0.5
				c0.4-0.1-0.4-0.6,0.8-0.4c0.6,0.1,0.1,0.1,0.1,0.3c3,0.3,2.8,1,5.2,1.2c-0.6,0-2-0.4-3.1-0.4c0.6,0.4,1.5,0.1,2.1,0.3
				c-0.6,0-0.7,0.1-0.1,0.4l0.3-0.1c0.4,0.1,1.2,0.1,1.2,0.3c0-0.1-0.1-0.1-0.5-0.2c1.1-0.1,3.1,0.1,5,0.4c-0.1,0.1-0.8,0.1-1.3,0.1
				s-0.8,0-0.1,0.2c0.8,0,1.5-0.3,2.8,0c-0.6,0.1,0.6,0.3,0.6,0.4c0,0,0.5-0.1,1-0.2c0.1,0,0.2-0.1,0.4-0.1h0.1l0,0l0,0l0,0h0.1
				c0.1,0,0.1,0,0.1,0c0.1-0.1,0.3-0.1,0.3-0.1c0.9,0.1,1.9,0.1,2.7-0.1c-0.3,0.1-0.6,0.1-1,0c1.3-0.4,2.3,0.1,3.9-0.1l-0.7,0.1
				c1.2,0.1,2.2-0.1,3.1-0.2v0.3c0.1-0.4,2.2-0.4,2.6-0.6c-2.9,0.2-2.5-0.3-5.3,0c1-0.4,1.8-0.4,3-0.8c0.4,0,0.6,0.1,0.7,0.1
				c0.4-0.1,0.4-0.4,1.2-0.4l0.2,0.1c1.9,0.1,1.7-0.6,3.6-0.5c0.4,0.4-1.6,0.4-2.8,0.7c0.9,0.3-1.9,0.1-0.8,0.6l0.5-0.2
				c0.6,0,0.5,0.2,0.1,0.2c0.7-0.1,0.6,0,0.9-0.1c2.9-0.1-0.3,0.4,2.5,0.6c-0.3,0.1-1.1,0.1-1,0.3l-1.6-0.1v0.3c1.9,0,3.1-0.3,4-0.7
				c-1.8,0.3-0.2-0.3-1.1-0.4c0.4-0.1,0.7-0.1,0.9,0c0.1-0.1,1-0.1,0.9-0.3c0.4,0.7,4.3,0.7,3.4,1.3c0.5,0.1,1.6,0.1,2.9,0
				c0.7-0.1,1.3-0.1,1.9-0.1h0.2l0,0l0,0c0.1,0-0.1,0-0.1,0h0.1h0.1c0.1,0,0.3,0,0.5,0c0.3,0,0.7,0,0.9,0l-0.7,0.1
				c0.7,0.1,1,0.2,1.3,0.2s0.5-0.1,0.7-0.1c0.4-0.1,0.7-0.4,1.4-0.4c-1.3,0.1,1,0.4,1.6,0.7c0.6-0.1,1.1-0.1,1.7-0.1
				c0.6-0.1,1.3-0.1,2.2-0.1c0.4,0.3,0.4,0.7,1.6,0.7l0.7-0.3l0,0l0,0h0.1h0.1h0.1c0.1,0,0.1,0,0.2,0s0.3-0.1,0.4-0.1
				c0.3-0.1,0.5-0.1,0.8-0.1c0.6-0.1,1.2-0.2,1.5-0.2l-0.1,0.1c1.2-0.1,1.1-0.5,0.2-0.4l1-0.4l0.1,0.1c1.4-0.5,2.5-1.3,4.7-1.8
				c-0.5,0.4,1.7,0.1-0.1,0.6c0.5-0.2-0.4-0.1-0.5-0.3c-0.7,0.1-1.3,0.5-1.6,0.7c0.3,0.1,0.1,0.5-0.1,0.8c0.7-0.4,2-0.7,3.1-1
				c0.3-0.1,0.6-0.1,0.8-0.2c0.1,0,0.2-0.1,0.4-0.1c0.1,0,0.1,0,0.1-0.1l0,0l0,0c0.1,0-0.1,0-0.1,0l0,0l0,0h0.1
				c0.4-0.1,0.7-0.3,0.8-0.4c0.2,0,0.4-0.1,0.7-0.1c0.3,0,0.4,0,0.7,0c0.2,0,0.4,0,0.7,0c0.2,0,0.5,0,0.7,0c0.5,0,1,0.1,1.6,0.1
				c0.5,0.1,1,0.1,1.5,0.2c-0.1-0.1-0.2-0.1-0.1-0.1c0,0,0.4,0.1,0.8,0.3c0.4,0.1,0.8,0.3,0.8,0.3h-0.4c0,0,0.3,0.1,0.5,0.2
				c0.3,0.1,0.5,0.2,0.5,0.2c0.1,0.1-0.4,0.1-0.8,0.1c-0.3,0-0.5-0.1-0.2-0.1c-1.3,0,1,0.3,0.1,0.4c-0.3-0.1-0.7-0.1-0.9-0.1
				c0.7,0.2,1.2,0.2,1.6,0.2c0.4,0.1,0.8,0.1,1.2,0.4c0.7-0.1,2.1-0.1,3.4,0.4c-0.5,0.1,1.4,0.2,0.7,0.4c0.5-0.1,1.7,0.4,1.9,0.2
				c-0.2,0.1-0.8-0.1-1.2-0.2c0.6,0,0.7-0.1,1.3,0c0.1,0.1,0,0.1,0,0.1c0.9,0,0.4-0.6,1.9-0.4c2.1,0.1,1.9,0.3,1.3,0.4
				c-0.3,0.1-0.7,0.1-1,0.2c-0.3,0.1-0.5,0.1-0.4,0.1c0.1-0.1,0.6-0.1,1.2-0.1c0.3,0,0.6,0.1,0.9,0.1s0.6,0.1,0.7,0.1l-0.2,0.1
				c0.4-0.1,1.1-0.1,1.6,0.1c0.3-0.3,0.8-0.5,1-0.7c0,0,0.1,0,0.3,0c0.1,0,0.4,0,0.7-0.1c0.4-0.1,1-0.1,1-0.1l-0.4,0.1
				c0.2-0.1,0.4-0.1,0.6-0.1c0.2,0,0.4-0.1,0.6-0.1c0.1,0.1,0,0.1-0.1,0.1s-0.2,0.1-0.3,0.1s-0.1,0-0.3,0.1c-0.1,0-0.1,0-0.2,0.1
				c0.1,0.1,0.1,0.1,0.3,0.1c0.1,0,0.1,0,0.1,0l0,0h0.1h0.1c0.1,0,0.4-0.1,0.5-0.2h-0.2c0.2-0.1,0.7-0.2,1-0.4s0.4-0.2-0.3-0.1
				c1-0.4,1.4-0.1,2.1-0.3c0.1,0.1-0.5,0.3-0.1,0.4c0.7-0.1,1.1-0.2,1.6-0.4c-0.5,0.1,0.1-0.1-0.7-0.1c0.3-0.1,1.1-0.4,1-0.4
				c-0.2,0.1-0.4,0.2-0.9,0.2c0.9-0.3,1.8-0.5,2.7-0.6c0,0.1-0.1,0.1-0.2,0.1c0.5-0.3,1.3-0.5,1.9-0.7c0.7-0.2,1.3-0.4,1.6-0.6H266
				c-0.2,0.1-0.8,0.2-1,0.2c0.8-0.2-0.7-0.1,0.2-0.5c0.6-0.1,1.2-0.2,1.7-0.3c0.3,0,0.5-0.1,0.7-0.1c0.1,0,0.1,0,0.1-0.1
				c0.1,0,0.1,0,0.1-0.1s0.1-0.1,0.3-0.1c-0.6,0.1-1.3,0.1-1.9,0.1c-0.6,0.1-1.1,0.1-1.3,0.3l0.7-0.1c0,0-0.4,0.2-0.8,0.4
				s-0.8,0.4-0.8,0.4c-0.1-0.1-1.5,0.4-1.6,0.2c0.6-0.2,1.1-0.3,1.6-0.4c-0.1-0.1-1.6,0.3-2.3,0.4l0.8-0.1c-0.7,0.3-1.5,0.5-2.3,0.7
				c-0.4,0.1-0.8,0.2-1.2,0.3s-0.8,0.2-1.2,0.3c0.6-0.2,0.2-0.2-0.2-0.1c-0.4,0-0.8,0-0.4-0.1c0.4-0.2,1-0.1,0.8-0.1
				c0.1-0.2-0.9,0.1-1.2,0c-0.1,0.1-0.4,0.2-0.7,0.3c-0.1,0-0.1,0.1-0.1,0.1c-0.1,0-0.1,0.1-0.1,0.1s0,0.1,0.1,0.1c0,0,0,0,0.1,0
				c0,0,0,0,0.1,0s0.1,0,0.1,0c-0.3,0-0.7,0-1,0.1c-0.4,0.1-0.8,0.1-1.2,0c0.2,0.3-1.3,0.1-1.5,0.3c-0.3,0-0.5-0.1-0.7-0.1
				c0.3,0,0.7-0.1,1-0.1c0.4-0.1,0.7-0.1,1.1-0.1l0,0c0.3,0.1,0.9,0,0.7-0.1V172c0.4-0.1,0.7-0.1,1.1-0.3c0.4-0.1,0.7-0.2,1-0.3
				c0.7-0.1,1.2-0.4,1.6-0.5l-0.4,0.2c0.3-0.1,0.5-0.2,0.8-0.3s0.6-0.1,0.8-0.2c0.6-0.1,1.1-0.2,1.7-0.5c0,0.1-0.1,0.1,0.1,0.1
				c1.4-0.3,1.9-0.9,3.1-1l-0.1,0.1c0.1-0.1,0.7-0.3,0.6-0.4c-1,0.2-1.1,0.4-2,0.5c0.3-0.2,1-0.5,1.6-0.7v-0.3
				c0.7-0.4,1.5-0.1,2.2-0.5c0,0-0.2,0-0.4,0c-0.2,0-0.4,0-0.4,0l0.1-0.1c-0.4,0.1-0.7,0.2-0.8,0.3c-0.7,0.2-1.2,0.2-1.6,0.2
				s-0.6-0.1-0.7-0.1c-0.6,0.1,0.1-0.4,0-0.5c-1,0.3-0.8,0.6-1.8,0.9c-0.3,0-0.1-0.1,0-0.1l-0.7,0.3c-0.1-0.1-1.6,0.2-0.7-0.1
				c0.1,0,0.4-0.1,0.6-0.1c-0.4,0.1-0.7,0.1-1.1,0.1s-0.8,0.1-1.1,0.1c-0.7,0-1.2,0-1.2-0.1c-0.4,0-0.5,0.1-0.7,0.1
				c-0.1,0-0.2,0.1-0.4,0.1c-0.1,0-0.1,0-0.3,0h-0.1l0,0l0,0c-0.1,0,0.1,0,0.1,0l0,0h-0.1c-0.1,0-0.1,0-0.1,0
				c-0.4,0.2,0.1,0.4-1.1,0.7l1,0.1c0.1,0,0.1-0.1,0.3-0.1c0.1,0,0.1,0,0.1-0.1h0.1l0,0l0,0c0.1,0-0.1,0-0.1,0l0,0l0,0l0,0l0,0h0.1
				c0,0,0,0-0.1,0l0,0l0,0l0,0h0.1l0,0l0,0h-0.1c-0.1,0-0.2,0-0.3,0c-0.2,0-0.5,0.1-0.5,0.1c0.6-0.1,0.5-0.2,0.7-0.4
				c0.1,0,0.1,0,0.1,0h0.1l0,0c0,0,0.1,0-0.1,0l0,0l0,0l0,0c0.1,0,0.1,0,0.3,0c0.2,0,0.3,0,0.4,0c0.3,0,0.5,0,0.7,0.1
				c0.4,0,0.7,0.1,1,0.1c-0.4,0.2-1.2,0.4-0.9,0.5c-0.4-0.1-0.6,0-0.9,0.1c-0.1,0.1-0.2,0.1-0.4,0.1c-0.1,0-0.1,0-0.2,0h-0.1
				c0,0-0.1,0,0.1,0l0,0l0,0l0,0h-0.1c-0.1,0-0.1,0-0.1,0l0.1-0.1c-0.7,0.2-0.8,0-1.4,0.2c0.1-0.1-0.1-0.1-0.1-0.1
				c-1.3,0.1,0.4,0.1-0.9,0.4c-1.2-0.1-0.4-0.4-0.7-0.6c1-0.1,1-0.3,1-0.4c0-0.1,0-0.1,0.1-0.1s0.4-0.1,0.9-0.2
				c0-0.1-0.2-0.2-0.5-0.3s-0.8-0.1-1.3,0c0.7,0.1-0.4,0.5,0.4,0.7c-0.4,0.1-0.7,0.1-1,0.1c-0.2,0.1-0.4,0.1-0.7,0.2
				c-0.4,0.1-0.9,0.1-1.8-0.1l0.1-0.1c0,0-0.2,0.1-0.4,0.1c-0.2,0.1-0.4,0.1-0.4,0.1l-1-0.3c0.7-0.3,1.6,0.1,2.1-0.1
				c-1.3-0.5-1.8,0.1-3.4-0.1c-1.2-0.7,1.6,0.1,1.6-0.3c-0.3,0.1-1.1-0.3-1-0.4c1.4,0.4,0.9-0.1,2.5,0.4c-0.7,0,0.1,0.1-0.1,0.3
				c0.2-0.1,1.7,0,2.7,0.1c0.2-0.2-0.9-0.2-1.5-0.4c-0.6,0.1-1.3-0.1-1.9-0.1c-0.6-0.1-1.1-0.3-1.6-0.2c-1.3-0.2-0.1-0.3-0.1-0.3
				c-1.2-0.3-0.6,0.1-1,0.1c-1.9-0.1-2-0.7-3.4-1c-1.2,0.1-4-0.6-6.1-0.8c0.3-0.1,0-0.2-0.1-0.4c-0.7,0.1-0.9,0.2-1.1,0.3
				c-0.2,0-0.5,0-1.3,0.1c0,0,0.3,0.1,0.7,0.1c0.1,0,0.3,0.1,0.4,0.1s0.2,0.1,0.2,0.1c-0.5,0-1,0.1-1.5,0.1c-0.2,0-0.4,0-0.7,0
				c-0.2,0-0.5,0-0.7-0.1c0.7,0.2,0.2,0.3-0.4,0.4c-0.1,0-0.4,0-0.6,0.1c-0.1,0-0.4,0.1-0.5,0.1c-0.4,0.1-0.7,0.1-0.8,0.1h-0.1l0,0
				h-0.1l0,0l0,0h0.3h-0.2c-0.1,0-0.3,0.1-0.4,0.1c-0.2,0.1-0.5,0.1-0.7,0.1c-0.4,0.1-0.8,0.2-1.1,0.1l0.1-0.1c0,0-0.4,0.1-0.7,0.1
				c-0.4,0.1-0.7,0.1-0.7,0.1l0.1-0.4c-1,0.1-2.2,0.7-1.8,0.7c-1,0.1-0.4-0.1-0.7-0.2c0.5-0.3,1.7-1,2.2-0.7c-0.1,0-0.3,0-0.4,0.1
				c1.4-0.2,1.6-0.4,1.6-0.6c0-0.1-0.1-0.4,0.5-0.5c-0.4,0.1-0.7,0.1-1,0.1c-0.3,0.1-0.7,0.1-1,0.2c-0.4,0.1-1.7,0.6-2.4,0.9
				c0.9-0.4,1.4-0.4,2.2-0.4c-0.7,0.1-0.7,0.4-1.3,0.4l0.1-0.1l-0.7,0.3c-0.1-0.2-1.9,0.4-0.9-0.1c-0.9,0.3-0.2,0.3-1,0.6
				c0,0,0.4-0.1,0.8-0.1c0.4-0.1,0.8-0.1,0.8-0.1v0.3c-0.6,0.3-0.7,0.1-1.4,0.3l0.1,0.3c0,0-0.3,0-0.6,0c-0.3,0-0.6,0-0.6,0
				c0.1,0.1-0.1,0.1-0.3,0.2c-0.1,0-0.2,0.1-0.4,0.1c-0.2,0-0.2,0-0.3,0.1c-0.4,0-0.4-0.1-0.6-0.2c-0.1-0.1-0.1-0.1-0.3-0.1
				c-0.1,0-0.1,0-0.2,0.1l0,0l0,0l0,0c0.1,0,0.1,0,0.1,0l0,0l0,0l0,0h-0.1c-0.1,0-0.1,0-0.1,0.1h0.1c-0.6,0.1-0.9,0.2-1.8,0.1
				c0.1-0.1,0.3-0.1,0.4-0.1c-0.3-0.1-0.7-0.1-1-0.1c-0.4,0-0.7,0-1.1,0c-0.7,0-1.4-0.1-1.7-0.4c0.1-0.2,0.7,0,0.7-0.3
				c1,0.3,1.3,0.1,1.7,0.1s0.8-0.2,1.9-0.1c0.1,0.3,0.5,0.2,1,0.1l0.1-0.1l0,0l0,0c-0.2,0-0.1,0-0.1,0l0,0l0,0h0.1h0.1
				c0.1,0,0.3-0.1,0.4-0.1c0.2,0,0.4,0,0.6,0.1c-0.2,0-0.5,0.1-0.7,0.1c-0.1,0-0.2,0.1-0.4,0.1l0,0l0,0l0,0h0.1l0,0h-0.1
				c-0.1,0-0.1,0-0.1,0.1c-0.4,0.1-0.6,0.2-0.5,0.2c0.2,0,0.4,0,0.6-0.1h0.1h0.1l0,0c-0.1,0-0.1,0-0.1,0h0.2c0.1,0,0.2,0,0.4-0.1
				c0.2,0,0.5-0.1,0.7-0.1s0.4-0.1,0.5-0.1c-0.5-0.1-0.4-0.4-0.1-0.7c-0.1,0.1-0.3,0.1-0.5,0.1s-0.4,0.1-0.7,0.1c-0.1,0-0.2,0-0.4,0
				h-0.2l0,0l0,0l0,0c0.2,0,0.1,0,0.1,0h-0.1h-0.1c-0.2,0-0.4,0-0.7,0c-0.9-0.1-1.9-0.2-2.8-0.3l0.1,0.4c-1.6,0.1,0.2-0.3-1-0.4
				l-0.6,0.2l-0.1-0.1c0,0-0.1,0-0.1,0.1c-0.1,0-0.2,0.1-0.4,0.1c-0.2,0.1-0.5,0.1-0.5,0.1c0.7,0.1,0.4-0.2,1.2,0
				c0.7,0.2-0.1,0.3-0.3,0.4c-0.4-0.1-2.2-0.3-1-0.4l-1.9,0.1c0-0.1,0.4-0.1,0.7-0.2c0,0-0.4,0-0.7-0.1c-0.4,0-0.7,0-0.7,0l0.1-0.1
				c-0.3,0-0.7,0-1,0s-0.6,0-1,0.1c-0.1,0-0.3,0-0.4,0h-0.1l0,0l0,0H208l0,0h-0.1c-0.1,0-0.1,0-0.2,0c-0.3,0.1-0.5,0.1-0.7,0.1
				c1.9,0.3-0.9,0.3-0.7,0.5c-0.7,0-0.9-0.7,0.5-0.9c0.2,0.1,0.5,0.1,0.9,0.1h0.1h0.1l0,0l0,0h0.1h0.3c0.2,0,0.4,0,0.6,0
				c-0.2-0.1-0.4-0.1-0.6-0.1c-0.1,0-0.1,0-0.2,0H208h-0.1h-0.1c-0.3,0-0.5,0.1-0.9,0.1c0.5-0.1-1-0.2-1-0.4
				c0.1-0.1,0.4-0.4,1.3-0.3c1.3,0,0.1,0.3,0.5,0.3l0.1,0.1l0,0l0,0l0,0h0.1l0,0l0,0l0,0h0.1c0.1,0,0.1,0.1,0.3,0.1
				c0.2,0,0.4,0,0.7,0c0.1,0,0.3,0,0.4,0s0.3,0,0.4,0c0.3,0,0.6,0,0.8,0.1c0.1,0.1-0.2,0.1-0.4,0.1c0.4,0,1,0.1,1.5,0.1s0.9,0,1-0.1
				h-1.9c-0.4-0.1,0.7-0.1,0-0.4c-0.4,0-1,0-1.6-0.1l0.1-0.1c-0.3-0.1-0.6-0.1-0.9-0.1c-0.1,0-0.3,0-0.5-0.1h-0.1h-0.2h-0.1h-0.3
				c-0.7,0-1.4,0.1-2.1,0.1c-0.3,0.5-1,0.8-1.5,1.4c-1.9,0-3.8,0-5.8-0.1c0.4-0.2,1.7-0.4,3.1-0.3l-0.6,0.1c1.1,0.1,1.5-0.1,2-0.2
				c-0.1,0.1,0,0.1,0.2,0.1c1-0.1,1.5-0.4,1-0.5l-0.3,0.1l-0.7-0.2c-0.3,0.5-2.2,0.2-3.4,0.4c0.7-0.2,1.4-0.7,2.4-0.4l-0.1-0.2
				c0.8-0.1,1.5,0.2,2,0l-1,0.1v-0.1c-0.7,0-1.6,0.2-2.2,0.1c-0.6,0.1-1.1,0.4-2.6,0.4l0.1-0.1c-1,0.4-2.8-0.3-3.7-0.1
				c-0.4,0.4,1.6,0.2,2.2,0.4c-0.7,0.1-1.3-0.1-0.7,0.2c-1.5,0.2-0.9-0.4-2.1-0.1l0.7,0.1c-0.5,0.2-1.5,0.1-2,0.3
				c-0.1,0.3,1,0,2,0.1l-0.4,0.2l2.1-0.3c0.6-0.4,0.1-0.4,1.3-0.7c0.7,0.2,1,0.7,0.7,1c-0.6-0.1-1.6,0-1.6-0.3
				c-0.6,0.3-2.3,0.4-2,0.7c-0.1,0-0.1,0-0.2,0c-0.7-0.3-1.8-0.5-3.7-0.6c-0.4,0-0.4,0.1-0.4,0.4c-0.4-0.1-0.8-0.1-1.2-0.1
				c0.3-0.1,0.5-0.3,1-0.3l-3.1-0.1l0.2-0.1l-1.2,0.1c0.7-0.1,1.7,0,1.5,0.3c-1.3,0.2-2.1-0.1-3.3,0.3c0-0.5-0.4-0.6,0-0.8
				c0.1,0,0.1,0,0.1,0c0.4-0.3,1.3-0.5,2.1-0.6c-2.5-0.1-1.9,0-4.1-0.1c-0.1-0.3,2-0.3,1.5-0.5l2.1,0.1c-0.4,0-0.4,0.1-0.6,0.1
				c1.4-0.2,1.9,0.1,3-0.3c0.7,0.1-1,0.2-0.3,0.3c-0.6,0.1-1.3,0.4-1.6,0.6c1.6,0.1,0.9-0.4,2.3-0.4l1,0.2c0.6-0.1-0.2-0.1-0.2-0.2
				c0.7-0.1,1,0.1,1.6,0.1c-0.1-0.1-0.5-0.1-0.4-0.2c1,0.2,1.9,0.1,2.8,0.4c-0.5-0.2,0.6-0.5,1-0.5l-1.8-0.4
				c-2.3,0.1-3.7-0.1-6.3,0.1l0.1-0.1c-1.9-0.2-2.8-0.1-3.5,0.2c-0.4,0.1-0.7,0.3-1.2,0.4c-0.4,0.1-1,0.1-1.7,0.1
				c-0.1-0.4-1.4-0.1-1.3-0.4c1,0.1,0.7-0.1,0.5-0.2c-0.5,0.1-1,0.3-2,0.1c0.4-0.1-0.5-0.4,0.5-0.4c-0.7-0.1-1.3-0.2-1.7-0.2
				s-0.9,0-1.3,0.1c-1.2-0.1-1.4-0.1-1.6-0.3c-0.1-0.1-0.3-0.3-1.6-0.4l0.4-0.1l-1.6-0.2l0.4,0.3l-1.9-0.1c-1.2,0,0.4,0.3,0.2,0.4
				l0.4-0.2c0.7,0.2,1.9,0.1,1.9,0.4c-1.2-0.1-1,0.1-1.5,0.1l1.2,0.1l0.4,0.3c1.1,0.2,2,0.4,2.7,0.3c-0.4-0.1-0.8,0.1-1.2-0.1
				c0.6-0.2,2,0,3.3,0c0,0.1,0.4,0.1,0.2,0.2c0,0-0.3,0-0.4-0.1c0.1,0.1-0.7,0.1,0.5,0.4c-0.4,0.1-1.5,0.4-1.4,0.5
				c-0.7-0.1-1.8-0.2-2.4-0.4l0.1-0.1c-0.6-0.1-2.1-0.1-2.2-0.4c-0.4,0-1.6-0.1-0.4,0.2c0,0-0.4-0.1-1-0.1c-0.4-0.1-1-0.1-1-0.1
				c0.4-0.4-1.4-0.7,0.5-0.8c-0.1,0-0.7-0.1-1.9-0.1c0,0,0,0,0.1-0.1c0.1,0,0.1,0,0.1-0.1c0.2,0.1,0.4,0.1,0.4,0.1
				c0.7-0.2-0.2-0.4-1.3-0.6l-0.3,0.2c-0.4-0.1-0.8-0.2-1.2-0.4c-0.4-0.1-0.9-0.1-1.5-0.1c0,0-0.7,0.2-1.5,0.4
				c-0.7,0.2-1.6,0.5-1.6,0.5c-0.3,0-0.5,0.1-0.8,0.1c-0.1,0-0.2-0.1-0.4-0.1c-0.1,0-0.1,0-0.2,0c-0.1,0-0.1,0-0.1,0l0,0h-0.1H158
				c-0.3,0-0.4,0-0.2-0.2c-0.1-0.1,0-0.1,0.1-0.1s0.1,0,0.1,0s0.1,0,0.2,0c0.1,0,0.2,0,0.4,0c0.1,0-0.1,0.1,0.1,0.1
				c0.1-0.1,0.2-0.4-0.4-0.5c0.7,0,0.7,0,1.2-0.1h-0.7c0.2,0,0.5-0.1,0.8-0.1c0.3-0.1,0.7-0.1,1-0.1c0.6-0.1,1-0.3,1-0.4
				c-0.3,0.3-1.1,0-1.7-0.1c0.4-0.1,1.5-0.2,0.7-0.3c-0.1,0-0.2,0.1-0.4,0.1c-0.2,0.1-0.4,0.1-0.6,0.1c-0.3,0.1-0.4,0.1,0.2,0.2
				c-0.3,0.1-0.6,0.1-0.9,0.2c-0.1,0-0.3,0.1-0.5,0.1c-0.1,0-0.2,0-0.4,0c-0.1,0-0.1,0-0.2,0c0.1-0.1,0.3-0.1,0.4-0.1l0,0l0,0l0,0
				l0,0l0,0h0.1l0,0l0,0c0,0,0,0,0-0.1s-0.1-0.1,0-0.2l0,0l0,0l0,0l0,0h-0.1l0,0h-0.1c0,0-0.1,0-0.1,0.1c-0.1,0-0.1,0.1-0.1,0.1
				c-0.1,0.1-0.1,0.1-0.1,0.1c-0.1,0.1-0.1,0.1-0.1,0.2c-1.9-0.1-2.7-0.6-4.7-0.1c-0.3,0.1,1.3-0.2,1,0c-1.5,0.5-2-0.2-3.3,0.1
				l0.4,0.3c-0.4,0.1-1.3,0.2-1.9,0.3c-0.1-0.1-1.6-0.2-0.5-0.4c-2.2,0-1.9,0.9-4.5,1c1.2,0,1.3-0.1,2.2-0.1c-1,0.3-0.1,0.1-0.2,0.4
				c-0.6-0.1-2.5,0.2-1.3-0.1c-0.8,0.1-2.4,0.2-2.8,0.4l0.7,0.1c-1.1,0.1-2.2,0.4-2.7,0.7c1.4-0.1,1.3-0.6,3.1-0.7
				c2,0.1-0.4,0.3,0.9,0.5l1.3-0.4h-0.7c0.1-0.4,2.2-0.1,1.9-0.6c1.4,0.1,1.9-0.1,3.4,0.1c0.4-0.1-0.2-0.1-0.7-0.1
				c0.8-0.1,0.8-0.4,1.9-0.3c0.5,0,0.1-0.3-0.8-0.2c0.8-0.1,1.6-0.2,2.5-0.2L152,166l0.9-0.1l-0.8-0.1c1.8-0.2,3.8-0.4,4.8-0.1
				c-1.5,0.4-4.1,0.5-4.9,1c0.4,0.1,1.2-0.4,1.7-0.1l0.4-0.3c0.5-0.1,1.8-0.4,1.9-0.1c-1.5,0.3-1.9,0.6-2.5,0.8
				c0,0.1-0.1,0.1-0.4,0.1l0,0l0,0c-0.4,0.1-1.2,0.1-1.6,0.2c-0.5,0-0.1-0.1-0.1-0.2c-1.8-0.1-3,0.8-4.9,0.7c-0.1-0.2-1.5-0.1-1-0.3
				c-1.1,0.1-1.6,0.4-2.4,0.6c-0.1-0.1-1.6,0.1-1.1-0.1l-1,0.4c-0.7-0.1-2.1,0.2-2.4,0.1c-0.7,0.1-0.1,0.4-1.3,0.4
				c0.1-0.1-0.1-0.1,0.1-0.1c-0.4-0.1-1.6,0.1-2.1,0.2c0.7,0,0.1,0.1,1,0c0,0.1-1,0.4-2,0.4c1.3-0.4-1.1-0.2-0.4-0.4
				c-2.2,0.1-3.4,0.7-5.2,1.2c-2.1,0.1-4.8,0.2-6.4,0.6h0.2l-1,0.2c-0.6,0,0-0.4-0.9-0.2c0.3-0.3,1.6-0.1,2.5-0.4
				c-1.6-0.2,1.4-0.4,0.4-0.6c-0.6,0.7-3.3,0.2-4.6,0.7c-1.3,0,0.6-0.3-0.1-0.3l-0.4,0.2c-0.5,0-0.7-0.1-0.7-0.2
				c-1.4-0.1-3,0.1-4.2,0.4c1.5-0.1-0.5,0.3,1,0.3c-0.4,0.1-1.4,0.2-2.4,0.2c0.9-0.1-1.2-0.4,0.8-0.4c-0.3-0.3-1,0.1-1.9,0.1
				c0.4-0.1,1.4-0.3,1.3-0.4c-0.3,0.1-0.7,0.1-1.3,0.1c-0.1,0-0.2,0-0.3,0s-0.2,0-0.4,0s-0.5,0-0.7,0c-1-0.1-1.9-0.1-2.2,0.1
				c-1,0.3-2.5,0.5-3.7,0.9c-1.2-0.1-2.5,0.1-3.8,0.1l0.2-0.1c-0.7,0-1.9,0.1-3,0.2l-0.2-0.2c-0.7,0.1-2.2,0.2-3.3,0.3
				c0,0.1,1,0.1,0.5,0.2c0.6,0,1-0.1,0.8-0.2c0.6,0,0.6,0.1,1,0.3l-2.2,0.3c-0.1,0-0.2,0-0.2-0.1l-0.1,0.2c-0.6,0-0.7,0-0.7-0.1
				c-0.6,0.1-1,0.2-1.5,0.3c-0.4,0.1-0.9,0.1-1.5,0.1c0.5-0.2,0.9-0.4,1.9-0.4l-1.5,0.1c0.4-0.1,1.2-0.2,1.9-0.3s1.2-0.2,1-0.4
				c-0.8,0.1-1.9,0.2-2.8,0.4c-1,0.1-1.9,0.3-2.7,0.4c-0.4-0.1-0.9-0.1-1.4-0.1c-0.1,0-0.1,0-0.2,0h-0.1l0,0c0.1,0,0,0,0,0l0,0l0,0
				h-0.1c-0.1,0-0.3,0-0.4,0c-0.3,0-0.6,0-0.9-0.1c-0.1-0.1-0.5-0.1-0.3-0.3h0.4c-0.8-0.1-1.7,0-2.6,0c-0.9,0.1-1.7,0.1-2.5,0.2
				l-0.7-0.3c-2.5-0.2,0.4,0.5-2.2,0.4c-0.6-0.3-3.2-0.3-3.3-0.5c-0.5,0-0.7,0-0.8,0.1c0.4,0.1,1.4,0,0.9,0.2
				c-0.9,0.1-1.3-0.1-2-0.1c0.1-0.1,0.6-0.1,0.3-0.1c-1.8,0-5-0.1-6.7,0.4c0.6,0,0.7-0.2,1.5-0.1c0,0.1-0.4,0.1-0.7,0.1
				c0.1,0.2,0.9-0.1,1.7,0.1l-1.5,0.3l0.8,0.2l-3.4,0.6c2.8,0.2,4-0.7,6.2-0.3c-0.4,0.1,0,0.1,0.1,0.2c0.7-0.1,1.6-0.1,2-0.2
				l1.1,0.1c0,0.1-0.4,0.4-1.6,0.4c2,0.1,3.8,0,5.6,0c1.8-0.1,3.6-0.1,5.6,0.1c0.1,0.1-0.5,0.1-0.2,0.1c0.5-0.1,1.4-0.1,1.4-0.2
				c-0.1,0.1-0.1,0.1-0.5,0.1c1-0.1,1.9,0.1,2.5,0.1c0.7,0.1,1.3,0.1,2,0c0.1,0.1-1,0.1-0.8,0.2c2.1,0.1,3.1-0.4,5.2-0.5
				c-0.7,0.3,0.4,0.2,1,0.3c1.7-0.3,5.4-0.6,7.9-1c-0.7,0.6,2.9-0.1,3.1,0.3c0.6-0.1,1.5-0.1,1.5-0.3c-0.3,0.1-1.1,0-1-0.1
				c0.8-0.1,2.1-0.1,2.2-0.4l1,0.2c0.1-0.1,0.4-0.4,1-0.4c1.3,0.4-0.1-0.3,1.7-0.1c-0.4,0.2-0.8,0.4-1,0.5c0.9,0,0.7-0.1,1.4-0.1
				c0.2,0.1-0.6,0.4-1.3,0.5l1.1,0.1c1.1-0.3,3-0.7,4.8-0.7c-0.3,0.1-0.9,0.1-0.4,0.4c0.7-0.1,1.8-0.4,2.8-0.3
				c-0.1,0-0.1,0.1-0.2,0.1c1.8-0.4,1.3,0,2.9,0c0,0,0,0.1-0.1,0.1l1-0.2c2-0.5,2.3,0.1,3.5,0.2l-0.3,0.1c0.8,0.2,3.2-0.2,4-0.1
				c-0.9-0.1-0.3-0.1-1-0.4c-0.7,0.1-0.5,0.4-1.8,0.4c0.1-0.3,1.7-0.5,2.1-0.7c0.7-0.1,1.2,0.4,1.3,0.5c1.8-0.2,2.8-0.1,4.9-0.4
				c0.7-0.3,1.3-1,3.1-0.7l-0.1,0.1c0.1-0.2,0.9-0.1,1.3-0.2c-0.7-0.2,0.7-0.3-0.1-0.5c1-0.1,1.3,0.3,1.4,0.5c0.7-0.5,2.1,0,3.7-0.4
				c-0.3,0.2-2,0.4-1.3,0.5l2-0.7l-0.9,0.1c1.6-0.4,2-0.1,3-0.1c0.2,0.1-0.4,0.2-0.8,0.2c0.5,0,1.3-0.1,1.9-0.3
				c0.4-0.1,2.1-0.5,2.8-0.8c0.1,0,0.1,0,0.3,0l-0.1,0.1c0.1,0,0.2-0.1,0.4-0.1c0.3,0,0.6,0,0.8,0l-0.1,0.1c0.1,0,0.2-0.1,0.3-0.1
				C153.6,168.6,153.9,168.6,154.2,168.6L154.2,168.6L154.2,168.6z"/>
		</g>
		<path id="exatlas_shoottips" inkscape:connector-curvature="0" class="st13" d="M386.2,86.3c-1.3-1.5-4-1.4-6.1-2
			c-1.2-0.4-2.7-0.6-2.7-2.2c0.6-2.3-0.3-3.8-3-4.4c-2.4-1.1-2.1-3.4-2.3-5.2c-0.5-3.2-2.6-4.8-5.8-5c-4.3-0.3-8.5-1-12.7-1.7
			c-2.9-0.5-4.3,0.7-4.5,3.3c-3.4,0.4-6.3,1.8-8.7,3.7c-1,0.7-1.6,1.9-2.9,2.2c-3.4,1.1-3.4,3.9-4.2,6.3c-0.4,1.3-1,2.4-2.8,2.5
			c-0.5,0.1-1.1,0.3-1,0.8c0,0.1,0,0.3,0,0.4C348.3,86.7,367.2,86.2,386.2,86.3L386.2,86.3z" fill="#90EE90"/>
		<g id="g4778_1_">
			<g id="g4780_1_">
				<line id="line4782_1_" class="st1" x1="384.8" y1="72.5" x2="360.8" y2="78.2"/>
				<g id="g4784_1_">
					<path id="path4786_1_" inkscape:connector-curvature="0" class="st2" d="M359.7,78.5c0.4-0.3,1-0.8,1.3-1.3l-0.1,1l0.5,0.8
						C361,78.8,360.3,78.6,359.7,78.5L359.7,78.5z"/>
				</g>
			</g>
		</g>
		<g id="g4788_1_">
			<g id="g4790_1_">
				<line id="line4792_1_" class="st1" x1="403.4" y1="113.3" x2="367.4" y2="119.1"/>
				<g id="g4794_1_">
					<path id="path4796_1_" inkscape:connector-curvature="0" class="st2" d="M366.3,119.3c0.5-0.3,1.1-0.7,1.4-1.1l-0.1,0.9
						l0.4,0.8C367.6,119.7,366.8,119.4,366.3,119.3z"/>
				</g>
			</g>
		</g>
		<g id="g4798_1_">
			<g id="g4800_1_">
				<line id="line4802_1_" class="st1" x1="269" y1="151.1" x2="284" y2="156"/>
				<g id="g4804_1_">
					<path id="path4806_1_" inkscape:connector-curvature="0" class="st2" d="M285,156.3c-0.6,0-1.3,0.1-1.8,0.4l0.6-0.7v-1
						C284,155.5,284.6,156,285,156.3L285,156.3z"/>
				</g>
			</g>
		</g>
	</g>
	<g>
		<path class="st14" d="M390,547H127c-6.6,0-12-5.4-12-12V25.8c0-6.6,5.4-12,12-12h263c6.6,0,12,5.4,12,12V535
			C402,541.6,396.6,547,390,547z"/>
	</g>
	
		<use xlink:href="#Info"  width="63" height="63" id="bs_exatlas_info" x="-31.5" y="-31.5" transform="matrix(0.2765 0 0 -0.2765 384.6891 532.2565)" style="overflow:visible;"/>
	<g class="st4">
		<path class="st15" d="M190.1,26l-0.2,0.9h-4.2l-0.5,2.3h4.2l-0.2,0.9H185l-0.7,3h4.2l-0.2,0.9H183l1.8-8
			C184.8,26,190.1,26,190.1,26z"/>
		<path class="st15" d="M191.5,34h-1.3l0.4-1.5h1.3L191.5,34z"/>
		<path class="st15" d="M204,28l-1.2,5.3c-0.2,1-0.6,1.8-1.2,2.2c-0.5,0.5-1.3,0.7-2.2,0.7c-0.3,0-0.6,0-0.9-0.1
			c-0.3,0-0.6-0.1-0.9-0.2l0.2-1h0.1c0.2,0.1,0.5,0.2,0.8,0.3s0.7,0.1,1,0.1s0.6,0,0.9-0.1c0.2-0.1,0.4-0.2,0.6-0.4
			c0.2-0.2,0.3-0.3,0.4-0.5s0.2-0.4,0.2-0.7l0.1-0.5c-0.4,0.2-0.7,0.4-1,0.5s-0.6,0.2-1.1,0.2c-0.6,0-1-0.2-1.4-0.5
			s-0.5-0.9-0.5-1.5c0-0.5,0.1-1,0.3-1.5c0.2-0.5,0.4-0.9,0.7-1.3c0.3-0.4,0.7-0.7,1.1-0.9s0.9-0.3,1.3-0.3c0.3,0,0.7,0,0.9,0.1
			s0.5,0.2,0.7,0.3L203,28H204z M202.7,29.1c-0.2-0.1-0.5-0.2-0.7-0.3s-0.5-0.1-0.7-0.1c-0.4,0-0.7,0.1-1,0.2
			c-0.3,0.2-0.5,0.4-0.7,0.7s-0.4,0.6-0.5,1s-0.2,0.7-0.2,1.1c0,0.4,0.1,0.7,0.3,1c0.2,0.2,0.5,0.3,0.9,0.3c0.3,0,0.6-0.1,0.9-0.2
			c0.3-0.1,0.6-0.3,0.9-0.5L202.7,29.1z"/>
		<path class="st15" d="M209.4,29.1L209.4,29.1c-0.2,0-0.3-0.1-0.5-0.1c-0.1,0-0.3,0-0.4,0c-0.3,0-0.7,0.1-1,0.2
			c-0.3,0.2-0.6,0.3-1,0.5l-1,4.3h-1l1.4-6h1l-0.2,0.9c0.5-0.3,0.9-0.6,1.2-0.7c0.3-0.1,0.6-0.2,1-0.2c0.2,0,0.3,0,0.4,0
			s0.2,0,0.3,0.1L209.4,29.1z"/>
		<path class="st15" d="M213.1,33.4c-0.1,0.1-0.2,0.1-0.4,0.2s-0.3,0.2-0.5,0.3c-0.2,0.1-0.4,0.2-0.6,0.2s-0.5,0.1-0.8,0.1
			c-0.5,0-0.9-0.1-1.2-0.4s-0.4-0.6-0.4-1.1s0.1-0.9,0.3-1.2c0.2-0.3,0.5-0.6,0.9-0.8s0.9-0.4,1.5-0.4c0.6-0.1,1.2-0.1,2-0.2
			c0-0.1,0-0.2,0.1-0.3s0-0.1,0-0.2c0-0.2,0-0.3-0.1-0.4c-0.1-0.1-0.2-0.2-0.3-0.3c-0.1-0.1-0.3-0.1-0.4-0.1s-0.4,0-0.6,0
			c-0.3,0-0.7,0-1,0.1s-0.7,0.2-1,0.3h-0.1l0.2-1c0.2-0.1,0.5-0.1,0.9-0.2c0.4-0.1,0.8-0.1,1.1-0.1c0.7,0,1.3,0.1,1.7,0.3
			c0.4,0.2,0.6,0.6,0.6,1.1c0,0.1,0,0.2,0,0.3s0,0.2-0.1,0.3L214,34h-1L213.1,33.4z M213.7,30.8c-0.6,0-1,0.1-1.5,0.1
			c-0.4,0.1-0.8,0.2-1.1,0.3c-0.3,0.1-0.5,0.3-0.7,0.5s-0.2,0.5-0.2,0.8s0.1,0.5,0.3,0.6c0.2,0.1,0.4,0.2,0.8,0.2
			c0.3,0,0.7-0.1,1-0.2s0.7-0.3,0.9-0.5L213.7,30.8z"/>
		<path class="st15" d="M221.9,29.4c0,0.1,0,0.2,0,0.3s0,0.3-0.1,0.4l-0.9,3.9h-1l0.8-3.4c0-0.2,0.1-0.4,0.1-0.5s0-0.3,0-0.4
			c0-0.3-0.1-0.5-0.2-0.7s-0.4-0.2-0.8-0.2c-0.3,0-0.6,0.1-0.9,0.2s-0.6,0.3-1,0.5l-1,4.5h-1l1.4-6h1l-0.2,0.7
			c0.4-0.3,0.7-0.5,1.1-0.6c0.3-0.1,0.7-0.2,1-0.2c0.5,0,0.9,0.1,1.2,0.4C221.7,28.5,221.9,28.9,221.9,29.4z"/>
		<path class="st15" d="M229.6,25.6l-1.9,8.4h-1l0.1-0.6c-0.5,0.3-0.8,0.5-1.1,0.6c-0.3,0.1-0.6,0.2-0.9,0.2c-0.6,0-1-0.2-1.3-0.5
			c-0.3-0.4-0.5-0.9-0.5-1.6c0-0.6,0.1-1.1,0.3-1.6c0.2-0.5,0.4-1,0.7-1.4c0.3-0.4,0.7-0.7,1.1-0.9s0.9-0.3,1.3-0.3
			c0.3,0,0.6,0,0.9,0.1s0.5,0.2,0.8,0.3l0.6-2.6L229.6,25.6L229.6,25.6z M227.8,29.1c-0.2-0.1-0.5-0.2-0.7-0.3s-0.5-0.1-0.7-0.1
			c-0.4,0-0.7,0.1-1,0.3s-0.5,0.4-0.7,0.7s-0.3,0.6-0.4,1s-0.2,0.8-0.2,1.2s0.1,0.8,0.3,1c0.2,0.2,0.5,0.3,0.9,0.3
			c0.3,0,0.6-0.1,0.9-0.2c0.3-0.2,0.6-0.3,0.9-0.5L227.8,29.1z"/>
		<path class="st15" d="M232.1,28l-1.4,6h-1l1.4-6H232.1z M232.6,25.9l-0.2,1h-1.1l0.2-1H232.6z"/>
		<path class="st15" d="M234.6,34.1c-0.4,0-0.8-0.1-1.2-0.2c-0.4-0.1-0.6-0.2-0.9-0.4l0.2-1.1h0.1c0.1,0.1,0.2,0.1,0.3,0.2
			c0.1,0.1,0.3,0.2,0.5,0.3s0.4,0.2,0.6,0.2c0.2,0.1,0.4,0.1,0.7,0.1c0.5,0,0.9-0.1,1.2-0.3c0.3-0.2,0.4-0.5,0.4-0.8
			c0-0.2-0.1-0.3-0.2-0.4c-0.1-0.1-0.4-0.2-0.6-0.2c-0.1,0-0.3-0.1-0.5-0.1s-0.4-0.1-0.6-0.1c-0.4-0.1-0.7-0.3-0.9-0.5
			s-0.3-0.5-0.3-0.8s0.1-0.5,0.2-0.8s0.3-0.5,0.5-0.7s0.5-0.4,0.9-0.5s0.7-0.2,1.2-0.2c0.4,0,0.7,0,1.1,0.1s0.6,0.2,0.9,0.3l-0.2,1
			h-0.1c-0.1,0-0.1-0.1-0.3-0.2c-0.1-0.1-0.3-0.2-0.4-0.2c-0.2-0.1-0.3-0.1-0.5-0.2c-0.2,0-0.4-0.1-0.6-0.1c-0.4,0-0.8,0.1-1.1,0.3
			c-0.3,0.2-0.4,0.4-0.4,0.8c0,0.2,0.1,0.3,0.2,0.4s0.3,0.2,0.6,0.3c0.2,0,0.4,0.1,0.6,0.1s0.4,0.1,0.6,0.1c0.4,0.1,0.7,0.3,0.9,0.5
			c0.2,0.2,0.3,0.5,0.3,0.8s-0.1,0.5-0.2,0.8s-0.3,0.5-0.6,0.7c-0.3,0.2-0.6,0.4-0.9,0.5C235.4,34.1,235,34.1,234.6,34.1z"/>
	</g>
	<g class="st4">
		<path class="st15" d="M250.6,26.9h-2.9V34h-1.1v-7.1h-2.9V26h6.8v0.9H250.6z"/>
		<path class="st15" d="M252.7,27h-1.1v-1h1.1V27z M252.6,34h-1v-6h1V34z"/>
		<path class="st15" d="M258.9,32.3c0,0.5-0.2,1-0.7,1.3c-0.5,0.4-1.1,0.5-1.9,0.5c-0.4,0-0.9-0.1-1.2-0.2c-0.4-0.1-0.7-0.2-0.9-0.3
			v-1.1h0.1c0.3,0.2,0.7,0.4,1.1,0.6s0.8,0.2,1.1,0.2c0.4,0,0.8-0.1,1-0.2s0.4-0.4,0.4-0.7c0-0.2-0.1-0.4-0.2-0.5s-0.4-0.2-0.8-0.3
			c-0.1,0-0.3-0.1-0.6-0.1c-0.2,0-0.4-0.1-0.6-0.1c-0.5-0.1-0.9-0.3-1.1-0.6s-0.3-0.6-0.3-1c0-0.2,0.1-0.5,0.2-0.7s0.3-0.4,0.5-0.6
			c0.2-0.2,0.5-0.3,0.8-0.4c0.3-0.1,0.7-0.1,1-0.1c0.4,0,0.7,0,1.1,0.1s0.7,0.2,0.9,0.3v1.1h-0.1c-0.3-0.2-0.6-0.4-0.9-0.5
			s-0.7-0.2-1.1-0.2s-0.7,0.1-0.9,0.2s-0.4,0.4-0.4,0.6c0,0.2,0.1,0.4,0.2,0.6c0.2,0.1,0.4,0.2,0.7,0.3c0.2,0,0.4,0.1,0.6,0.1
			s0.4,0.1,0.6,0.1c0.5,0.1,0.8,0.3,1.1,0.6C258.8,31.5,258.9,31.8,258.9,32.3z"/>
		<path class="st15" d="M264.6,32.3c0,0.5-0.2,1-0.7,1.3c-0.5,0.4-1.1,0.5-1.9,0.5c-0.4,0-0.9-0.1-1.2-0.2c-0.4-0.1-0.7-0.2-0.9-0.3
			v-1.1h0.1c0.3,0.2,0.7,0.4,1.1,0.6s0.8,0.2,1.1,0.2c0.4,0,0.8-0.1,1-0.2s0.4-0.4,0.4-0.7c0-0.2-0.1-0.4-0.2-0.5s-0.4-0.2-0.8-0.3
			c-0.1,0-0.3-0.1-0.6-0.1c-0.2,0-0.4-0.1-0.6-0.1c-0.5-0.1-0.9-0.3-1.1-0.6s-0.3-0.6-0.3-1c0-0.2,0.1-0.5,0.2-0.7s0.3-0.4,0.5-0.6
			c0.2-0.2,0.5-0.3,0.8-0.4c0.3-0.1,0.7-0.1,1-0.1c0.4,0,0.7,0,1.1,0.1s0.7,0.2,0.9,0.3v1.1h-0.1c-0.3-0.2-0.6-0.4-0.9-0.5
			s-0.7-0.2-1.1-0.2s-0.7,0.1-0.9,0.2s-0.4,0.4-0.4,0.6c0,0.2,0.1,0.4,0.2,0.6c0.2,0.1,0.4,0.2,0.7,0.3c0.2,0,0.4,0.1,0.6,0.1
			s0.4,0.1,0.6,0.1c0.5,0.1,0.8,0.3,1.1,0.6C264.5,31.5,264.6,31.8,264.6,32.3z"/>
		<path class="st15" d="M271,34h-1v-0.7c-0.3,0.3-0.7,0.5-1,0.6s-0.7,0.2-1,0.2c-0.6,0-1.1-0.2-1.5-0.6s-0.5-0.9-0.5-1.7V28h1v3.4
			c0,0.3,0,0.6,0,0.8s0.1,0.4,0.2,0.6c0.1,0.2,0.2,0.3,0.4,0.3s0.4,0.1,0.7,0.1c0.3,0,0.5-0.1,0.9-0.2c0.3-0.1,0.6-0.3,0.9-0.5V28h1
			v6H271z"/>
		<path class="st15" d="M278,31.1h-4.4c0,0.4,0.1,0.7,0.2,1s0.3,0.5,0.5,0.7s0.4,0.3,0.7,0.4c0.3,0.1,0.5,0.1,0.8,0.1
			c0.4,0,0.8-0.1,1.2-0.2c0.4-0.2,0.7-0.3,0.9-0.5h0.1v1.1c-0.3,0.1-0.7,0.3-1,0.4c-0.4,0.1-0.7,0.1-1.1,0.1c-1,0-1.8-0.3-2.3-0.8
			s-0.8-1.3-0.8-2.3s0.3-1.8,0.8-2.3c0.5-0.6,1.2-0.9,2.1-0.9c0.8,0,1.4,0.2,1.9,0.7c0.4,0.5,0.7,1.1,0.7,2v0.5H278z M277.1,30.3
			c0-0.5-0.1-0.9-0.4-1.2s-0.7-0.4-1.2-0.4s-1,0.2-1.3,0.5s-0.5,0.7-0.5,1.2L277.1,30.3L277.1,30.3z"/>
		<path class="st15" d="M288.5,31.1H284c0,0.4,0.1,0.7,0.2,1s0.3,0.5,0.5,0.7s0.4,0.3,0.7,0.4c0.3,0.1,0.5,0.1,0.8,0.1
			c0.4,0,0.8-0.1,1.2-0.2c0.4-0.2,0.7-0.3,0.9-0.5h0.1v1.1c-0.3,0.1-0.7,0.3-1,0.4c-0.4,0.1-0.7,0.1-1.1,0.1c-1,0-1.8-0.3-2.3-0.8
			s-1-1.4-1-2.4s0.3-1.8,0.8-2.3c0.5-0.6,1.2-0.9,2.1-0.9c0.8,0,1.4,0.2,1.9,0.7c0.4,0.5,0.7,1.1,0.7,2V31.1z M287.5,30.3
			c0-0.5-0.1-0.9-0.4-1.2s-0.7-0.4-1.2-0.4s-1,0.2-1.3,0.5s-0.5,0.7-0.5,1.2L287.5,30.3L287.5,30.3z"/>
		<path class="st15" d="M295.2,34h-1.3l-1.7-2.3l-1.7,2.3h-1.2l2.3-3l-2.3-3h1.3l1.7,2.3L294,28h1.2l-2.4,3L295.2,34z"/>
		<path class="st15" d="M302.9,34h-1.1l-0.8-2.2h-3.5l-0.8,2.2h-1.1l2.9-8h1.4L302.9,34z M300.6,30.9l-1.4-3.9l-1.4,3.9H300.6z"/>
		<path class="st15" d="M307,33.9c-0.2,0-0.4,0.1-0.6,0.1s-0.4,0-0.6,0c-0.6,0-1.1-0.2-1.4-0.5s-0.5-0.9-0.5-1.6v-3.2h-0.7V28h0.7
			v-1.7h1V28h2.1v0.8h-2.1v2.7c0,0.3,0,0.6,0,0.7c0,0.2,0.1,0.3,0.2,0.5c0.1,0.1,0.2,0.2,0.3,0.3c0.1,0.1,0.3,0.1,0.6,0.1
			c0.2,0,0.3,0,0.5-0.1c0.2,0,0.3-0.1,0.4-0.1h0.1V33.9z"/>
		<path class="st15" d="M309.3,34h-1v-8.4h1V34z"/>
		<path class="st15" d="M315.9,34h-1v-0.6c-0.1,0.1-0.2,0.1-0.4,0.3c-0.2,0.1-0.3,0.2-0.4,0.3c-0.2,0.1-0.4,0.2-0.6,0.2
			s-0.5,0.1-0.8,0.1c-0.5,0-1-0.2-1.4-0.5c-0.4-0.4-0.6-0.8-0.6-1.4c0-0.5,0.1-0.8,0.3-1.1c0.2-0.3,0.5-0.5,0.8-0.7
			c0.4-0.2,0.8-0.3,1.3-0.3s1.1-0.1,1.6-0.1V30c0-0.2,0-0.4-0.1-0.6c-0.1-0.2-0.2-0.3-0.3-0.4c-0.1-0.1-0.3-0.1-0.5-0.2
			s-0.4,0-0.6,0c-0.3,0-0.6,0-0.9,0.1s-0.7,0.2-1,0.3h-0.1v-1c0.2-0.1,0.5-0.1,0.9-0.2s0.7-0.1,1.1-0.1s0.8,0,1.1,0.1
			c0.3,0.1,0.6,0.2,0.8,0.4c0.2,0.2,0.4,0.4,0.5,0.6c0.1,0.3,0.2,0.6,0.2,1v4H315.9z M314.9,32.5v-1.7c-0.3,0-0.7,0-1.1,0.1
			c-0.4,0-0.7,0.1-1,0.2c-0.3,0.1-0.5,0.2-0.7,0.4s-0.3,0.4-0.3,0.7s0.1,0.6,0.3,0.8c0.2,0.2,0.5,0.3,1,0.3c0.4,0,0.7-0.1,1-0.2
			S314.7,32.7,314.9,32.5z"/>
		<path class="st15" d="M322.2,32.3c0,0.5-0.2,1-0.7,1.3c-0.5,0.4-1.1,0.5-1.9,0.5c-0.4,0-0.9-0.1-1.2-0.2c-0.4-0.1-0.7-0.2-0.9-0.3
			v-1.1h0.1c0.3,0.2,0.7,0.4,1.1,0.6s0.8,0.2,1.1,0.2c0.4,0,0.8-0.1,1-0.2s0.4-0.4,0.4-0.7c0-0.2-0.1-0.4-0.2-0.5s-0.4-0.2-0.8-0.3
			c-0.1,0-0.3-0.1-0.6-0.1c-0.2,0-0.4-0.1-0.6-0.1c-0.5-0.1-0.9-0.3-1.1-0.6s-0.3-0.6-0.3-1c0-0.2,0.1-0.5,0.2-0.7s0.3-0.4,0.5-0.6
			c0.2-0.2,0.5-0.3,0.8-0.4c0.3-0.1,0.7-0.1,1-0.1c0.4,0,0.7,0,1.1,0.1s0.7,0.2,0.9,0.3v1.1H322c-0.3-0.2-0.6-0.4-0.9-0.5
			s-0.7-0.2-1.1-0.2s-0.7,0.1-0.9,0.2s-0.4,0.4-0.4,0.6c0,0.2,0.1,0.4,0.2,0.6c0.2,0.1,0.4,0.2,0.7,0.3c0.2,0,0.4,0.1,0.6,0.1
			s0.4,0.1,0.6,0.1c0.5,0.1,0.8,0.3,1.1,0.6C322,31.5,322.2,31.8,322.2,32.3z"/>
	</g>
	<g class="st4">
		<path d="M122.2,538v-6.9h-2.6v-0.9h6.2v0.9h-2.6v6.9H122.2z"/>
		<path d="M125.2,535.1c0-1.1,0.3-1.8,0.9-2.3c0.5-0.4,1.1-0.6,1.8-0.6c0.8,0,1.4,0.3,1.9,0.8s0.7,1.2,0.7,2.1
			c0,0.7-0.1,1.3-0.3,1.7s-0.5,0.7-1,1c-0.4,0.2-0.9,0.3-1.4,0.3c-0.8,0-1.4-0.3-1.9-0.8S125.2,536.1,125.2,535.1z M126.2,535.1
			c0,0.7,0.2,1.3,0.5,1.6s0.7,0.5,1.2,0.5s0.9-0.2,1.2-0.5s0.5-0.9,0.5-1.7c0-0.7-0.2-1.2-0.5-1.6c-0.3-0.4-0.7-0.5-1.2-0.5
			s-0.9,0.2-1.2,0.5S126.2,534.4,126.2,535.1z"/>
		<path d="M135.6,538h-0.9v-7.9h1v2.8c0.4-0.5,0.9-0.8,1.6-0.8c0.4,0,0.7,0.1,1,0.2c0.3,0.1,0.6,0.3,0.8,0.6s0.4,0.6,0.5,0.9
			c0.1,0.4,0.2,0.7,0.2,1.2c0,1-0.2,1.7-0.7,2.3c-0.5,0.5-1.1,0.8-1.7,0.8c-0.7,0-1.2-0.3-1.6-0.8v0.7H135.6z M135.6,535.1
			c0,0.7,0.1,1.2,0.3,1.5c0.3,0.5,0.7,0.7,1.2,0.7c0.4,0,0.8-0.2,1.1-0.6s0.5-0.9,0.5-1.6c0-0.7-0.1-1.3-0.4-1.6
			c-0.3-0.4-0.7-0.5-1.1-0.5c-0.4,0-0.8,0.2-1.1,0.6S135.6,534.4,135.6,535.1z"/>
		<path d="M144.8,536.2l1,0.1c-0.2,0.6-0.4,1-0.9,1.4s-1,0.5-1.6,0.5c-0.8,0-1.5-0.3-2-0.8s-0.7-1.2-0.7-2.2s0.2-1.7,0.7-2.2
			s1.1-0.8,1.9-0.8c0.8,0,1.4,0.3,1.9,0.8s0.7,1.2,0.7,2.2c0,0.1,0,0.1,0,0.3h-4.3c0,0.6,0.2,1.1,0.5,1.4c0.3,0.3,0.7,0.5,1.2,0.5
			c0.4,0,0.7-0.1,0.9-0.3S144.6,536.6,144.8,536.2z M141.6,534.6h3.2c0-0.5-0.2-0.8-0.4-1.1c-0.3-0.4-0.7-0.6-1.2-0.6
			c-0.4,0-0.8,0.1-1.1,0.4C141.8,533.7,141.6,534.1,141.6,534.6z"/>
		<path d="M150,540.2v-7.9h0.9v0.7c0.2-0.3,0.4-0.5,0.7-0.7c0.3-0.1,0.6-0.2,1-0.2c0.5,0,0.9,0.1,1.3,0.4c0.4,0.3,0.7,0.6,0.8,1.1
			c0.2,0.5,0.3,1,0.3,1.5c0,0.6-0.1,1.1-0.3,1.6c-0.2,0.5-0.5,0.8-0.9,1.1c-0.4,0.2-0.8,0.4-1.3,0.4c-0.3,0-0.6-0.1-0.9-0.2
			c-0.3-0.1-0.5-0.3-0.6-0.5v2.8L150,540.2L150,540.2z M150.9,535.2c0,0.7,0.1,1.3,0.4,1.6s0.7,0.5,1.1,0.5c0.4,0,0.8-0.2,1.1-0.5
			c0.3-0.4,0.5-0.9,0.5-1.7c0-0.7-0.1-1.3-0.4-1.6c-0.3-0.4-0.7-0.5-1.1-0.5c-0.4,0-0.8,0.2-1.1,0.6
			C151.1,533.9,150.9,534.4,150.9,535.2z"/>
		<path d="M159.9,538v-0.8c-0.4,0.6-1,1-1.8,1c-0.3,0-0.7-0.1-0.9-0.2c-0.3-0.1-0.5-0.3-0.7-0.5c-0.1-0.2-0.2-0.4-0.3-0.7
			c0-0.2-0.1-0.5-0.1-0.9v-3.5h1v3.2c0,0.5,0,0.8,0.1,1c0.1,0.3,0.2,0.5,0.4,0.6c0.2,0.1,0.4,0.2,0.7,0.2s0.6-0.1,0.8-0.2
			s0.4-0.4,0.5-0.6c0.1-0.3,0.2-0.6,0.2-1.1v-3.1h1v5.7h-0.9V538z"/>
		<path d="M163.2,538h-0.9v-7.9h1v2.8c0.4-0.5,0.9-0.8,1.6-0.8c0.4,0,0.7,0.1,1,0.2c0.3,0.1,0.6,0.3,0.8,0.6
			c0.2,0.3,0.4,0.6,0.5,0.9c0.1,0.4,0.2,0.7,0.2,1.2c0,1-0.2,1.7-0.7,2.3c-0.5,0.5-1.1,0.8-1.7,0.8c-0.7,0-1.2-0.3-1.6-0.8v0.7
			H163.2z M163.1,535.1c0,0.7,0.1,1.2,0.3,1.5c0.3,0.5,0.7,0.7,1.2,0.7c0.4,0,0.8-0.2,1.1-0.6s0.5-0.9,0.5-1.6
			c0-0.7-0.1-1.3-0.4-1.6c-0.3-0.4-0.7-0.5-1.1-0.5s-0.8,0.2-1.1,0.6S163.1,534.4,163.1,535.1z"/>
		<path d="M168.4,538v-7.9h1v7.9H168.4z"/>
		<path d="M170.8,531.2v-1.1h1v1.1H170.8z M170.8,538v-5.7h1v5.7H170.8z"/>
		<path d="M172.9,536.3l1-0.2c0.1,0.4,0.2,0.7,0.4,0.9c0.2,0.2,0.6,0.3,1,0.3s0.8-0.1,1-0.3s0.3-0.4,0.3-0.6c0-0.2-0.1-0.4-0.3-0.5
			c-0.1-0.1-0.5-0.2-1-0.3c-0.7-0.2-1.2-0.3-1.5-0.5c-0.3-0.1-0.5-0.3-0.6-0.5s-0.2-0.5-0.2-0.8s0.1-0.5,0.2-0.7s0.3-0.4,0.5-0.5
			s0.4-0.2,0.6-0.3c0.3-0.1,0.5-0.1,0.8-0.1c0.4,0,0.8,0.1,1.2,0.2c0.3,0.1,0.6,0.3,0.7,0.5c0.2,0.2,0.3,0.5,0.3,0.9l-0.9,0.1
			c0-0.3-0.2-0.5-0.4-0.7c-0.2-0.2-0.5-0.2-0.9-0.2s-0.8,0.1-1,0.2c-0.2,0.1-0.3,0.3-0.3,0.5c0,0.1,0,0.2,0.1,0.3s0.2,0.2,0.4,0.3
			c0.1,0,0.4,0.1,0.9,0.2c0.7,0.2,1.2,0.3,1.4,0.4c0.3,0.1,0.5,0.3,0.6,0.5s0.2,0.5,0.2,0.8s-0.1,0.6-0.3,0.9
			c-0.2,0.3-0.5,0.5-0.8,0.7c-0.4,0.2-0.8,0.2-1.2,0.2c-0.7,0-1.3-0.2-1.7-0.5C173.2,537.4,173,536.9,172.9,536.3z"/>
		<path d="M178.8,538v-7.9h1v2.8c0.5-0.5,1-0.8,1.7-0.8c0.4,0,0.8,0.1,1.1,0.2c0.3,0.2,0.5,0.4,0.7,0.7c0.1,0.3,0.2,0.7,0.2,1.3v3.6
			h-1v-3.6c0-0.5-0.1-0.8-0.3-1.1c-0.2-0.2-0.5-0.3-0.9-0.3c-0.3,0-0.6,0.1-0.8,0.2c-0.3,0.1-0.4,0.3-0.5,0.6s-0.2,0.6-0.2,1.1v3.1
			h-1V538z"/>
		<path d="M188.8,536.2l1,0.1c-0.2,0.6-0.4,1-0.9,1.4s-1,0.5-1.6,0.5c-0.8,0-1.5-0.3-2-0.8s-0.7-1.2-0.7-2.2s0.2-1.7,0.7-2.2
			s1.1-0.8,1.9-0.8s1.4,0.3,1.9,0.8s0.7,1.2,0.7,2.2c0,0.1,0,0.1,0,0.3h-4.3c0,0.6,0.2,1.1,0.5,1.4c0.3,0.3,0.7,0.5,1.2,0.5
			c0.4,0,0.7-0.1,0.9-0.3S188.6,536.6,188.8,536.2z M185.6,534.6h3.2c0-0.5-0.2-0.8-0.4-1.1c-0.3-0.4-0.7-0.6-1.2-0.6
			c-0.4,0-0.8,0.1-1.1,0.4C185.8,533.7,185.6,534.1,185.6,534.6z"/>
		<path d="M194.7,538v-0.7c-0.4,0.6-0.9,0.8-1.6,0.8c-0.5,0-0.9-0.1-1.3-0.4c-0.4-0.3-0.7-0.6-0.9-1c-0.2-0.4-0.3-1-0.3-1.5
			c0-0.6,0.1-1.1,0.3-1.5s0.5-0.8,0.9-1.1c0.4-0.2,0.8-0.4,1.3-0.4c0.3,0,0.6,0.1,0.9,0.2c0.3,0.1,0.5,0.3,0.7,0.6v-2.8h1v7.9
			L194.7,538L194.7,538z M191.6,535.2c0,0.7,0.2,1.3,0.5,1.6c0.3,0.4,0.7,0.5,1.1,0.5s0.8-0.2,1.1-0.5c0.3-0.3,0.4-0.9,0.4-1.6
			c0-0.8-0.2-1.4-0.5-1.7s-0.7-0.5-1.1-0.5s-0.8,0.2-1.1,0.5C191.8,533.8,191.6,534.4,191.6,535.2z"/>
		<path d="M199.8,536.3l1-0.2c0.1,0.4,0.2,0.7,0.4,0.9c0.2,0.2,0.6,0.3,1,0.3s0.8-0.1,1-0.3s0.3-0.4,0.3-0.6c0-0.2-0.1-0.4-0.3-0.5
			c-0.1-0.1-0.5-0.2-1-0.3c-0.7-0.2-1.2-0.3-1.5-0.5c-0.3-0.1-0.5-0.3-0.6-0.5s-0.2-0.5-0.2-0.8s0.1-0.5,0.2-0.7s0.3-0.4,0.5-0.5
			s0.4-0.2,0.6-0.3c0.3-0.1,0.5-0.1,0.8-0.1c0.4,0,0.8,0.1,1.2,0.2c0.3,0.1,0.6,0.3,0.7,0.5c0.2,0.2,0.3,0.5,0.3,0.9l-0.9,0.1
			c0-0.3-0.2-0.5-0.4-0.7c-0.2-0.2-0.5-0.2-0.9-0.2s-0.8,0.1-1,0.2c-0.2,0.1-0.3,0.3-0.3,0.5c0,0.1,0,0.2,0.1,0.3s0.2,0.2,0.4,0.3
			c0.1,0,0.4,0.1,0.9,0.2c0.7,0.2,1.2,0.3,1.4,0.4c0.3,0.1,0.5,0.3,0.6,0.5s0.2,0.5,0.2,0.8s-0.1,0.6-0.3,0.9
			c-0.2,0.3-0.5,0.5-0.8,0.7c-0.4,0.2-0.8,0.2-1.2,0.2c-0.7,0-1.3-0.2-1.7-0.5C200.1,537.4,199.9,536.9,199.8,536.3z"/>
		<path d="M205.3,535.1c0-1.1,0.3-1.8,0.9-2.3c0.5-0.4,1.1-0.6,1.8-0.6c0.8,0,1.4,0.3,1.9,0.8s0.7,1.2,0.7,2.1
			c0,0.7-0.1,1.3-0.3,1.7c-0.2,0.4-0.5,0.7-1,1c-0.4,0.2-0.9,0.3-1.4,0.3c-0.8,0-1.4-0.3-1.9-0.8
			C205.6,536.8,205.3,536.1,205.3,535.1z M206.3,535.1c0,0.7,0.2,1.3,0.5,1.6s0.7,0.5,1.2,0.5s0.9-0.2,1.2-0.5s0.5-0.9,0.5-1.7
			c0-0.7-0.2-1.2-0.5-1.6c-0.3-0.4-0.7-0.5-1.2-0.5s-0.9,0.2-1.2,0.5S206.3,534.4,206.3,535.1z"/>
		<path d="M211.4,535.1c0-1.1,0.3-1.8,0.9-2.3c0.5-0.4,1.1-0.6,1.8-0.6c0.8,0,1.4,0.3,1.9,0.8s0.7,1.2,0.7,2.1
			c0,0.7-0.1,1.3-0.3,1.7c-0.2,0.4-0.5,0.7-1,1c-0.4,0.2-0.9,0.3-1.4,0.3c-0.8,0-1.4-0.3-1.9-0.8
			C211.7,536.8,211.4,536.1,211.4,535.1z M212.4,535.1c0,0.7,0.2,1.3,0.5,1.6s0.7,0.5,1.2,0.5s0.9-0.2,1.2-0.5s0.5-0.9,0.5-1.7
			c0-0.7-0.2-1.2-0.5-1.6c-0.3-0.4-0.7-0.5-1.2-0.5s-0.9,0.2-1.2,0.5S212.4,534.4,212.4,535.1z"/>
		<path d="M217.9,538v-5.7h0.9v0.8c0.4-0.6,1-0.9,1.8-0.9c0.3,0,0.7,0.1,0.9,0.2c0.3,0.1,0.5,0.3,0.6,0.5s0.2,0.4,0.3,0.7
			c0,0.2,0.1,0.5,0.1,0.9v3.5h-1v-3.5c0-0.4,0-0.7-0.1-0.9s-0.2-0.4-0.4-0.5c-0.2-0.1-0.4-0.2-0.7-0.2c-0.4,0-0.8,0.1-1.1,0.4
			c-0.3,0.3-0.4,0.8-0.4,1.5v3.1h-0.9V538z"/>
		<path d="M224.3,538v-1.1h1.1v1.1H224.3z"/>
	</g>
</g>
</svg>
