<?xml version="1.0" encoding="utf-8"?>
<!-- Generator: Adobe Illustrator 21.0.0, SVG Export Plug-In . SVG Version: 6.00 Build 0)  -->
<svg version="1.1" id="Layer_1" xmlns="http://www.w3.org/2000/svg" xmlns:xlink="http://www.w3.org/1999/xlink" x="0px" y="0px"
	 viewBox="0 0 200 200" style="enable-background:new 0 0 200 200;" xml:space="preserve">
<style type="text/css">
	.st0{fill:none;}
	.st1{fill:none;stroke:#231F20;stroke-width:0.3;stroke-linejoin:round;}
	.st2{fill:url(#Diagonal_Lines);stroke:#808080;}
	.st3{fill:url(#SVGID_1_);}
	.st4{fill:#ED1C24;}
	.st5{font-family:'MyriadPro-Regular';}
	.st6{font-size:12px;}
	.st7{fill:url(#SVGID_2_);}
	.st8{fill:#808080;}
	.st9{fill:url(#SVGID_3_);}
	.st10{font-size:10px;}
	.st11{fill:none;stroke:#666666;stroke-dasharray:2,2;}
</style>
<pattern  y="200" width="72" height="72" patternUnits="userSpaceOnUse" id="Diagonal_Lines" viewBox="79.6 -151.6 72 72" style="overflow:visible;">
	<g>
		<rect x="79.6" y="-151.6" class="st0" width="72" height="72"/>
		<g>
			<rect x="79.6" y="-151.6" class="st0" width="72" height="72"/>
			<g>
				<line class="st1" x1="144.1" y1="-162.1" x2="162.1" y2="-144.1"/>
				<line class="st1" x1="144.1" y1="-168.1" x2="168.1" y2="-144.1"/>
				<line class="st1" x1="144.1" y1="-174.1" x2="174.1" y2="-144.1"/>
				<line class="st1" x1="144.1" y1="-180.1" x2="180.1" y2="-144.1"/>
				<line class="st1" x1="144.1" y1="-186.1" x2="186.1" y2="-144.1"/>
				<line class="st1" x1="144.1" y1="-192.1" x2="192.1" y2="-144.1"/>
				<line class="st1" x1="144.1" y1="-198.1" x2="198.1" y2="-144.1"/>
				<line class="st1" x1="144.1" y1="-204.1" x2="204.1" y2="-144.1"/>
				<line class="st1" x1="144.1" y1="-210.1" x2="210.1" y2="-144.1"/>
				<line class="st1" x1="144.1" y1="-216.1" x2="216.1" y2="-144.1"/>
				<line class="st1" x1="144.1" y1="-222.1" x2="222.1" y2="-144.1"/>
				<line class="st1" x1="144.1" y1="-228.1" x2="228.1" y2="-144.1"/>
				<line class="st1" x1="150.1" y1="-228.1" x2="228.1" y2="-150.1"/>
			</g>
			<g>
				<line class="st1" x1="72.1" y1="-162.1" x2="90.1" y2="-144.1"/>
				<line class="st1" x1="72.1" y1="-168.1" x2="96.1" y2="-144.1"/>
				<line class="st1" x1="72.1" y1="-174.1" x2="102.1" y2="-144.1"/>
				<line class="st1" x1="72.1" y1="-180.1" x2="108.1" y2="-144.1"/>
				<line class="st1" x1="72.1" y1="-186.1" x2="114.1" y2="-144.1"/>
				<line class="st1" x1="72.1" y1="-192.1" x2="120.1" y2="-144.1"/>
				<line class="st1" x1="72.1" y1="-198.1" x2="126.1" y2="-144.1"/>
				<line class="st1" x1="72.1" y1="-204.1" x2="132.1" y2="-144.1"/>
				<line class="st1" x1="72.1" y1="-210.1" x2="138.1" y2="-144.1"/>
				<line class="st1" x1="72.1" y1="-216.1" x2="144.1" y2="-144.1"/>
				<line class="st1" x1="72.1" y1="-222.1" x2="150.1" y2="-144.1"/>
				<line class="st1" x1="72.1" y1="-228.1" x2="156.1" y2="-144.1"/>
				<line class="st1" x1="78.1" y1="-228.1" x2="156.1" y2="-150.1"/>
			</g>
			<g>
				<line class="st1" x1="0.1" y1="-228.1" x2="84.1" y2="-144.1"/>
				<line class="st1" x1="6.1" y1="-228.1" x2="84.1" y2="-150.1"/>
			</g>
			<g>
				<line class="st1" x1="144.1" y1="-90.1" x2="162.1" y2="-72.1"/>
				<line class="st1" x1="144.1" y1="-96.1" x2="168.1" y2="-72.1"/>
				<line class="st1" x1="144.1" y1="-102.1" x2="174.1" y2="-72.1"/>
				<line class="st1" x1="144.1" y1="-108.1" x2="180.1" y2="-72.1"/>
				<line class="st1" x1="144.1" y1="-114.1" x2="186.1" y2="-72.1"/>
				<line class="st1" x1="144.1" y1="-120.1" x2="192.1" y2="-72.1"/>
				<line class="st1" x1="144.1" y1="-126.1" x2="198.1" y2="-72.1"/>
				<line class="st1" x1="144.1" y1="-132.1" x2="204.1" y2="-72.1"/>
				<line class="st1" x1="144.1" y1="-138.1" x2="210.1" y2="-72.1"/>
				<line class="st1" x1="144.1" y1="-144.1" x2="216.1" y2="-72.1"/>
				<line class="st1" x1="144.1" y1="-150.1" x2="222.1" y2="-72.1"/>
				<line class="st1" x1="144.1" y1="-156.1" x2="228.1" y2="-72.1"/>
				<line class="st1" x1="150.1" y1="-156.1" x2="228.1" y2="-78.1"/>
			</g>
			<g>
				<line class="st1" x1="72.1" y1="-90.1" x2="90.1" y2="-72.1"/>
				<line class="st1" x1="72.1" y1="-96.1" x2="96.1" y2="-72.1"/>
				<line class="st1" x1="72.1" y1="-102.1" x2="102.1" y2="-72.1"/>
				<line class="st1" x1="72.1" y1="-108.1" x2="108.1" y2="-72.1"/>
				<line class="st1" x1="72.1" y1="-114.1" x2="114.1" y2="-72.1"/>
				<line class="st1" x1="72.1" y1="-120.1" x2="120.1" y2="-72.1"/>
				<line class="st1" x1="72.1" y1="-126.1" x2="126.1" y2="-72.1"/>
				<line class="st1" x1="72.1" y1="-132.1" x2="132.1" y2="-72.1"/>
				<line class="st1" x1="72.1" y1="-138.1" x2="138.1" y2="-72.1"/>
				<line class="st1" x1="72.1" y1="-144.1" x2="144.1" y2="-72.1"/>
				<line class="st1" x1="72.1" y1="-150.1" x2="150.1" y2="-72.1"/>
				<line class="st1" x1="72.1" y1="-156.1" x2="156.1" y2="-72.1"/>
				<line class="st1" x1="78.1" y1="-156.1" x2="156.1" y2="-78.1"/>
				<line class="st1" x1="84.1" y1="-156.1" x2="156.1" y2="-84.1"/>
				<line class="st1" x1="90.1" y1="-156.1" x2="156.1" y2="-90.1"/>
				<line class="st1" x1="96.1" y1="-156.1" x2="156.1" y2="-96.1"/>
				<line class="st1" x1="102.1" y1="-156.1" x2="156.1" y2="-102.1"/>
				<line class="st1" x1="108.1" y1="-156.1" x2="156.1" y2="-108.1"/>
				<line class="st1" x1="114.1" y1="-156.1" x2="156.1" y2="-114.1"/>
				<line class="st1" x1="120.1" y1="-156.1" x2="156.1" y2="-120.1"/>
				<line class="st1" x1="126.1" y1="-156.1" x2="156.1" y2="-126.1"/>
				<line class="st1" x1="132.1" y1="-156.1" x2="156.1" y2="-132.1"/>
				<line class="st1" x1="138.1" y1="-156.1" x2="156.1" y2="-138.1"/>
				<line class="st1" x1="144.1" y1="-156.1" x2="156.1" y2="-144.1"/>
			</g>
			<g>
				<line class="st1" x1="0.1" y1="-156.1" x2="84.1" y2="-72.1"/>
				<line class="st1" x1="6.1" y1="-156.1" x2="84.1" y2="-78.1"/>
				<line class="st1" x1="12.1" y1="-156.1" x2="84.1" y2="-84.1"/>
				<line class="st1" x1="18.1" y1="-156.1" x2="84.1" y2="-90.1"/>
				<line class="st1" x1="24.1" y1="-156.1" x2="84.1" y2="-96.1"/>
				<line class="st1" x1="30.1" y1="-156.1" x2="84.1" y2="-102.1"/>
				<line class="st1" x1="36.1" y1="-156.1" x2="84.1" y2="-108.1"/>
				<line class="st1" x1="42.1" y1="-156.1" x2="84.1" y2="-114.1"/>
				<line class="st1" x1="48.1" y1="-156.1" x2="84.1" y2="-120.1"/>
				<line class="st1" x1="54.1" y1="-156.1" x2="84.1" y2="-126.1"/>
				<line class="st1" x1="60.1" y1="-156.1" x2="84.1" y2="-132.1"/>
				<line class="st1" x1="66.1" y1="-156.1" x2="84.1" y2="-138.1"/>
				<line class="st1" x1="72.1" y1="-156.1" x2="84.1" y2="-144.1"/>
			</g>
			<g>
				<line class="st1" x1="144.1" y1="-84.1" x2="228.1" y2="-0.1"/>
				<line class="st1" x1="150.1" y1="-84.1" x2="228.1" y2="-6.1"/>
			</g>
			<g>
				<line class="st1" x1="72.1" y1="-84.1" x2="156.1" y2="-0.1"/>
				<line class="st1" x1="78.1" y1="-84.1" x2="156.1" y2="-6.1"/>
				<line class="st1" x1="84.1" y1="-84.1" x2="156.1" y2="-12.1"/>
				<line class="st1" x1="90.1" y1="-84.1" x2="156.1" y2="-18.1"/>
				<line class="st1" x1="96.1" y1="-84.1" x2="156.1" y2="-24.1"/>
				<line class="st1" x1="102.1" y1="-84.1" x2="156.1" y2="-30.1"/>
				<line class="st1" x1="108.1" y1="-84.1" x2="156.1" y2="-36.1"/>
				<line class="st1" x1="114.1" y1="-84.1" x2="156.1" y2="-42.1"/>
				<line class="st1" x1="120.1" y1="-84.1" x2="156.1" y2="-48.1"/>
				<line class="st1" x1="126.1" y1="-84.1" x2="156.1" y2="-54.1"/>
				<line class="st1" x1="132.1" y1="-84.1" x2="156.1" y2="-60.1"/>
				<line class="st1" x1="138.1" y1="-84.1" x2="156.1" y2="-66.1"/>
				<line class="st1" x1="144.1" y1="-84.1" x2="156.1" y2="-72.1"/>
			</g>
			<g>
				<line class="st1" x1="0.1" y1="-84.1" x2="84.1" y2="-0.1"/>
				<line class="st1" x1="6.1" y1="-84.1" x2="84.1" y2="-6.1"/>
				<line class="st1" x1="12.1" y1="-84.1" x2="84.1" y2="-12.1"/>
				<line class="st1" x1="18.1" y1="-84.1" x2="84.1" y2="-18.1"/>
				<line class="st1" x1="24.1" y1="-84.1" x2="84.1" y2="-24.1"/>
				<line class="st1" x1="30.1" y1="-84.1" x2="84.1" y2="-30.1"/>
				<line class="st1" x1="36.1" y1="-84.1" x2="84.1" y2="-36.1"/>
				<line class="st1" x1="42.1" y1="-84.1" x2="84.1" y2="-42.1"/>
				<line class="st1" x1="48.1" y1="-84.1" x2="84.1" y2="-48.1"/>
				<line class="st1" x1="54.1" y1="-84.1" x2="84.1" y2="-54.1"/>
				<line class="st1" x1="60.1" y1="-84.1" x2="84.1" y2="-60.1"/>
				<line class="st1" x1="66.1" y1="-84.1" x2="84.1" y2="-66.1"/>
				<line class="st1" x1="72.1" y1="-84.1" x2="84.1" y2="-72.1"/>
			</g>
		</g>
	</g>
</pattern>
<polygon class="st2" points="30.3,140.1 15,164.6 45.7,164.6 "/>
<g>
	<g>
		<pattern  id="SVGID_1_" xlink:href="#Diagonal_Lines" patternTransform="matrix(1 0 0 -1 -22.6 -16198.8125)">
		</pattern>
		<path class="st3" d="M28.5,56.5c-8.3,0-15-6.7-15-15s6.7-15,15-15s15,6.7,15,15S36.8,56.5,28.5,56.5z"/>
		<path class="st4" d="M28.5,27c8,0,14.5,6.5,14.5,14.5S36.5,56,28.5,56S14,49.5,14,41.5S20.5,27,28.5,27 M28.5,26
			C19.9,26,13,32.9,13,41.5S19.9,57,28.5,57S44,50.1,44,41.5S37.1,26,28.5,26L28.5,26z"/>
	</g>
	<text transform="matrix(1 0 0 1 47.5454 46.46)" class="st5 st6">Selected genes</text>
</g>
<g>
	<g>
		<pattern  id="SVGID_2_" xlink:href="#Diagonal_Lines" patternTransform="matrix(1 0 0 -1 -22.6 -16198.8125)">
		</pattern>
		<path class="st7" d="M28.5,97.5c-8.3,0-15-6.7-15-15s6.7-15,15-15s15,6.7,15,15S36.8,97.5,28.5,97.5z"/>
		<path class="st8" d="M28.5,68c8,0,14.5,6.5,14.5,14.5S36.5,97,28.5,97S14,90.5,14,82.5S20.5,68,28.5,68 M28.5,67
			C19.9,67,13,73.9,13,82.5S19.9,98,28.5,98S44,91.1,44,82.5S37.1,67,28.5,67L28.5,67z"/>
	</g>
	<text transform="matrix(1 0 0 1 47.5454 85.46)" class="st5 st6">Saved genes</text>
</g>
<g>
	<g>
		<pattern  id="SVGID_3_" xlink:href="#Diagonal_Lines" patternTransform="matrix(1 0 0 -1 -22.6 -16198.8125)">
		</pattern>
		<rect x="14.5" y="108.5" class="st9" width="27" height="25"/>
		<path class="st8" d="M41,109v24H15v-24H41 M42,108H14v26h28V108L42,108z"/>
	</g>
	<text transform="matrix(1 0 0 1 49.5454 123.46)" class="st5 st6">Unsaved genes</text>
	<text transform="matrix(1 0 0 1 50.5454 158.46)" class="st5 st10">Trancription Factor</text>
</g>
<g>
	<path class="st11" d="M136.6,179.3h-113c-7.5,0-13.7-6.9-13.7-15.2V33.2C10,24.9,16.2,18,23.7,18h113c7.5,0,13.7,6.9,13.7,15.2
		v130.8C150.3,172.5,144.2,179.3,136.6,179.3z"/>
</g>
</svg>
